<svg width="532" height="266" viewBox="0 0 532 266" fill="none" xmlns="http://www.w3.org/2000/svg">
<mask id="path-1-inside-1" fill="white">
<path fill-rule="evenodd" clip-rule="evenodd" d="M531.65 265.825H402.686C402.686 265.825 402.686 265.824 402.686 265.824C402.686 190.238 341.411 128.963 265.826 128.963C190.24 128.963 128.965 190.238 128.965 265.824C128.965 265.824 128.965 265.825 128.965 265.825H0C0 119.014 119.014 0 265.825 0C412.636 0 531.65 119.014 531.65 265.825Z"/>
</mask>
<path d="M402.686 265.825H399.686V268.825H402.686V265.825ZM531.65 265.825V268.825H534.65V265.825H531.65ZM128.965 265.825V268.825H131.965V265.825H128.965ZM0 265.825H-3V268.825H0L0 265.825ZM402.686 268.825H531.65V262.825H402.686V268.825ZM405.686 265.825C405.686 265.825 405.686 265.825 405.686 265.825C405.686 265.825 405.686 265.825 405.686 265.825C405.686 265.825 405.686 265.825 405.686 265.825C405.686 265.825 405.686 265.825 405.686 265.825C405.686 265.825 405.686 265.825 405.686 265.825C405.686 265.825 405.686 265.825 405.686 265.825C405.686 265.825 405.686 265.825 405.686 265.825C405.686 265.825 405.686 265.825 405.686 265.825C405.686 265.825 405.686 265.825 405.686 265.825C405.686 265.825 405.686 265.825 405.686 265.825C405.686 265.825 405.686 265.825 405.686 265.825C405.686 265.825 405.686 265.825 405.686 265.825C405.686 265.825 405.686 265.825 405.686 265.825C405.686 265.825 405.686 265.825 405.686 265.825C405.686 265.825 405.686 265.825 405.686 265.825C405.686 265.825 405.686 265.825 405.686 265.825C405.686 265.825 405.686 265.825 405.686 265.825C405.686 265.825 405.686 265.825 405.686 265.825C405.686 265.825 405.686 265.825 405.686 265.825C405.686 265.825 405.686 265.825 405.686 265.825C405.686 265.825 405.686 265.825 405.686 265.825C405.686 265.825 405.686 265.825 405.686 265.825C405.686 265.825 405.686 265.825 405.686 265.825C405.686 265.825 405.686 265.825 405.686 265.825C405.686 265.825 405.686 265.825 405.686 265.825C405.686 265.825 405.686 265.825 405.686 265.825C405.686 265.825 405.686 265.825 405.686 265.825C405.686 265.825 405.686 265.825 405.686 265.825C405.686 265.825 405.686 265.825 405.686 265.825C405.686 265.825 405.686 265.825 405.686 265.825C405.686 265.825 405.686 265.825 405.686 265.825C405.686 265.825 405.686 265.825 405.686 265.825C405.686 265.825 405.686 265.825 405.686 265.825C405.686 265.825 405.686 265.825 405.686 265.825C405.686 265.825 405.686 265.825 405.686 265.825C405.686 265.825 405.686 265.825 405.686 265.825C405.686 265.825 405.686 265.825 405.686 265.825C405.686 265.825 405.686 265.825 405.686 265.825C405.686 265.825 405.686 265.825 405.686 265.825C405.686 265.825 405.686 265.825 405.686 265.825C405.686 265.825 405.686 265.825 405.686 265.825C405.686 265.825 405.686 265.825 405.686 265.825C405.686 265.825 405.686 265.825 405.686 265.825C405.686 265.825 405.686 265.825 405.686 265.825C405.686 265.825 405.686 265.825 405.686 265.825C405.686 265.825 405.686 265.825 405.686 265.825C405.686 265.825 405.686 265.825 405.686 265.825C405.686 265.825 405.686 265.825 405.686 265.825C405.686 265.825 405.686 265.825 405.686 265.825C405.686 265.825 405.686 265.825 405.686 265.825C405.686 265.825 405.686 265.825 405.686 265.825C405.686 265.825 405.686 265.825 405.686 265.825C405.686 265.825 405.686 265.825 405.686 265.825C405.686 265.825 405.686 265.825 405.686 265.825C405.686 265.825 405.686 265.825 405.686 265.825C405.686 265.825 405.686 265.825 405.686 265.825C405.686 265.825 405.686 265.825 405.686 265.825C405.686 265.825 405.686 265.825 405.686 265.825C405.686 265.825 405.686 265.825 405.686 265.825C405.686 265.825 405.686 265.825 405.686 265.825C405.686 265.825 405.686 265.825 405.686 265.825C405.686 265.825 405.686 265.825 405.686 265.825C405.686 265.825 405.686 265.825 405.686 265.825C405.686 265.825 405.686 265.825 405.686 265.825C405.686 265.825 405.686 265.825 405.686 265.825C405.686 265.825 405.686 265.825 405.686 265.825C405.686 265.825 405.686 265.825 405.686 265.825C405.686 265.825 405.686 265.825 405.686 265.825C405.686 265.825 405.686 265.825 405.686 265.825C405.686 265.825 405.686 265.825 405.686 265.825C405.686 265.825 405.686 265.825 405.686 265.825C405.686 265.825 405.686 265.825 405.686 265.825C405.686 265.825 405.686 265.825 405.686 265.825C405.686 265.825 405.686 265.825 405.686 265.825C405.686 265.825 405.686 265.825 405.686 265.825C405.686 265.825 405.686 265.825 405.686 265.825C405.686 265.825 405.686 265.825 405.686 265.825C405.686 265.825 405.686 265.825 405.686 265.825C405.686 265.825 405.686 265.825 405.686 265.825C405.686 265.825 405.686 265.825 405.686 265.825C405.686 265.825 405.686 265.825 405.686 265.825C405.686 265.825 405.686 265.825 405.686 265.825C405.686 265.825 405.686 265.825 405.686 265.825C405.686 265.825 405.686 265.825 405.686 265.825C405.686 265.825 405.686 265.825 405.686 265.825C405.686 265.825 405.686 265.825 405.686 265.825C405.686 265.825 405.686 265.825 405.686 265.825C405.686 265.825 405.686 265.825 405.686 265.825C405.686 265.825 405.686 265.825 405.686 265.825C405.686 265.825 405.686 265.825 405.686 265.825C405.686 265.825 405.686 265.825 405.686 265.825C405.686 265.825 405.686 265.825 405.686 265.825C405.686 265.825 405.686 265.825 405.686 265.825C405.686 265.825 405.686 265.825 405.686 265.825C405.686 265.825 405.686 265.825 405.686 265.825C405.686 265.825 405.686 265.825 405.686 265.825C405.686 265.825 405.686 265.825 405.686 265.825C405.686 265.825 405.686 265.825 405.686 265.825C405.686 265.825 405.686 265.825 405.686 265.825C405.686 265.825 405.686 265.825 405.686 265.825C405.686 265.825 405.686 265.825 405.686 265.825C405.686 265.825 405.686 265.825 405.686 265.825C405.686 265.825 405.686 265.825 405.686 265.825C405.686 265.825 405.686 265.825 405.686 265.825C405.686 265.825 405.686 265.825 405.686 265.825C405.686 265.825 405.686 265.825 405.686 265.825C405.686 265.825 405.686 265.825 405.686 265.825C405.686 265.825 405.686 265.825 405.686 265.825C405.686 265.825 405.686 265.825 405.686 265.825C405.686 265.825 405.686 265.825 405.686 265.825C405.686 265.825 405.686 265.825 405.686 265.825C405.686 265.825 405.686 265.825 405.686 265.825C405.686 265.825 405.686 265.825 405.686 265.825C405.686 265.825 405.686 265.825 405.686 265.825C405.686 265.825 405.686 265.825 405.686 265.825C405.686 265.825 405.686 265.825 405.686 265.825C405.686 265.825 405.686 265.825 405.686 265.825C405.686 265.825 405.686 265.825 405.686 265.825C405.686 265.825 405.686 265.825 405.686 265.825C405.686 265.825 405.686 265.825 405.686 265.825C405.686 265.825 405.686 265.825 405.686 265.825C405.686 265.825 405.686 265.825 405.686 265.825C405.686 265.825 405.686 265.825 405.686 265.825C405.686 265.825 405.686 265.825 405.686 265.825C405.686 265.825 405.686 265.825 405.686 265.825C405.686 265.825 405.686 265.825 405.686 265.825C405.686 265.825 405.686 265.825 405.686 265.825C405.686 265.825 405.686 265.825 405.686 265.825C405.686 265.825 405.686 265.825 405.686 265.825C405.686 265.825 405.686 265.825 405.686 265.825C405.686 265.825 405.686 265.825 405.686 265.825C405.686 265.825 405.686 265.825 405.686 265.825C405.686 265.825 405.686 265.825 405.686 265.825C405.686 265.825 405.686 265.825 405.686 265.825C405.686 265.825 405.686 265.825 405.686 265.825C405.686 265.825 405.686 265.825 405.686 265.825C405.686 265.825 405.686 265.825 405.686 265.825C405.686 265.825 405.686 265.825 405.686 265.825C405.686 265.825 405.686 265.825 405.686 265.825C405.686 265.825 405.686 265.825 405.686 265.825C405.686 265.825 405.686 265.825 405.686 265.825C405.686 265.825 405.686 265.825 405.686 265.825C405.686 265.825 405.686 265.825 405.686 265.825C405.686 265.825 405.686 265.825 405.686 265.825C405.686 265.825 405.686 265.825 405.686 265.825C405.686 265.825 405.686 265.825 405.686 265.825C405.686 265.825 405.686 265.825 405.686 265.825C405.686 265.825 405.686 265.825 405.686 265.825C405.686 265.825 405.686 265.825 405.686 265.825C405.686 265.825 405.686 265.825 405.686 265.825C405.686 265.825 405.686 265.825 405.686 265.825C405.686 265.825 405.686 265.825 405.686 265.825C405.686 265.825 405.686 265.825 405.686 265.825C405.686 265.825 405.686 265.825 405.686 265.825C405.686 265.825 405.686 265.825 405.686 265.825C405.686 265.825 405.686 265.825 405.686 265.825C405.686 265.825 405.686 265.825 405.686 265.825C405.686 265.825 405.686 265.825 405.686 265.825C405.686 265.825 405.686 265.825 405.686 265.825C405.686 265.825 405.686 265.825 405.686 265.825C405.686 265.825 405.686 265.825 405.686 265.825C405.686 265.825 405.686 265.825 405.686 265.825C405.686 265.825 405.686 265.825 405.686 265.825C405.686 265.825 405.686 265.825 405.686 265.825C405.686 265.825 405.686 265.825 405.686 265.825C405.686 265.825 405.686 265.825 405.686 265.825C405.686 265.825 405.686 265.825 405.686 265.825C405.686 265.825 405.686 265.825 405.686 265.825C405.686 265.825 405.686 265.825 405.686 265.825C405.686 265.825 405.686 265.825 405.686 265.825C405.686 265.825 405.686 265.825 405.686 265.825C405.686 265.825 405.686 265.825 405.686 265.825C405.686 265.825 405.686 265.825 405.686 265.825C405.686 265.825 405.686 265.825 405.686 265.825C405.686 265.825 405.686 265.825 405.686 265.825C405.686 265.825 405.686 265.825 405.686 265.825C405.686 265.825 405.686 265.825 405.686 265.825C405.686 265.825 405.686 265.825 405.686 265.825C405.686 265.825 405.686 265.825 405.686 265.825C405.686 265.825 405.686 265.825 405.686 265.825C405.686 265.825 405.686 265.825 405.686 265.825C405.686 265.825 405.686 265.825 405.686 265.825C405.686 265.825 405.686 265.825 405.686 265.825C405.686 265.825 405.686 265.825 405.686 265.825C405.686 265.825 405.686 265.825 405.686 265.825C405.686 265.825 405.686 265.825 405.686 265.825C405.686 265.825 405.686 265.825 405.686 265.825C405.686 265.825 405.686 265.824 405.686 265.824C405.686 265.824 405.686 265.824 405.686 265.824C405.686 265.824 405.686 265.824 405.686 265.824C405.686 265.824 405.686 265.824 405.686 265.824C405.686 265.824 405.686 265.824 405.686 265.824C405.686 265.824 405.686 265.824 405.686 265.824C405.686 265.824 405.686 265.824 405.686 265.824C405.686 265.824 405.686 265.824 405.686 265.824C405.686 265.824 405.686 265.824 405.686 265.824C405.686 265.824 405.686 265.824 405.686 265.824C405.686 265.824 405.686 265.824 405.686 265.824C405.686 265.824 405.686 265.824 405.686 265.824C405.686 265.824 405.686 265.824 405.686 265.824C405.686 265.824 405.686 265.824 405.686 265.824C405.686 265.824 405.686 265.824 405.686 265.824C405.686 265.824 405.686 265.824 405.686 265.824C405.686 265.824 405.686 265.824 405.686 265.824C405.686 265.824 405.686 265.824 405.686 265.824C405.686 265.824 405.686 265.824 405.686 265.824C405.686 265.824 405.686 265.824 405.686 265.824C405.686 265.824 405.686 265.824 405.686 265.824C405.686 265.824 405.686 265.824 405.686 265.824C405.686 265.824 405.686 265.824 405.686 265.824C405.686 265.824 405.686 265.824 405.686 265.824C405.686 265.824 405.686 265.824 405.686 265.824C405.686 265.824 405.686 265.824 405.686 265.824C405.686 265.824 405.686 265.824 405.686 265.824C405.686 265.824 405.686 265.824 405.686 265.824C405.686 265.824 405.686 265.824 405.686 265.824C405.686 265.824 405.686 265.824 405.686 265.824C405.686 265.824 405.686 265.824 405.686 265.824C405.686 265.824 405.686 265.824 405.686 265.824C405.686 265.824 405.686 265.824 405.686 265.824C405.686 265.824 405.686 265.824 405.686 265.824C405.686 265.824 405.686 265.824 405.686 265.824C405.686 265.824 405.686 265.824 405.686 265.824C405.686 265.824 405.686 265.824 405.686 265.824C405.686 265.824 405.686 265.824 405.686 265.824C405.686 265.824 405.686 265.824 405.686 265.824C405.686 265.824 405.686 265.824 405.686 265.824C405.686 265.824 405.686 265.824 405.686 265.824C405.686 265.824 405.686 265.824 405.686 265.824C405.686 265.824 405.686 265.824 405.686 265.824C405.686 265.824 405.686 265.824 405.686 265.824C405.686 265.824 405.686 265.824 405.686 265.824C405.686 265.824 405.686 265.824 405.686 265.824C405.686 265.824 405.686 265.824 405.686 265.824C405.686 265.824 405.686 265.824 405.686 265.824C405.686 265.824 405.686 265.824 405.686 265.824C405.686 265.824 405.686 265.824 405.686 265.824C405.686 265.824 405.686 265.824 405.686 265.824C405.686 265.824 405.686 265.824 405.686 265.824C405.686 265.824 405.686 265.824 405.686 265.824C405.686 265.824 405.686 265.824 405.686 265.824C405.686 265.824 405.686 265.824 405.686 265.824C405.686 265.824 405.686 265.824 405.686 265.824C405.686 265.824 405.686 265.824 405.686 265.824C405.686 265.824 405.686 265.824 405.686 265.824C405.686 265.824 405.686 265.824 405.686 265.824C405.686 265.824 405.686 265.824 405.686 265.824C405.686 265.824 405.686 265.824 405.686 265.824C405.686 265.824 405.686 265.824 405.686 265.824C405.686 265.824 405.686 265.824 405.686 265.824C405.686 265.824 405.686 265.824 405.686 265.824C405.686 265.824 405.686 265.824 405.686 265.824C405.686 265.824 405.686 265.824 405.686 265.824C405.686 265.824 405.686 265.824 405.686 265.824C405.686 265.824 405.686 265.824 405.686 265.824C405.686 265.824 405.686 265.824 405.686 265.824C405.686 265.824 405.686 265.824 405.686 265.824C405.686 265.824 405.686 265.824 405.686 265.824C405.686 265.824 405.686 265.824 405.686 265.824C405.686 265.824 405.686 265.824 405.686 265.824C405.686 265.824 405.686 265.824 405.686 265.824C405.686 265.824 405.686 265.824 405.686 265.824C405.686 265.824 405.686 265.824 405.686 265.824C405.686 265.824 405.686 265.824 405.686 265.824C405.686 265.824 405.686 265.824 405.686 265.824C405.686 265.824 405.686 265.824 405.686 265.824C405.686 265.824 405.686 265.824 405.686 265.824C405.686 265.824 405.686 265.824 405.686 265.824C405.686 265.824 405.686 265.824 405.686 265.824C405.686 265.824 405.686 265.824 405.686 265.824C405.686 265.824 405.686 265.824 405.686 265.824C405.686 265.824 405.686 265.824 405.686 265.824C405.686 265.824 405.686 265.824 405.686 265.824C405.686 265.824 405.686 265.824 405.686 265.824C405.686 265.824 405.686 265.824 405.686 265.824C405.686 265.824 405.686 265.824 405.686 265.824C405.686 265.824 405.686 265.824 405.686 265.824C405.686 265.824 405.686 265.824 405.686 265.824C405.686 265.824 405.686 265.824 405.686 265.824C405.686 265.824 405.686 265.824 405.686 265.824C405.686 265.824 405.686 265.824 405.686 265.824C405.686 265.824 405.686 265.824 405.686 265.824C405.686 265.824 405.686 265.824 405.686 265.824C405.686 265.824 405.686 265.824 405.686 265.824C405.686 265.824 405.686 265.824 405.686 265.824C405.686 265.824 405.686 265.824 405.686 265.824C405.686 265.824 405.686 265.824 405.686 265.824C405.686 265.824 405.686 265.824 405.686 265.824C405.686 265.824 405.686 265.824 405.686 265.824C405.686 265.824 405.686 265.824 405.686 265.824C405.686 265.824 405.686 265.824 405.686 265.824C405.686 265.824 405.686 265.824 405.686 265.824C405.686 265.824 405.686 265.824 405.686 265.824C405.686 265.824 405.686 265.824 405.686 265.824C405.686 265.824 405.686 265.824 405.686 265.824C405.686 265.824 405.686 265.824 405.686 265.824C405.686 265.824 405.686 265.824 405.686 265.824C405.686 265.824 405.686 265.824 405.686 265.824C405.686 265.824 405.686 265.824 405.686 265.824C405.686 265.824 405.686 265.824 405.686 265.824C405.686 265.824 405.686 265.824 405.686 265.824C405.686 265.824 405.686 265.824 405.686 265.824C405.686 265.824 405.686 265.824 405.686 265.824C405.686 265.824 405.686 265.824 405.686 265.824C405.686 265.824 405.686 265.824 405.686 265.824C405.686 265.824 405.686 265.824 405.686 265.824C405.686 265.824 405.686 265.824 405.686 265.824C405.686 265.824 405.686 265.824 405.686 265.824C405.686 265.824 405.686 265.824 405.686 265.824C405.686 265.824 405.686 265.824 405.686 265.824C405.686 265.824 405.686 265.824 405.686 265.824C405.686 265.824 405.686 265.824 405.686 265.824C405.686 265.824 405.686 265.824 405.686 265.824C405.686 265.824 405.686 265.824 405.686 265.824C405.686 265.824 405.686 265.824 405.686 265.824C405.686 265.824 405.686 265.824 405.686 265.824C405.686 265.824 405.686 265.824 405.686 265.824C405.686 265.824 405.686 265.824 405.686 265.824C405.686 265.824 405.686 265.824 405.686 265.824C405.686 265.824 405.686 265.824 405.686 265.824C405.686 265.824 405.686 265.824 405.686 265.824C405.686 265.824 405.686 265.824 405.686 265.824C405.686 265.824 405.686 265.824 405.686 265.824C405.686 265.824 405.686 265.824 405.686 265.824C405.686 265.824 405.686 265.824 405.686 265.824C405.686 265.824 405.686 265.824 405.686 265.824C405.686 265.824 405.686 265.824 405.686 265.824C405.686 265.824 405.686 265.824 405.686 265.824C405.686 265.824 405.686 265.824 405.686 265.824C405.686 265.824 405.686 265.824 405.686 265.824C405.686 265.824 405.686 265.824 405.686 265.824C405.686 265.824 405.686 265.824 405.686 265.824C405.686 265.824 405.686 265.824 405.686 265.824C405.686 265.824 405.686 265.824 405.686 265.824C405.686 265.824 405.686 265.824 405.686 265.824C405.686 265.824 405.686 265.824 405.686 265.824C405.686 265.824 405.686 265.824 405.686 265.824C405.686 265.824 405.686 265.824 405.686 265.824C405.686 265.824 405.686 265.824 405.686 265.824C405.686 265.824 405.686 265.824 405.686 265.824C405.686 265.824 405.686 265.824 405.686 265.824C405.686 265.824 405.686 265.824 405.686 265.824C405.686 265.824 405.686 265.824 405.686 265.824C405.686 265.824 405.686 265.824 405.686 265.824C405.686 265.824 405.686 265.824 405.686 265.824C405.686 265.824 405.686 265.824 405.686 265.824C405.686 265.824 405.686 265.824 405.686 265.824C405.686 265.824 405.686 265.824 405.686 265.824C405.686 265.824 405.686 265.824 405.686 265.824C405.686 265.824 405.686 265.824 405.686 265.824C405.686 265.824 405.686 265.824 405.686 265.824C405.686 265.824 405.686 265.824 405.686 265.824C405.686 265.824 405.686 265.824 405.686 265.824C405.686 265.824 405.686 265.824 405.686 265.824C405.686 265.824 405.686 265.824 405.686 265.824C405.686 265.824 405.686 265.824 405.686 265.824C405.686 265.824 405.686 265.824 405.686 265.824C405.686 265.824 405.686 265.824 405.686 265.824C405.686 265.824 405.686 265.824 405.686 265.824C405.686 265.824 405.686 265.824 405.686 265.824C405.686 265.824 405.686 265.824 405.686 265.824C405.686 265.824 405.686 265.824 405.686 265.824C405.686 265.824 405.686 265.824 405.686 265.824C405.686 265.824 405.686 265.824 405.686 265.824C405.686 265.824 405.686 265.824 405.686 265.824C405.686 265.824 405.686 265.824 405.686 265.824C405.686 265.824 405.686 265.824 405.686 265.824C405.686 265.824 405.686 265.824 405.686 265.824C405.686 265.824 405.686 265.824 405.686 265.824C405.686 265.824 405.686 265.824 405.686 265.824C405.686 265.824 405.686 265.824 405.686 265.824C405.686 265.824 405.686 265.824 405.686 265.824C405.686 265.824 405.686 265.824 405.686 265.824C405.686 265.824 405.686 265.824 405.686 265.824C405.686 265.824 405.686 265.824 405.686 265.824C405.686 265.824 405.686 265.824 405.686 265.824C405.686 265.824 405.686 265.824 405.686 265.824C405.686 265.824 405.686 265.824 405.686 265.824C405.686 265.824 405.686 265.824 405.686 265.824C405.686 265.824 405.686 265.824 405.686 265.824C405.686 265.824 405.686 265.824 405.686 265.824C405.686 265.824 405.686 265.824 405.686 265.824C405.686 265.824 405.686 265.824 405.686 265.824C405.686 265.824 405.686 265.824 405.686 265.824C405.686 265.824 405.686 265.824 405.686 265.824C405.686 265.824 405.686 265.824 405.686 265.824C405.686 265.824 405.686 265.824 405.686 265.824C405.686 265.824 405.686 265.824 405.686 265.824C405.686 265.824 405.686 265.824 405.686 265.824C405.686 265.824 405.686 265.824 405.686 265.824C405.686 265.824 405.686 265.824 405.686 265.824C405.686 265.824 405.686 265.824 405.686 265.824C405.686 265.824 405.686 265.824 405.686 265.824C405.686 265.824 405.686 265.824 405.686 265.824C405.686 265.824 405.686 265.824 405.686 265.824C405.686 265.824 405.686 265.824 405.686 265.824C405.686 265.824 405.686 265.824 405.686 265.824C405.686 265.824 405.686 265.824 405.686 265.824C405.686 265.824 405.686 265.824 405.686 265.824C405.686 265.824 405.686 265.824 405.686 265.824C405.686 265.824 405.686 265.824 405.686 265.824C405.686 265.824 405.686 265.824 405.686 265.824C405.686 265.824 405.686 265.824 405.686 265.824C405.686 265.824 405.686 265.824 405.686 265.824C405.686 265.824 405.686 265.824 405.686 265.824C405.686 265.824 405.686 265.824 405.686 265.824C405.686 265.824 405.686 265.824 405.686 265.824C405.686 265.824 405.686 265.824 405.686 265.824C405.686 265.824 405.686 265.824 405.686 265.824C405.686 265.824 405.686 265.824 405.686 265.824C405.686 265.824 405.686 265.824 405.686 265.824C405.686 265.824 405.686 265.824 405.686 265.824C405.686 265.824 405.686 265.824 405.686 265.824C405.686 265.824 405.686 265.824 405.686 265.824C405.686 265.824 405.686 265.824 405.686 265.824C405.686 265.824 405.686 265.824 405.686 265.824C405.686 265.824 405.686 265.824 405.686 265.824C405.686 265.824 405.686 265.824 405.686 265.824C405.686 265.824 405.686 265.824 405.686 265.824C405.686 265.824 405.686 265.824 405.686 265.824C405.686 265.824 405.686 265.824 405.686 265.824C405.686 265.824 405.686 265.824 405.686 265.824C405.686 265.824 405.686 265.824 405.686 265.824C405.686 265.824 405.686 265.824 405.686 265.824C405.686 265.824 405.686 265.824 405.686 265.824C405.686 265.824 405.686 265.824 405.686 265.824C405.686 265.824 405.686 265.824 405.686 265.824C405.686 265.824 405.686 265.824 405.686 265.824C405.686 265.824 405.686 265.824 405.686 265.824C405.686 265.824 405.686 265.824 405.686 265.824C405.686 265.824 405.686 265.824 405.686 265.824C405.686 265.824 405.686 265.824 405.686 265.824C405.686 265.824 405.686 265.824 405.686 265.824C405.686 265.824 405.686 265.824 405.686 265.824C405.686 265.824 405.686 265.824 405.686 265.824C405.686 265.824 405.686 265.824 405.686 265.824C405.686 265.824 405.686 265.824 405.686 265.824C405.686 265.824 405.686 265.824 405.686 265.824C405.686 265.824 405.686 265.824 405.686 265.824C405.686 265.824 405.686 265.824 405.686 265.824C405.686 265.824 405.686 265.824 405.686 265.824C405.686 265.824 405.686 265.824 405.686 265.824C405.686 265.824 405.686 265.824 405.686 265.824C405.686 265.824 405.686 265.824 405.686 265.824C405.686 265.824 405.686 265.824 405.686 265.824C405.686 265.824 405.686 265.824 405.686 265.824C405.686 265.824 405.686 265.824 405.686 265.824C405.686 265.824 405.686 265.824 405.686 265.824C405.686 265.824 405.686 265.824 405.686 265.824C405.686 265.824 405.686 265.824 405.686 265.824C405.686 265.824 405.686 265.824 405.686 265.824C405.686 265.824 405.686 265.824 405.686 265.824C405.686 265.824 405.686 265.824 405.686 265.824C405.686 265.824 405.686 265.824 405.686 265.824C405.686 265.824 405.686 265.824 405.686 265.824C405.686 265.824 405.686 265.824 405.686 265.824C405.686 265.824 405.686 265.824 405.686 265.824C405.686 265.824 405.686 265.824 405.686 265.824C405.686 265.824 405.686 265.824 405.686 265.824C405.686 265.824 405.686 265.824 405.686 265.824C405.686 265.824 405.686 265.824 405.686 265.824C405.686 265.824 405.686 265.824 405.686 265.824C405.686 265.824 405.686 265.824 405.686 265.824C405.686 265.824 405.686 265.824 405.686 265.824C405.686 265.824 405.686 265.824 405.686 265.824C405.686 265.824 405.686 265.824 405.686 265.824C405.686 265.824 405.686 265.824 405.686 265.824C405.686 265.824 405.686 265.824 405.686 265.824C405.686 265.824 405.686 265.824 405.686 265.824C405.686 265.824 405.686 265.824 405.686 265.824C405.686 265.824 405.686 265.824 405.686 265.824C405.686 265.824 405.686 265.824 405.686 265.824C405.686 265.824 405.686 265.824 405.686 265.824C405.686 265.824 405.686 265.824 405.686 265.824C405.686 265.824 405.686 265.824 405.686 265.824C405.686 265.824 405.686 265.824 405.686 265.824C405.686 265.824 405.686 265.824 405.686 265.824C405.686 265.824 405.686 265.824 405.686 265.824C405.686 265.824 405.686 265.824 405.686 265.824C405.686 265.824 405.686 265.824 405.686 265.824C405.686 265.824 405.686 265.824 405.686 265.824C405.686 265.824 405.686 265.824 405.686 265.824C405.686 265.824 405.686 265.824 405.686 265.824C405.686 265.824 405.686 265.824 405.686 265.824C405.686 265.824 405.686 265.824 405.686 265.824C405.686 265.824 405.686 265.824 405.686 265.824C405.686 265.824 405.686 265.824 405.686 265.824C405.686 265.824 405.686 265.824 405.686 265.824C405.686 265.824 405.686 265.824 405.686 265.824C405.686 265.824 405.686 265.824 405.686 265.824C405.686 265.824 405.686 265.824 405.686 265.824C405.686 265.824 405.686 265.824 405.686 265.824C405.686 265.824 405.686 265.824 405.686 265.824C405.686 265.824 405.686 265.824 405.686 265.824C405.686 265.824 405.686 265.824 405.686 265.824C405.686 265.824 405.686 265.824 405.686 265.824C405.686 265.824 405.686 265.824 405.686 265.824C405.686 265.824 405.686 265.824 405.686 265.824C405.686 265.824 405.686 265.824 405.686 265.824C405.686 265.824 405.686 265.824 405.686 265.824C405.686 265.824 405.686 265.824 405.686 265.824C405.686 265.824 405.686 265.824 405.686 265.824C405.686 265.824 405.686 265.824 405.686 265.824C405.686 265.824 405.686 265.824 405.686 265.824C405.686 265.824 405.686 265.824 405.686 265.824C405.686 265.824 405.686 265.824 405.686 265.824C405.686 265.824 405.686 265.824 405.686 265.824C405.686 265.824 405.686 265.824 405.686 265.824C405.686 265.824 405.686 265.824 405.686 265.824C405.686 265.824 405.686 265.824 405.686 265.824C405.686 265.824 405.686 265.824 405.686 265.824C405.686 265.824 405.686 265.824 405.686 265.824H399.686C399.686 265.824 399.686 265.824 399.686 265.824C399.686 265.824 399.686 265.824 399.686 265.824C399.686 265.824 399.686 265.824 399.686 265.824C399.686 265.824 399.686 265.824 399.686 265.824C399.686 265.824 399.686 265.824 399.686 265.824C399.686 265.824 399.686 265.824 399.686 265.824C399.686 265.824 399.686 265.824 399.686 265.824C399.686 265.824 399.686 265.824 399.686 265.824C399.686 265.824 399.686 265.824 399.686 265.824C399.686 265.824 399.686 265.824 399.686 265.824C399.686 265.824 399.686 265.824 399.686 265.824C399.686 265.824 399.686 265.824 399.686 265.824C399.686 265.824 399.686 265.824 399.686 265.824C399.686 265.824 399.686 265.824 399.686 265.824C399.686 265.824 399.686 265.824 399.686 265.824C399.686 265.824 399.686 265.824 399.686 265.824C399.686 265.824 399.686 265.824 399.686 265.824C399.686 265.824 399.686 265.824 399.686 265.824C399.686 265.824 399.686 265.824 399.686 265.824C399.686 265.824 399.686 265.824 399.686 265.824C399.686 265.824 399.686 265.824 399.686 265.824C399.686 265.824 399.686 265.824 399.686 265.824C399.686 265.824 399.686 265.824 399.686 265.824C399.686 265.824 399.686 265.824 399.686 265.824C399.686 265.824 399.686 265.824 399.686 265.824C399.686 265.824 399.686 265.824 399.686 265.824C399.686 265.824 399.686 265.824 399.686 265.824C399.686 265.824 399.686 265.824 399.686 265.824C399.686 265.824 399.686 265.824 399.686 265.824C399.686 265.824 399.686 265.824 399.686 265.824C399.686 265.824 399.686 265.824 399.686 265.824C399.686 265.824 399.686 265.824 399.686 265.824C399.686 265.824 399.686 265.824 399.686 265.824C399.686 265.824 399.686 265.824 399.686 265.824C399.686 265.824 399.686 265.824 399.686 265.824C399.686 265.824 399.686 265.824 399.686 265.824C399.686 265.824 399.686 265.824 399.686 265.824C399.686 265.824 399.686 265.824 399.686 265.824C399.686 265.824 399.686 265.824 399.686 265.824C399.686 265.824 399.686 265.824 399.686 265.824C399.686 265.824 399.686 265.824 399.686 265.824C399.686 265.824 399.686 265.824 399.686 265.824C399.686 265.824 399.686 265.824 399.686 265.824C399.686 265.824 399.686 265.824 399.686 265.824C399.686 265.824 399.686 265.824 399.686 265.824C399.686 265.824 399.686 265.824 399.686 265.824C399.686 265.824 399.686 265.824 399.686 265.824C399.686 265.824 399.686 265.824 399.686 265.824C399.686 265.824 399.686 265.824 399.686 265.824C399.686 265.824 399.686 265.824 399.686 265.824C399.686 265.824 399.686 265.824 399.686 265.824C399.686 265.824 399.686 265.824 399.686 265.824C399.686 265.824 399.686 265.824 399.686 265.824C399.686 265.824 399.686 265.824 399.686 265.824C399.686 265.824 399.686 265.824 399.686 265.824C399.686 265.824 399.686 265.824 399.686 265.824C399.686 265.824 399.686 265.824 399.686 265.824C399.686 265.824 399.686 265.824 399.686 265.824C399.686 265.824 399.686 265.824 399.686 265.824C399.686 265.824 399.686 265.824 399.686 265.824C399.686 265.824 399.686 265.824 399.686 265.824C399.686 265.824 399.686 265.824 399.686 265.824C399.686 265.824 399.686 265.824 399.686 265.824C399.686 265.824 399.686 265.824 399.686 265.824C399.686 265.824 399.686 265.824 399.686 265.824C399.686 265.824 399.686 265.824 399.686 265.824C399.686 265.824 399.686 265.824 399.686 265.824C399.686 265.824 399.686 265.824 399.686 265.824C399.686 265.824 399.686 265.824 399.686 265.824C399.686 265.824 399.686 265.824 399.686 265.824C399.686 265.824 399.686 265.824 399.686 265.824C399.686 265.824 399.686 265.824 399.686 265.824C399.686 265.824 399.686 265.824 399.686 265.824C399.686 265.824 399.686 265.824 399.686 265.824C399.686 265.824 399.686 265.824 399.686 265.824C399.686 265.824 399.686 265.824 399.686 265.824C399.686 265.824 399.686 265.824 399.686 265.824C399.686 265.824 399.686 265.824 399.686 265.824C399.686 265.824 399.686 265.824 399.686 265.824C399.686 265.824 399.686 265.824 399.686 265.824C399.686 265.824 399.686 265.824 399.686 265.824C399.686 265.824 399.686 265.824 399.686 265.824C399.686 265.824 399.686 265.824 399.686 265.824C399.686 265.824 399.686 265.824 399.686 265.824C399.686 265.824 399.686 265.824 399.686 265.824C399.686 265.824 399.686 265.824 399.686 265.824C399.686 265.824 399.686 265.824 399.686 265.824C399.686 265.824 399.686 265.824 399.686 265.824C399.686 265.824 399.686 265.824 399.686 265.824C399.686 265.824 399.686 265.824 399.686 265.824C399.686 265.824 399.686 265.824 399.686 265.824C399.686 265.824 399.686 265.824 399.686 265.824C399.686 265.824 399.686 265.824 399.686 265.824C399.686 265.824 399.686 265.824 399.686 265.824C399.686 265.824 399.686 265.824 399.686 265.824C399.686 265.824 399.686 265.824 399.686 265.824C399.686 265.824 399.686 265.824 399.686 265.824C399.686 265.824 399.686 265.824 399.686 265.824C399.686 265.824 399.686 265.824 399.686 265.824C399.686 265.824 399.686 265.824 399.686 265.824C399.686 265.824 399.686 265.824 399.686 265.824C399.686 265.824 399.686 265.824 399.686 265.824C399.686 265.824 399.686 265.824 399.686 265.824C399.686 265.824 399.686 265.824 399.686 265.824C399.686 265.824 399.686 265.824 399.686 265.824C399.686 265.824 399.686 265.824 399.686 265.824C399.686 265.824 399.686 265.824 399.686 265.824C399.686 265.824 399.686 265.824 399.686 265.824C399.686 265.824 399.686 265.824 399.686 265.824C399.686 265.824 399.686 265.824 399.686 265.824C399.686 265.824 399.686 265.824 399.686 265.824C399.686 265.824 399.686 265.824 399.686 265.824C399.686 265.824 399.686 265.824 399.686 265.824C399.686 265.824 399.686 265.824 399.686 265.824C399.686 265.824 399.686 265.824 399.686 265.824C399.686 265.824 399.686 265.824 399.686 265.824C399.686 265.824 399.686 265.824 399.686 265.824C399.686 265.824 399.686 265.824 399.686 265.824C399.686 265.824 399.686 265.824 399.686 265.824C399.686 265.824 399.686 265.824 399.686 265.824C399.686 265.824 399.686 265.824 399.686 265.824C399.686 265.824 399.686 265.824 399.686 265.824C399.686 265.824 399.686 265.824 399.686 265.824C399.686 265.824 399.686 265.824 399.686 265.824C399.686 265.824 399.686 265.824 399.686 265.824C399.686 265.824 399.686 265.824 399.686 265.824C399.686 265.824 399.686 265.824 399.686 265.824C399.686 265.824 399.686 265.824 399.686 265.824C399.686 265.824 399.686 265.824 399.686 265.824C399.686 265.824 399.686 265.824 399.686 265.824C399.686 265.824 399.686 265.824 399.686 265.824C399.686 265.824 399.686 265.824 399.686 265.824C399.686 265.824 399.686 265.824 399.686 265.824C399.686 265.824 399.686 265.824 399.686 265.824C399.686 265.824 399.686 265.824 399.686 265.824C399.686 265.824 399.686 265.824 399.686 265.824C399.686 265.824 399.686 265.824 399.686 265.824C399.686 265.824 399.686 265.824 399.686 265.824C399.686 265.824 399.686 265.824 399.686 265.824C399.686 265.824 399.686 265.824 399.686 265.824C399.686 265.824 399.686 265.824 399.686 265.824C399.686 265.824 399.686 265.824 399.686 265.824C399.686 265.824 399.686 265.824 399.686 265.824C399.686 265.824 399.686 265.824 399.686 265.824C399.686 265.824 399.686 265.824 399.686 265.824C399.686 265.824 399.686 265.824 399.686 265.824C399.686 265.824 399.686 265.824 399.686 265.824C399.686 265.824 399.686 265.824 399.686 265.824C399.686 265.824 399.686 265.824 399.686 265.824C399.686 265.824 399.686 265.824 399.686 265.824C399.686 265.824 399.686 265.824 399.686 265.824C399.686 265.824 399.686 265.824 399.686 265.824C399.686 265.824 399.686 265.824 399.686 265.824C399.686 265.824 399.686 265.824 399.686 265.824C399.686 265.824 399.686 265.824 399.686 265.824C399.686 265.824 399.686 265.824 399.686 265.824C399.686 265.824 399.686 265.824 399.686 265.824C399.686 265.824 399.686 265.824 399.686 265.824C399.686 265.824 399.686 265.824 399.686 265.824C399.686 265.824 399.686 265.824 399.686 265.824C399.686 265.824 399.686 265.824 399.686 265.824C399.686 265.824 399.686 265.824 399.686 265.824C399.686 265.824 399.686 265.824 399.686 265.824C399.686 265.824 399.686 265.824 399.686 265.824C399.686 265.824 399.686 265.824 399.686 265.824C399.686 265.824 399.686 265.824 399.686 265.824C399.686 265.824 399.686 265.824 399.686 265.824C399.686 265.824 399.686 265.824 399.686 265.824C399.686 265.824 399.686 265.824 399.686 265.824C399.686 265.824 399.686 265.824 399.686 265.824C399.686 265.824 399.686 265.824 399.686 265.824C399.686 265.824 399.686 265.824 399.686 265.824C399.686 265.824 399.686 265.824 399.686 265.824C399.686 265.824 399.686 265.824 399.686 265.824C399.686 265.824 399.686 265.824 399.686 265.824C399.686 265.824 399.686 265.824 399.686 265.824C399.686 265.824 399.686 265.824 399.686 265.824C399.686 265.824 399.686 265.824 399.686 265.824C399.686 265.824 399.686 265.824 399.686 265.824C399.686 265.824 399.686 265.824 399.686 265.824C399.686 265.824 399.686 265.824 399.686 265.824C399.686 265.824 399.686 265.824 399.686 265.824C399.686 265.824 399.686 265.824 399.686 265.824C399.686 265.824 399.686 265.824 399.686 265.824C399.686 265.824 399.686 265.824 399.686 265.824C399.686 265.824 399.686 265.824 399.686 265.824C399.686 265.824 399.686 265.824 399.686 265.824C399.686 265.824 399.686 265.824 399.686 265.824C399.686 265.824 399.686 265.824 399.686 265.824C399.686 265.824 399.686 265.824 399.686 265.824C399.686 265.824 399.686 265.824 399.686 265.824C399.686 265.824 399.686 265.824 399.686 265.824C399.686 265.824 399.686 265.824 399.686 265.824C399.686 265.824 399.686 265.824 399.686 265.824C399.686 265.824 399.686 265.824 399.686 265.824C399.686 265.824 399.686 265.824 399.686 265.824C399.686 265.824 399.686 265.824 399.686 265.824C399.686 265.824 399.686 265.824 399.686 265.824C399.686 265.824 399.686 265.824 399.686 265.824C399.686 265.824 399.686 265.824 399.686 265.824C399.686 265.824 399.686 265.824 399.686 265.824C399.686 265.824 399.686 265.824 399.686 265.824C399.686 265.824 399.686 265.824 399.686 265.824C399.686 265.824 399.686 265.824 399.686 265.824C399.686 265.824 399.686 265.824 399.686 265.824C399.686 265.824 399.686 265.824 399.686 265.824C399.686 265.824 399.686 265.824 399.686 265.824C399.686 265.824 399.686 265.824 399.686 265.824C399.686 265.824 399.686 265.824 399.686 265.824C399.686 265.824 399.686 265.824 399.686 265.824C399.686 265.824 399.686 265.824 399.686 265.824C399.686 265.824 399.686 265.824 399.686 265.824C399.686 265.824 399.686 265.824 399.686 265.824C399.686 265.824 399.686 265.824 399.686 265.824C399.686 265.824 399.686 265.824 399.686 265.824C399.686 265.824 399.686 265.824 399.686 265.824C399.686 265.824 399.686 265.824 399.686 265.824C399.686 265.824 399.686 265.824 399.686 265.824C399.686 265.824 399.686 265.824 399.686 265.824C399.686 265.824 399.686 265.824 399.686 265.824C399.686 265.824 399.686 265.824 399.686 265.824C399.686 265.824 399.686 265.824 399.686 265.824C399.686 265.824 399.686 265.824 399.686 265.824C399.686 265.824 399.686 265.824 399.686 265.824C399.686 265.824 399.686 265.824 399.686 265.824C399.686 265.824 399.686 265.824 399.686 265.824C399.686 265.824 399.686 265.824 399.686 265.824C399.686 265.824 399.686 265.824 399.686 265.824C399.686 265.824 399.686 265.824 399.686 265.824C399.686 265.824 399.686 265.824 399.686 265.824C399.686 265.824 399.686 265.824 399.686 265.824C399.686 265.824 399.686 265.824 399.686 265.824C399.686 265.824 399.686 265.824 399.686 265.824C399.686 265.824 399.686 265.824 399.686 265.824C399.686 265.824 399.686 265.824 399.686 265.824C399.686 265.824 399.686 265.824 399.686 265.824C399.686 265.824 399.686 265.824 399.686 265.824C399.686 265.824 399.686 265.824 399.686 265.824C399.686 265.824 399.686 265.824 399.686 265.824C399.686 265.824 399.686 265.824 399.686 265.824C399.686 265.824 399.686 265.824 399.686 265.824C399.686 265.824 399.686 265.824 399.686 265.824C399.686 265.824 399.686 265.824 399.686 265.824C399.686 265.824 399.686 265.824 399.686 265.824C399.686 265.824 399.686 265.824 399.686 265.824C399.686 265.824 399.686 265.824 399.686 265.824C399.686 265.824 399.686 265.824 399.686 265.824C399.686 265.824 399.686 265.824 399.686 265.824C399.686 265.824 399.686 265.824 399.686 265.824C399.686 265.824 399.686 265.824 399.686 265.824C399.686 265.824 399.686 265.824 399.686 265.824C399.686 265.824 399.686 265.824 399.686 265.824C399.686 265.824 399.686 265.824 399.686 265.824C399.686 265.824 399.686 265.824 399.686 265.824C399.686 265.824 399.686 265.824 399.686 265.824C399.686 265.824 399.686 265.824 399.686 265.824C399.686 265.824 399.686 265.824 399.686 265.824C399.686 265.824 399.686 265.824 399.686 265.824C399.686 265.824 399.686 265.824 399.686 265.824C399.686 265.824 399.686 265.824 399.686 265.824C399.686 265.824 399.686 265.824 399.686 265.824C399.686 265.824 399.686 265.824 399.686 265.824C399.686 265.824 399.686 265.824 399.686 265.824C399.686 265.824 399.686 265.824 399.686 265.824C399.686 265.824 399.686 265.824 399.686 265.824C399.686 265.824 399.686 265.824 399.686 265.824C399.686 265.824 399.686 265.824 399.686 265.824C399.686 265.824 399.686 265.824 399.686 265.824C399.686 265.824 399.686 265.824 399.686 265.824C399.686 265.824 399.686 265.824 399.686 265.824C399.686 265.824 399.686 265.824 399.686 265.824C399.686 265.824 399.686 265.824 399.686 265.824C399.686 265.824 399.686 265.824 399.686 265.824C399.686 265.824 399.686 265.824 399.686 265.824C399.686 265.824 399.686 265.824 399.686 265.824C399.686 265.824 399.686 265.824 399.686 265.824C399.686 265.824 399.686 265.824 399.686 265.824C399.686 265.824 399.686 265.824 399.686 265.824C399.686 265.824 399.686 265.824 399.686 265.824C399.686 265.824 399.686 265.824 399.686 265.824C399.686 265.824 399.686 265.824 399.686 265.824C399.686 265.824 399.686 265.824 399.686 265.824C399.686 265.824 399.686 265.824 399.686 265.824C399.686 265.824 399.686 265.824 399.686 265.824C399.686 265.824 399.686 265.824 399.686 265.824C399.686 265.824 399.686 265.824 399.686 265.824C399.686 265.824 399.686 265.824 399.686 265.824C399.686 265.824 399.686 265.824 399.686 265.824C399.686 265.824 399.686 265.824 399.686 265.824C399.686 265.824 399.686 265.824 399.686 265.824C399.686 265.824 399.686 265.824 399.686 265.824C399.686 265.824 399.686 265.824 399.686 265.824C399.686 265.824 399.686 265.824 399.686 265.824C399.686 265.824 399.686 265.824 399.686 265.824C399.686 265.824 399.686 265.824 399.686 265.824C399.686 265.824 399.686 265.824 399.686 265.824C399.686 265.824 399.686 265.824 399.686 265.824C399.686 265.824 399.686 265.824 399.686 265.824C399.686 265.824 399.686 265.824 399.686 265.824C399.686 265.824 399.686 265.824 399.686 265.824C399.686 265.824 399.686 265.824 399.686 265.824C399.686 265.824 399.686 265.824 399.686 265.824C399.686 265.824 399.686 265.824 399.686 265.824C399.686 265.824 399.686 265.824 399.686 265.824C399.686 265.824 399.686 265.824 399.686 265.824C399.686 265.824 399.686 265.824 399.686 265.824C399.686 265.824 399.686 265.824 399.686 265.824C399.686 265.824 399.686 265.824 399.686 265.824C399.686 265.824 399.686 265.824 399.686 265.824C399.686 265.824 399.686 265.824 399.686 265.824C399.686 265.824 399.686 265.824 399.686 265.824C399.686 265.824 399.686 265.824 399.686 265.824C399.686 265.824 399.686 265.824 399.686 265.824C399.686 265.824 399.686 265.824 399.686 265.824C399.686 265.824 399.686 265.824 399.686 265.824C399.686 265.824 399.686 265.824 399.686 265.824C399.686 265.824 399.686 265.824 399.686 265.824C399.686 265.824 399.686 265.824 399.686 265.824C399.686 265.824 399.686 265.824 399.686 265.824C399.686 265.824 399.686 265.824 399.686 265.824C399.686 265.824 399.686 265.824 399.686 265.824C399.686 265.824 399.686 265.824 399.686 265.824C399.686 265.824 399.686 265.824 399.686 265.824C399.686 265.824 399.686 265.824 399.686 265.824C399.686 265.824 399.686 265.825 399.686 265.825C399.686 265.825 399.686 265.825 399.686 265.825C399.686 265.825 399.686 265.825 399.686 265.825C399.686 265.825 399.686 265.825 399.686 265.825C399.686 265.825 399.686 265.825 399.686 265.825C399.686 265.825 399.686 265.825 399.686 265.825C399.686 265.825 399.686 265.825 399.686 265.825C399.686 265.825 399.686 265.825 399.686 265.825C399.686 265.825 399.686 265.825 399.686 265.825C399.686 265.825 399.686 265.825 399.686 265.825C399.686 265.825 399.686 265.825 399.686 265.825C399.686 265.825 399.686 265.825 399.686 265.825C399.686 265.825 399.686 265.825 399.686 265.825C399.686 265.825 399.686 265.825 399.686 265.825C399.686 265.825 399.686 265.825 399.686 265.825C399.686 265.825 399.686 265.825 399.686 265.825C399.686 265.825 399.686 265.825 399.686 265.825C399.686 265.825 399.686 265.825 399.686 265.825C399.686 265.825 399.686 265.825 399.686 265.825C399.686 265.825 399.686 265.825 399.686 265.825C399.686 265.825 399.686 265.825 399.686 265.825C399.686 265.825 399.686 265.825 399.686 265.825C399.686 265.825 399.686 265.825 399.686 265.825C399.686 265.825 399.686 265.825 399.686 265.825C399.686 265.825 399.686 265.825 399.686 265.825C399.686 265.825 399.686 265.825 399.686 265.825C399.686 265.825 399.686 265.825 399.686 265.825C399.686 265.825 399.686 265.825 399.686 265.825C399.686 265.825 399.686 265.825 399.686 265.825C399.686 265.825 399.686 265.825 399.686 265.825C399.686 265.825 399.686 265.825 399.686 265.825C399.686 265.825 399.686 265.825 399.686 265.825C399.686 265.825 399.686 265.825 399.686 265.825C399.686 265.825 399.686 265.825 399.686 265.825C399.686 265.825 399.686 265.825 399.686 265.825C399.686 265.825 399.686 265.825 399.686 265.825C399.686 265.825 399.686 265.825 399.686 265.825C399.686 265.825 399.686 265.825 399.686 265.825C399.686 265.825 399.686 265.825 399.686 265.825C399.686 265.825 399.686 265.825 399.686 265.825C399.686 265.825 399.686 265.825 399.686 265.825C399.686 265.825 399.686 265.825 399.686 265.825C399.686 265.825 399.686 265.825 399.686 265.825C399.686 265.825 399.686 265.825 399.686 265.825C399.686 265.825 399.686 265.825 399.686 265.825C399.686 265.825 399.686 265.825 399.686 265.825C399.686 265.825 399.686 265.825 399.686 265.825C399.686 265.825 399.686 265.825 399.686 265.825C399.686 265.825 399.686 265.825 399.686 265.825C399.686 265.825 399.686 265.825 399.686 265.825C399.686 265.825 399.686 265.825 399.686 265.825C399.686 265.825 399.686 265.825 399.686 265.825C399.686 265.825 399.686 265.825 399.686 265.825C399.686 265.825 399.686 265.825 399.686 265.825C399.686 265.825 399.686 265.825 399.686 265.825C399.686 265.825 399.686 265.825 399.686 265.825C399.686 265.825 399.686 265.825 399.686 265.825C399.686 265.825 399.686 265.825 399.686 265.825C399.686 265.825 399.686 265.825 399.686 265.825C399.686 265.825 399.686 265.825 399.686 265.825C399.686 265.825 399.686 265.825 399.686 265.825C399.686 265.825 399.686 265.825 399.686 265.825C399.686 265.825 399.686 265.825 399.686 265.825C399.686 265.825 399.686 265.825 399.686 265.825C399.686 265.825 399.686 265.825 399.686 265.825C399.686 265.825 399.686 265.825 399.686 265.825C399.686 265.825 399.686 265.825 399.686 265.825C399.686 265.825 399.686 265.825 399.686 265.825C399.686 265.825 399.686 265.825 399.686 265.825C399.686 265.825 399.686 265.825 399.686 265.825C399.686 265.825 399.686 265.825 399.686 265.825C399.686 265.825 399.686 265.825 399.686 265.825C399.686 265.825 399.686 265.825 399.686 265.825C399.686 265.825 399.686 265.825 399.686 265.825C399.686 265.825 399.686 265.825 399.686 265.825C399.686 265.825 399.686 265.825 399.686 265.825C399.686 265.825 399.686 265.825 399.686 265.825C399.686 265.825 399.686 265.825 399.686 265.825C399.686 265.825 399.686 265.825 399.686 265.825C399.686 265.825 399.686 265.825 399.686 265.825C399.686 265.825 399.686 265.825 399.686 265.825C399.686 265.825 399.686 265.825 399.686 265.825C399.686 265.825 399.686 265.825 399.686 265.825C399.686 265.825 399.686 265.825 399.686 265.825C399.686 265.825 399.686 265.825 399.686 265.825C399.686 265.825 399.686 265.825 399.686 265.825C399.686 265.825 399.686 265.825 399.686 265.825C399.686 265.825 399.686 265.825 399.686 265.825C399.686 265.825 399.686 265.825 399.686 265.825C399.686 265.825 399.686 265.825 399.686 265.825C399.686 265.825 399.686 265.825 399.686 265.825C399.686 265.825 399.686 265.825 399.686 265.825C399.686 265.825 399.686 265.825 399.686 265.825C399.686 265.825 399.686 265.825 399.686 265.825C399.686 265.825 399.686 265.825 399.686 265.825C399.686 265.825 399.686 265.825 399.686 265.825C399.686 265.825 399.686 265.825 399.686 265.825C399.686 265.825 399.686 265.825 399.686 265.825C399.686 265.825 399.686 265.825 399.686 265.825C399.686 265.825 399.686 265.825 399.686 265.825C399.686 265.825 399.686 265.825 399.686 265.825C399.686 265.825 399.686 265.825 399.686 265.825C399.686 265.825 399.686 265.825 399.686 265.825C399.686 265.825 399.686 265.825 399.686 265.825C399.686 265.825 399.686 265.825 399.686 265.825C399.686 265.825 399.686 265.825 399.686 265.825C399.686 265.825 399.686 265.825 399.686 265.825C399.686 265.825 399.686 265.825 399.686 265.825C399.686 265.825 399.686 265.825 399.686 265.825C399.686 265.825 399.686 265.825 399.686 265.825C399.686 265.825 399.686 265.825 399.686 265.825C399.686 265.825 399.686 265.825 399.686 265.825C399.686 265.825 399.686 265.825 399.686 265.825C399.686 265.825 399.686 265.825 399.686 265.825C399.686 265.825 399.686 265.825 399.686 265.825C399.686 265.825 399.686 265.825 399.686 265.825C399.686 265.825 399.686 265.825 399.686 265.825C399.686 265.825 399.686 265.825 399.686 265.825C399.686 265.825 399.686 265.825 399.686 265.825C399.686 265.825 399.686 265.825 399.686 265.825C399.686 265.825 399.686 265.825 399.686 265.825C399.686 265.825 399.686 265.825 399.686 265.825C399.686 265.825 399.686 265.825 399.686 265.825C399.686 265.825 399.686 265.825 399.686 265.825C399.686 265.825 399.686 265.825 399.686 265.825C399.686 265.825 399.686 265.825 399.686 265.825C399.686 265.825 399.686 265.825 399.686 265.825C399.686 265.825 399.686 265.825 399.686 265.825C399.686 265.825 399.686 265.825 399.686 265.825C399.686 265.825 399.686 265.825 399.686 265.825C399.686 265.825 399.686 265.825 399.686 265.825C399.686 265.825 399.686 265.825 399.686 265.825C399.686 265.825 399.686 265.825 399.686 265.825C399.686 265.825 399.686 265.825 399.686 265.825C399.686 265.825 399.686 265.825 399.686 265.825C399.686 265.825 399.686 265.825 399.686 265.825C399.686 265.825 399.686 265.825 399.686 265.825C399.686 265.825 399.686 265.825 399.686 265.825C399.686 265.825 399.686 265.825 399.686 265.825C399.686 265.825 399.686 265.825 399.686 265.825C399.686 265.825 399.686 265.825 399.686 265.825C399.686 265.825 399.686 265.825 399.686 265.825C399.686 265.825 399.686 265.825 399.686 265.825C399.686 265.825 399.686 265.825 399.686 265.825C399.686 265.825 399.686 265.825 399.686 265.825C399.686 265.825 399.686 265.825 399.686 265.825C399.686 265.825 399.686 265.825 399.686 265.825C399.686 265.825 399.686 265.825 399.686 265.825C399.686 265.825 399.686 265.825 399.686 265.825C399.686 265.825 399.686 265.825 399.686 265.825C399.686 265.825 399.686 265.825 399.686 265.825C399.686 265.825 399.686 265.825 399.686 265.825C399.686 265.825 399.686 265.825 399.686 265.825C399.686 265.825 399.686 265.825 399.686 265.825C399.686 265.825 399.686 265.825 399.686 265.825C399.686 265.825 399.686 265.825 399.686 265.825C399.686 265.825 399.686 265.825 399.686 265.825C399.686 265.825 399.686 265.825 399.686 265.825C399.686 265.825 399.686 265.825 399.686 265.825C399.686 265.825 399.686 265.825 399.686 265.825C399.686 265.825 399.686 265.825 399.686 265.825C399.686 265.825 399.686 265.825 399.686 265.825C399.686 265.825 399.686 265.825 399.686 265.825C399.686 265.825 399.686 265.825 399.686 265.825C399.686 265.825 399.686 265.825 399.686 265.825C399.686 265.825 399.686 265.825 399.686 265.825C399.686 265.825 399.686 265.825 399.686 265.825C399.686 265.825 399.686 265.825 399.686 265.825C399.686 265.825 399.686 265.825 399.686 265.825C399.686 265.825 399.686 265.825 399.686 265.825C399.686 265.825 399.686 265.825 399.686 265.825C399.686 265.825 399.686 265.825 399.686 265.825C399.686 265.825 399.686 265.825 399.686 265.825C399.686 265.825 399.686 265.825 399.686 265.825C399.686 265.825 399.686 265.825 399.686 265.825C399.686 265.825 399.686 265.825 399.686 265.825C399.686 265.825 399.686 265.825 399.686 265.825C399.686 265.825 399.686 265.825 399.686 265.825C399.686 265.825 399.686 265.825 399.686 265.825C399.686 265.825 399.686 265.825 399.686 265.825C399.686 265.825 399.686 265.825 399.686 265.825C399.686 265.825 399.686 265.825 399.686 265.825C399.686 265.825 399.686 265.825 399.686 265.825C399.686 265.825 399.686 265.825 399.686 265.825C399.686 265.825 399.686 265.825 399.686 265.825C399.686 265.825 399.686 265.825 399.686 265.825C399.686 265.825 399.686 265.825 399.686 265.825C399.686 265.825 399.686 265.825 399.686 265.825H405.686ZM405.686 265.824C405.686 188.581 343.068 125.963 265.826 125.963V131.963C339.755 131.963 399.686 191.895 399.686 265.824H405.686ZM265.826 125.963C188.583 125.963 125.965 188.581 125.965 265.824H131.965C131.965 191.895 191.896 131.963 265.826 131.963V125.963ZM125.965 265.824C125.965 265.824 125.965 265.824 125.965 265.824C125.965 265.824 125.965 265.824 125.965 265.824C125.965 265.824 125.965 265.824 125.965 265.824C125.965 265.824 125.965 265.824 125.965 265.824C125.965 265.824 125.965 265.824 125.965 265.824C125.965 265.824 125.965 265.824 125.965 265.824C125.965 265.824 125.965 265.824 125.965 265.824C125.965 265.824 125.965 265.824 125.965 265.824C125.965 265.824 125.965 265.824 125.965 265.824C125.965 265.824 125.965 265.824 125.965 265.824C125.965 265.824 125.965 265.824 125.965 265.824C125.965 265.824 125.965 265.824 125.965 265.824C125.965 265.824 125.965 265.824 125.965 265.824C125.965 265.824 125.965 265.824 125.965 265.824C125.965 265.824 125.965 265.824 125.965 265.824C125.965 265.824 125.965 265.824 125.965 265.824C125.965 265.824 125.965 265.824 125.965 265.824C125.965 265.824 125.965 265.824 125.965 265.824C125.965 265.824 125.965 265.824 125.965 265.824C125.965 265.824 125.965 265.824 125.965 265.824C125.965 265.824 125.965 265.824 125.965 265.824C125.965 265.824 125.965 265.824 125.965 265.824C125.965 265.824 125.965 265.824 125.965 265.824C125.965 265.824 125.965 265.824 125.965 265.824C125.965 265.824 125.965 265.824 125.965 265.824C125.965 265.824 125.965 265.824 125.965 265.824C125.965 265.824 125.965 265.824 125.965 265.824C125.965 265.824 125.965 265.824 125.965 265.824C125.965 265.824 125.965 265.824 125.965 265.824C125.965 265.824 125.965 265.824 125.965 265.824C125.965 265.824 125.965 265.824 125.965 265.824C125.965 265.824 125.965 265.824 125.965 265.824C125.965 265.824 125.965 265.824 125.965 265.824C125.965 265.824 125.965 265.824 125.965 265.824C125.965 265.824 125.965 265.824 125.965 265.824C125.965 265.824 125.965 265.824 125.965 265.824C125.965 265.824 125.965 265.824 125.965 265.824C125.965 265.824 125.965 265.824 125.965 265.824C125.965 265.824 125.965 265.824 125.965 265.824C125.965 265.824 125.965 265.824 125.965 265.824C125.965 265.824 125.965 265.824 125.965 265.824C125.965 265.824 125.965 265.824 125.965 265.824C125.965 265.824 125.965 265.824 125.965 265.824C125.965 265.824 125.965 265.824 125.965 265.824C125.965 265.824 125.965 265.824 125.965 265.824C125.965 265.824 125.965 265.824 125.965 265.824C125.965 265.824 125.965 265.824 125.965 265.824C125.965 265.824 125.965 265.824 125.965 265.824C125.965 265.824 125.965 265.824 125.965 265.824C125.965 265.824 125.965 265.824 125.965 265.824C125.965 265.824 125.965 265.824 125.965 265.824C125.965 265.824 125.965 265.824 125.965 265.824C125.965 265.824 125.965 265.824 125.965 265.824C125.965 265.824 125.965 265.824 125.965 265.824C125.965 265.824 125.965 265.824 125.965 265.824C125.965 265.824 125.965 265.824 125.965 265.824C125.965 265.824 125.965 265.824 125.965 265.824C125.965 265.824 125.965 265.824 125.965 265.824C125.965 265.824 125.965 265.824 125.965 265.824C125.965 265.824 125.965 265.824 125.965 265.824C125.965 265.824 125.965 265.824 125.965 265.824C125.965 265.824 125.965 265.824 125.965 265.824C125.965 265.824 125.965 265.824 125.965 265.824C125.965 265.824 125.965 265.824 125.965 265.824C125.965 265.824 125.965 265.824 125.965 265.824C125.965 265.824 125.965 265.824 125.965 265.824C125.965 265.824 125.965 265.824 125.965 265.824C125.965 265.824 125.965 265.824 125.965 265.824C125.965 265.824 125.965 265.824 125.965 265.824C125.965 265.824 125.965 265.824 125.965 265.824C125.965 265.824 125.965 265.824 125.965 265.824C125.965 265.824 125.965 265.824 125.965 265.824C125.965 265.824 125.965 265.824 125.965 265.824C125.965 265.824 125.965 265.824 125.965 265.824C125.965 265.824 125.965 265.824 125.965 265.824C125.965 265.824 125.965 265.824 125.965 265.824C125.965 265.824 125.965 265.824 125.965 265.824C125.965 265.824 125.965 265.824 125.965 265.824C125.965 265.824 125.965 265.824 125.965 265.824C125.965 265.824 125.965 265.824 125.965 265.824C125.965 265.824 125.965 265.824 125.965 265.824C125.965 265.824 125.965 265.824 125.965 265.824C125.965 265.824 125.965 265.824 125.965 265.824C125.965 265.824 125.965 265.824 125.965 265.824C125.965 265.824 125.965 265.824 125.965 265.824C125.965 265.824 125.965 265.824 125.965 265.824C125.965 265.824 125.965 265.824 125.965 265.824C125.965 265.824 125.965 265.824 125.965 265.824C125.965 265.824 125.965 265.824 125.965 265.824C125.965 265.824 125.965 265.824 125.965 265.824C125.965 265.824 125.965 265.824 125.965 265.824C125.965 265.824 125.965 265.824 125.965 265.824C125.965 265.824 125.965 265.824 125.965 265.824C125.965 265.824 125.965 265.824 125.965 265.824C125.965 265.824 125.965 265.824 125.965 265.824C125.965 265.824 125.965 265.824 125.965 265.824C125.965 265.824 125.965 265.824 125.965 265.824C125.965 265.824 125.965 265.824 125.965 265.824C125.965 265.824 125.965 265.824 125.965 265.824C125.965 265.824 125.965 265.824 125.965 265.824C125.965 265.824 125.965 265.824 125.965 265.824C125.965 265.824 125.965 265.824 125.965 265.824C125.965 265.824 125.965 265.824 125.965 265.824C125.965 265.824 125.965 265.824 125.965 265.824C125.965 265.824 125.965 265.824 125.965 265.824C125.965 265.824 125.965 265.824 125.965 265.824C125.965 265.824 125.965 265.824 125.965 265.824C125.965 265.824 125.965 265.824 125.965 265.824C125.965 265.824 125.965 265.824 125.965 265.824C125.965 265.824 125.965 265.824 125.965 265.824C125.965 265.824 125.965 265.824 125.965 265.824C125.965 265.824 125.965 265.824 125.965 265.824C125.965 265.824 125.965 265.824 125.965 265.824C125.965 265.824 125.965 265.824 125.965 265.824C125.965 265.824 125.965 265.824 125.965 265.824C125.965 265.824 125.965 265.824 125.965 265.824C125.965 265.824 125.965 265.824 125.965 265.824C125.965 265.824 125.965 265.824 125.965 265.824C125.965 265.824 125.965 265.824 125.965 265.824C125.965 265.824 125.965 265.824 125.965 265.824C125.965 265.824 125.965 265.824 125.965 265.824C125.965 265.824 125.965 265.824 125.965 265.824C125.965 265.824 125.965 265.824 125.965 265.824C125.965 265.824 125.965 265.824 125.965 265.824C125.965 265.824 125.965 265.824 125.965 265.824C125.965 265.824 125.965 265.824 125.965 265.824C125.965 265.824 125.965 265.824 125.965 265.824C125.965 265.824 125.965 265.824 125.965 265.824C125.965 265.824 125.965 265.824 125.965 265.824C125.965 265.824 125.965 265.824 125.965 265.824C125.965 265.824 125.965 265.824 125.965 265.824C125.965 265.824 125.965 265.824 125.965 265.824C125.965 265.824 125.965 265.824 125.965 265.824C125.965 265.824 125.965 265.824 125.965 265.824C125.965 265.824 125.965 265.824 125.965 265.824C125.965 265.824 125.965 265.824 125.965 265.824C125.965 265.824 125.965 265.824 125.965 265.824C125.965 265.824 125.965 265.824 125.965 265.824C125.965 265.824 125.965 265.824 125.965 265.824C125.965 265.824 125.965 265.824 125.965 265.824C125.965 265.824 125.965 265.824 125.965 265.824C125.965 265.824 125.965 265.824 125.965 265.824C125.965 265.824 125.965 265.824 125.965 265.824C125.965 265.824 125.965 265.824 125.965 265.824C125.965 265.824 125.965 265.824 125.965 265.824C125.965 265.824 125.965 265.824 125.965 265.824C125.965 265.824 125.965 265.824 125.965 265.824C125.965 265.824 125.965 265.824 125.965 265.824C125.965 265.824 125.965 265.824 125.965 265.824C125.965 265.824 125.965 265.824 125.965 265.824C125.965 265.824 125.965 265.824 125.965 265.824C125.965 265.824 125.965 265.824 125.965 265.824C125.965 265.824 125.965 265.824 125.965 265.824C125.965 265.824 125.965 265.824 125.965 265.824C125.965 265.824 125.965 265.824 125.965 265.824C125.965 265.824 125.965 265.824 125.965 265.824C125.965 265.824 125.965 265.824 125.965 265.824C125.965 265.824 125.965 265.824 125.965 265.824C125.965 265.824 125.965 265.824 125.965 265.824C125.965 265.824 125.965 265.824 125.965 265.824C125.965 265.824 125.965 265.824 125.965 265.824C125.965 265.824 125.965 265.824 125.965 265.824C125.965 265.824 125.965 265.824 125.965 265.824C125.965 265.824 125.965 265.824 125.965 265.824C125.965 265.824 125.965 265.824 125.965 265.824C125.965 265.824 125.965 265.824 125.965 265.824C125.965 265.824 125.965 265.824 125.965 265.824C125.965 265.824 125.965 265.824 125.965 265.824C125.965 265.824 125.965 265.824 125.965 265.824C125.965 265.824 125.965 265.824 125.965 265.824C125.965 265.824 125.965 265.824 125.965 265.824C125.965 265.824 125.965 265.824 125.965 265.824C125.965 265.824 125.965 265.824 125.965 265.824C125.965 265.824 125.965 265.824 125.965 265.824C125.965 265.824 125.965 265.824 125.965 265.824C125.965 265.824 125.965 265.824 125.965 265.824C125.965 265.824 125.965 265.824 125.965 265.824C125.965 265.824 125.965 265.824 125.965 265.824C125.965 265.824 125.965 265.824 125.965 265.824C125.965 265.824 125.965 265.824 125.965 265.824C125.965 265.824 125.965 265.824 125.965 265.824C125.965 265.824 125.965 265.824 125.965 265.824C125.965 265.824 125.965 265.824 125.965 265.824C125.965 265.824 125.965 265.824 125.965 265.824C125.965 265.824 125.965 265.824 125.965 265.824C125.965 265.824 125.965 265.824 125.965 265.824C125.965 265.824 125.965 265.824 125.965 265.824C125.965 265.824 125.965 265.824 125.965 265.824C125.965 265.824 125.965 265.824 125.965 265.824C125.965 265.824 125.965 265.824 125.965 265.824C125.965 265.824 125.965 265.824 125.965 265.824C125.965 265.824 125.965 265.824 125.965 265.824C125.965 265.824 125.965 265.824 125.965 265.824C125.965 265.824 125.965 265.824 125.965 265.824C125.965 265.824 125.965 265.824 125.965 265.824C125.965 265.824 125.965 265.824 125.965 265.824C125.965 265.824 125.965 265.824 125.965 265.824C125.965 265.824 125.965 265.824 125.965 265.824C125.965 265.824 125.965 265.824 125.965 265.824C125.965 265.824 125.965 265.824 125.965 265.824C125.965 265.824 125.965 265.824 125.965 265.824C125.965 265.824 125.965 265.824 125.965 265.824C125.965 265.824 125.965 265.824 125.965 265.824C125.965 265.824 125.965 265.824 125.965 265.824C125.965 265.824 125.965 265.824 125.965 265.824C125.965 265.824 125.965 265.824 125.965 265.824C125.965 265.824 125.965 265.824 125.965 265.824C125.965 265.824 125.965 265.824 125.965 265.824C125.965 265.824 125.965 265.824 125.965 265.824C125.965 265.824 125.965 265.824 125.965 265.824C125.965 265.824 125.965 265.824 125.965 265.824C125.965 265.824 125.965 265.824 125.965 265.824C125.965 265.824 125.965 265.824 125.965 265.824C125.965 265.824 125.965 265.824 125.965 265.824C125.965 265.824 125.965 265.824 125.965 265.824C125.965 265.824 125.965 265.824 125.965 265.824C125.965 265.824 125.965 265.824 125.965 265.824C125.965 265.824 125.965 265.824 125.965 265.824C125.965 265.824 125.965 265.824 125.965 265.824C125.965 265.824 125.965 265.824 125.965 265.824C125.965 265.824 125.965 265.824 125.965 265.824C125.965 265.824 125.965 265.824 125.965 265.824C125.965 265.824 125.965 265.824 125.965 265.824C125.965 265.824 125.965 265.824 125.965 265.824C125.965 265.824 125.965 265.824 125.965 265.824C125.965 265.824 125.965 265.824 125.965 265.824C125.965 265.824 125.965 265.824 125.965 265.824C125.965 265.824 125.965 265.824 125.965 265.824C125.965 265.824 125.965 265.824 125.965 265.824C125.965 265.824 125.965 265.824 125.965 265.824C125.965 265.824 125.965 265.824 125.965 265.824C125.965 265.824 125.965 265.824 125.965 265.824C125.965 265.824 125.965 265.824 125.965 265.824C125.965 265.824 125.965 265.824 125.965 265.824C125.965 265.824 125.965 265.824 125.965 265.824C125.965 265.824 125.965 265.824 125.965 265.824C125.965 265.824 125.965 265.824 125.965 265.824C125.965 265.824 125.965 265.824 125.965 265.824C125.965 265.824 125.965 265.824 125.965 265.824C125.965 265.824 125.965 265.824 125.965 265.824C125.965 265.824 125.965 265.824 125.965 265.824C125.965 265.824 125.965 265.824 125.965 265.824C125.965 265.824 125.965 265.824 125.965 265.824C125.965 265.824 125.965 265.824 125.965 265.824C125.965 265.824 125.965 265.824 125.965 265.824C125.965 265.824 125.965 265.824 125.965 265.824C125.965 265.824 125.965 265.824 125.965 265.824C125.965 265.824 125.965 265.824 125.965 265.824C125.965 265.824 125.965 265.824 125.965 265.824C125.965 265.824 125.965 265.824 125.965 265.824C125.965 265.824 125.965 265.824 125.965 265.824C125.965 265.824 125.965 265.824 125.965 265.824C125.965 265.824 125.965 265.824 125.965 265.824C125.965 265.824 125.965 265.824 125.965 265.824C125.965 265.824 125.965 265.824 125.965 265.824C125.965 265.824 125.965 265.824 125.965 265.824C125.965 265.824 125.965 265.824 125.965 265.824C125.965 265.824 125.965 265.824 125.965 265.824C125.965 265.824 125.965 265.824 125.965 265.824C125.965 265.824 125.965 265.824 125.965 265.824C125.965 265.824 125.965 265.824 125.965 265.824C125.965 265.824 125.965 265.824 125.965 265.824C125.965 265.824 125.965 265.824 125.965 265.824C125.965 265.824 125.965 265.824 125.965 265.824C125.965 265.824 125.965 265.824 125.965 265.824C125.965 265.824 125.965 265.824 125.965 265.824C125.965 265.824 125.965 265.824 125.965 265.824C125.965 265.824 125.965 265.824 125.965 265.824C125.965 265.824 125.965 265.824 125.965 265.824C125.965 265.824 125.965 265.824 125.965 265.824C125.965 265.824 125.965 265.824 125.965 265.824C125.965 265.824 125.965 265.824 125.965 265.824C125.965 265.824 125.965 265.824 125.965 265.824C125.965 265.824 125.965 265.824 125.965 265.824C125.965 265.824 125.965 265.824 125.965 265.824C125.965 265.824 125.965 265.824 125.965 265.824C125.965 265.824 125.965 265.824 125.965 265.824C125.965 265.824 125.965 265.824 125.965 265.824C125.965 265.824 125.965 265.824 125.965 265.824C125.965 265.824 125.965 265.824 125.965 265.824C125.965 265.824 125.965 265.824 125.965 265.824C125.965 265.824 125.965 265.824 125.965 265.824C125.965 265.824 125.965 265.824 125.965 265.824C125.965 265.824 125.965 265.824 125.965 265.824C125.965 265.824 125.965 265.824 125.965 265.824C125.965 265.824 125.965 265.824 125.965 265.824C125.965 265.824 125.965 265.824 125.965 265.824C125.965 265.824 125.965 265.824 125.965 265.824C125.965 265.824 125.965 265.824 125.965 265.824C125.965 265.824 125.965 265.824 125.965 265.824C125.965 265.824 125.965 265.824 125.965 265.824C125.965 265.824 125.965 265.824 125.965 265.824C125.965 265.824 125.965 265.824 125.965 265.824C125.965 265.824 125.965 265.824 125.965 265.824C125.965 265.824 125.965 265.824 125.965 265.824C125.965 265.824 125.965 265.824 125.965 265.824C125.965 265.824 125.965 265.824 125.965 265.824C125.965 265.824 125.965 265.824 125.965 265.824C125.965 265.824 125.965 265.824 125.965 265.824C125.965 265.824 125.965 265.824 125.965 265.824C125.965 265.824 125.965 265.824 125.965 265.824C125.965 265.824 125.965 265.824 125.965 265.824C125.965 265.824 125.965 265.824 125.965 265.824C125.965 265.824 125.965 265.824 125.965 265.824C125.965 265.824 125.965 265.824 125.965 265.824C125.965 265.824 125.965 265.824 125.965 265.824C125.965 265.824 125.965 265.824 125.965 265.824C125.965 265.824 125.965 265.824 125.965 265.824C125.965 265.824 125.965 265.824 125.965 265.824C125.965 265.824 125.965 265.824 125.965 265.824C125.965 265.824 125.965 265.824 125.965 265.824C125.965 265.824 125.965 265.824 125.965 265.824C125.965 265.824 125.965 265.824 125.965 265.824C125.965 265.824 125.965 265.824 125.965 265.824C125.965 265.824 125.965 265.824 125.965 265.824C125.965 265.824 125.965 265.824 125.965 265.824C125.965 265.824 125.965 265.824 125.965 265.824C125.965 265.824 125.965 265.824 125.965 265.824C125.965 265.824 125.965 265.824 125.965 265.824C125.965 265.824 125.965 265.824 125.965 265.824C125.965 265.824 125.965 265.824 125.965 265.824C125.965 265.824 125.965 265.824 125.965 265.824C125.965 265.824 125.965 265.824 125.965 265.824C125.965 265.824 125.965 265.824 125.965 265.824C125.965 265.824 125.965 265.825 125.965 265.825C125.965 265.825 125.965 265.825 125.965 265.825C125.965 265.825 125.965 265.825 125.965 265.825C125.965 265.825 125.965 265.825 125.965 265.825C125.965 265.825 125.965 265.825 125.965 265.825C125.965 265.825 125.965 265.825 125.965 265.825C125.965 265.825 125.965 265.825 125.965 265.825C125.965 265.825 125.965 265.825 125.965 265.825C125.965 265.825 125.965 265.825 125.965 265.825C125.965 265.825 125.965 265.825 125.965 265.825C125.965 265.825 125.965 265.825 125.965 265.825C125.965 265.825 125.965 265.825 125.965 265.825C125.965 265.825 125.965 265.825 125.965 265.825C125.965 265.825 125.965 265.825 125.965 265.825C125.965 265.825 125.965 265.825 125.965 265.825C125.965 265.825 125.965 265.825 125.965 265.825C125.965 265.825 125.965 265.825 125.965 265.825C125.965 265.825 125.965 265.825 125.965 265.825C125.965 265.825 125.965 265.825 125.965 265.825C125.965 265.825 125.965 265.825 125.965 265.825C125.965 265.825 125.965 265.825 125.965 265.825C125.965 265.825 125.965 265.825 125.965 265.825C125.965 265.825 125.965 265.825 125.965 265.825C125.965 265.825 125.965 265.825 125.965 265.825C125.965 265.825 125.965 265.825 125.965 265.825C125.965 265.825 125.965 265.825 125.965 265.825C125.965 265.825 125.965 265.825 125.965 265.825C125.965 265.825 125.965 265.825 125.965 265.825C125.965 265.825 125.965 265.825 125.965 265.825C125.965 265.825 125.965 265.825 125.965 265.825C125.965 265.825 125.965 265.825 125.965 265.825C125.965 265.825 125.965 265.825 125.965 265.825C125.965 265.825 125.965 265.825 125.965 265.825C125.965 265.825 125.965 265.825 125.965 265.825C125.965 265.825 125.965 265.825 125.965 265.825C125.965 265.825 125.965 265.825 125.965 265.825C125.965 265.825 125.965 265.825 125.965 265.825C125.965 265.825 125.965 265.825 125.965 265.825C125.965 265.825 125.965 265.825 125.965 265.825C125.965 265.825 125.965 265.825 125.965 265.825C125.965 265.825 125.965 265.825 125.965 265.825C125.965 265.825 125.965 265.825 125.965 265.825C125.965 265.825 125.965 265.825 125.965 265.825C125.965 265.825 125.965 265.825 125.965 265.825C125.965 265.825 125.965 265.825 125.965 265.825C125.965 265.825 125.965 265.825 125.965 265.825C125.965 265.825 125.965 265.825 125.965 265.825C125.965 265.825 125.965 265.825 125.965 265.825C125.965 265.825 125.965 265.825 125.965 265.825C125.965 265.825 125.965 265.825 125.965 265.825C125.965 265.825 125.965 265.825 125.965 265.825C125.965 265.825 125.965 265.825 125.965 265.825C125.965 265.825 125.965 265.825 125.965 265.825C125.965 265.825 125.965 265.825 125.965 265.825C125.965 265.825 125.965 265.825 125.965 265.825C125.965 265.825 125.965 265.825 125.965 265.825C125.965 265.825 125.965 265.825 125.965 265.825C125.965 265.825 125.965 265.825 125.965 265.825C125.965 265.825 125.965 265.825 125.965 265.825C125.965 265.825 125.965 265.825 125.965 265.825C125.965 265.825 125.965 265.825 125.965 265.825C125.965 265.825 125.965 265.825 125.965 265.825C125.965 265.825 125.965 265.825 125.965 265.825C125.965 265.825 125.965 265.825 125.965 265.825C125.965 265.825 125.965 265.825 125.965 265.825C125.965 265.825 125.965 265.825 125.965 265.825C125.965 265.825 125.965 265.825 125.965 265.825C125.965 265.825 125.965 265.825 125.965 265.825C125.965 265.825 125.965 265.825 125.965 265.825C125.965 265.825 125.965 265.825 125.965 265.825C125.965 265.825 125.965 265.825 125.965 265.825C125.965 265.825 125.965 265.825 125.965 265.825C125.965 265.825 125.965 265.825 125.965 265.825C125.965 265.825 125.965 265.825 125.965 265.825C125.965 265.825 125.965 265.825 125.965 265.825C125.965 265.825 125.965 265.825 125.965 265.825C125.965 265.825 125.965 265.825 125.965 265.825C125.965 265.825 125.965 265.825 125.965 265.825C125.965 265.825 125.965 265.825 125.965 265.825C125.965 265.825 125.965 265.825 125.965 265.825C125.965 265.825 125.965 265.825 125.965 265.825C125.965 265.825 125.965 265.825 125.965 265.825C125.965 265.825 125.965 265.825 125.965 265.825C125.965 265.825 125.965 265.825 125.965 265.825C125.965 265.825 125.965 265.825 125.965 265.825C125.965 265.825 125.965 265.825 125.965 265.825C125.965 265.825 125.965 265.825 125.965 265.825C125.965 265.825 125.965 265.825 125.965 265.825C125.965 265.825 125.965 265.825 125.965 265.825C125.965 265.825 125.965 265.825 125.965 265.825C125.965 265.825 125.965 265.825 125.965 265.825C125.965 265.825 125.965 265.825 125.965 265.825C125.965 265.825 125.965 265.825 125.965 265.825C125.965 265.825 125.965 265.825 125.965 265.825C125.965 265.825 125.965 265.825 125.965 265.825C125.965 265.825 125.965 265.825 125.965 265.825C125.965 265.825 125.965 265.825 125.965 265.825C125.965 265.825 125.965 265.825 125.965 265.825C125.965 265.825 125.965 265.825 125.965 265.825C125.965 265.825 125.965 265.825 125.965 265.825C125.965 265.825 125.965 265.825 125.965 265.825C125.965 265.825 125.965 265.825 125.965 265.825C125.965 265.825 125.965 265.825 125.965 265.825C125.965 265.825 125.965 265.825 125.965 265.825C125.965 265.825 125.965 265.825 125.965 265.825C125.965 265.825 125.965 265.825 125.965 265.825C125.965 265.825 125.965 265.825 125.965 265.825C125.965 265.825 125.965 265.825 125.965 265.825C125.965 265.825 125.965 265.825 125.965 265.825C125.965 265.825 125.965 265.825 125.965 265.825C125.965 265.825 125.965 265.825 125.965 265.825C125.965 265.825 125.965 265.825 125.965 265.825C125.965 265.825 125.965 265.825 125.965 265.825C125.965 265.825 125.965 265.825 125.965 265.825C125.965 265.825 125.965 265.825 125.965 265.825C125.965 265.825 125.965 265.825 125.965 265.825C125.965 265.825 125.965 265.825 125.965 265.825C125.965 265.825 125.965 265.825 125.965 265.825C125.965 265.825 125.965 265.825 125.965 265.825C125.965 265.825 125.965 265.825 125.965 265.825C125.965 265.825 125.965 265.825 125.965 265.825C125.965 265.825 125.965 265.825 125.965 265.825C125.965 265.825 125.965 265.825 125.965 265.825C125.965 265.825 125.965 265.825 125.965 265.825C125.965 265.825 125.965 265.825 125.965 265.825C125.965 265.825 125.965 265.825 125.965 265.825C125.965 265.825 125.965 265.825 125.965 265.825C125.965 265.825 125.965 265.825 125.965 265.825C125.965 265.825 125.965 265.825 125.965 265.825C125.965 265.825 125.965 265.825 125.965 265.825C125.965 265.825 125.965 265.825 125.965 265.825C125.965 265.825 125.965 265.825 125.965 265.825C125.965 265.825 125.965 265.825 125.965 265.825C125.965 265.825 125.965 265.825 125.965 265.825C125.965 265.825 125.965 265.825 125.965 265.825C125.965 265.825 125.965 265.825 125.965 265.825C125.965 265.825 125.965 265.825 125.965 265.825C125.965 265.825 125.965 265.825 125.965 265.825C125.965 265.825 125.965 265.825 125.965 265.825C125.965 265.825 125.965 265.825 125.965 265.825C125.965 265.825 125.965 265.825 125.965 265.825C125.965 265.825 125.965 265.825 125.965 265.825C125.965 265.825 125.965 265.825 125.965 265.825C125.965 265.825 125.965 265.825 125.965 265.825C125.965 265.825 125.965 265.825 125.965 265.825C125.965 265.825 125.965 265.825 125.965 265.825C125.965 265.825 125.965 265.825 125.965 265.825C125.965 265.825 125.965 265.825 125.965 265.825C125.965 265.825 125.965 265.825 125.965 265.825C125.965 265.825 125.965 265.825 125.965 265.825C125.965 265.825 125.965 265.825 125.965 265.825C125.965 265.825 125.965 265.825 125.965 265.825C125.965 265.825 125.965 265.825 125.965 265.825C125.965 265.825 125.965 265.825 125.965 265.825C125.965 265.825 125.965 265.825 125.965 265.825C125.965 265.825 125.965 265.825 125.965 265.825C125.965 265.825 125.965 265.825 125.965 265.825C125.965 265.825 125.965 265.825 125.965 265.825C125.965 265.825 125.965 265.825 125.965 265.825C125.965 265.825 125.965 265.825 125.965 265.825C125.965 265.825 125.965 265.825 125.965 265.825C125.965 265.825 125.965 265.825 125.965 265.825C125.965 265.825 125.965 265.825 125.965 265.825C125.965 265.825 125.965 265.825 125.965 265.825C125.965 265.825 125.965 265.825 125.965 265.825C125.965 265.825 125.965 265.825 125.965 265.825C125.965 265.825 125.965 265.825 125.965 265.825C125.965 265.825 125.965 265.825 125.965 265.825C125.965 265.825 125.965 265.825 125.965 265.825C125.965 265.825 125.965 265.825 125.965 265.825C125.965 265.825 125.965 265.825 125.965 265.825C125.965 265.825 125.965 265.825 125.965 265.825C125.965 265.825 125.965 265.825 125.965 265.825C125.965 265.825 125.965 265.825 125.965 265.825C125.965 265.825 125.965 265.825 125.965 265.825C125.965 265.825 125.965 265.825 125.965 265.825C125.965 265.825 125.965 265.825 125.965 265.825C125.965 265.825 125.965 265.825 125.965 265.825C125.965 265.825 125.965 265.825 125.965 265.825C125.965 265.825 125.965 265.825 125.965 265.825C125.965 265.825 125.965 265.825 125.965 265.825C125.965 265.825 125.965 265.825 125.965 265.825C125.965 265.825 125.965 265.825 125.965 265.825C125.965 265.825 125.965 265.825 125.965 265.825C125.965 265.825 125.965 265.825 125.965 265.825C125.965 265.825 125.965 265.825 125.965 265.825C125.965 265.825 125.965 265.825 125.965 265.825C125.965 265.825 125.965 265.825 125.965 265.825H131.965C131.965 265.825 131.965 265.825 131.965 265.825C131.965 265.825 131.965 265.825 131.965 265.825C131.965 265.825 131.965 265.825 131.965 265.825C131.965 265.825 131.965 265.825 131.965 265.825C131.965 265.825 131.965 265.825 131.965 265.825C131.965 265.825 131.965 265.825 131.965 265.825C131.965 265.825 131.965 265.825 131.965 265.825C131.965 265.825 131.965 265.825 131.965 265.825C131.965 265.825 131.965 265.825 131.965 265.825C131.965 265.825 131.965 265.825 131.965 265.825C131.965 265.825 131.965 265.825 131.965 265.825C131.965 265.825 131.965 265.825 131.965 265.825C131.965 265.825 131.965 265.825 131.965 265.825C131.965 265.825 131.965 265.825 131.965 265.825C131.965 265.825 131.965 265.825 131.965 265.825C131.965 265.825 131.965 265.825 131.965 265.825C131.965 265.825 131.965 265.825 131.965 265.825C131.965 265.825 131.965 265.825 131.965 265.825C131.965 265.825 131.965 265.825 131.965 265.825C131.965 265.825 131.965 265.825 131.965 265.825C131.965 265.825 131.965 265.825 131.965 265.825C131.965 265.825 131.965 265.825 131.965 265.825C131.965 265.825 131.965 265.825 131.965 265.825C131.965 265.825 131.965 265.825 131.965 265.825C131.965 265.825 131.965 265.825 131.965 265.825C131.965 265.825 131.965 265.825 131.965 265.825C131.965 265.825 131.965 265.825 131.965 265.825C131.965 265.825 131.965 265.825 131.965 265.825C131.965 265.825 131.965 265.825 131.965 265.825C131.965 265.825 131.965 265.825 131.965 265.825C131.965 265.825 131.965 265.825 131.965 265.825C131.965 265.825 131.965 265.825 131.965 265.825C131.965 265.825 131.965 265.825 131.965 265.825C131.965 265.825 131.965 265.825 131.965 265.825C131.965 265.825 131.965 265.825 131.965 265.825C131.965 265.825 131.965 265.825 131.965 265.825C131.965 265.825 131.965 265.825 131.965 265.825C131.965 265.825 131.965 265.825 131.965 265.825C131.965 265.825 131.965 265.825 131.965 265.825C131.965 265.825 131.965 265.825 131.965 265.825C131.965 265.825 131.965 265.825 131.965 265.825C131.965 265.825 131.965 265.825 131.965 265.825C131.965 265.825 131.965 265.825 131.965 265.825C131.965 265.825 131.965 265.825 131.965 265.825C131.965 265.825 131.965 265.825 131.965 265.825C131.965 265.825 131.965 265.825 131.965 265.825C131.965 265.825 131.965 265.825 131.965 265.825C131.965 265.825 131.965 265.825 131.965 265.825C131.965 265.825 131.965 265.825 131.965 265.825C131.965 265.825 131.965 265.825 131.965 265.825C131.965 265.825 131.965 265.825 131.965 265.825C131.965 265.825 131.965 265.825 131.965 265.825C131.965 265.825 131.965 265.825 131.965 265.825C131.965 265.825 131.965 265.825 131.965 265.825C131.965 265.825 131.965 265.825 131.965 265.825C131.965 265.825 131.965 265.825 131.965 265.825C131.965 265.825 131.965 265.825 131.965 265.825C131.965 265.825 131.965 265.825 131.965 265.825C131.965 265.825 131.965 265.825 131.965 265.825C131.965 265.825 131.965 265.825 131.965 265.825C131.965 265.825 131.965 265.825 131.965 265.825C131.965 265.825 131.965 265.825 131.965 265.825C131.965 265.825 131.965 265.825 131.965 265.825C131.965 265.825 131.965 265.825 131.965 265.825C131.965 265.825 131.965 265.825 131.965 265.825C131.965 265.825 131.965 265.825 131.965 265.825C131.965 265.825 131.965 265.825 131.965 265.825C131.965 265.825 131.965 265.825 131.965 265.825C131.965 265.825 131.965 265.825 131.965 265.825C131.965 265.825 131.965 265.825 131.965 265.825C131.965 265.825 131.965 265.825 131.965 265.825C131.965 265.825 131.965 265.825 131.965 265.825C131.965 265.825 131.965 265.825 131.965 265.825C131.965 265.825 131.965 265.825 131.965 265.825C131.965 265.825 131.965 265.825 131.965 265.825C131.965 265.825 131.965 265.825 131.965 265.825C131.965 265.825 131.965 265.825 131.965 265.825C131.965 265.825 131.965 265.825 131.965 265.825C131.965 265.825 131.965 265.825 131.965 265.825C131.965 265.825 131.965 265.825 131.965 265.825C131.965 265.825 131.965 265.825 131.965 265.825C131.965 265.825 131.965 265.825 131.965 265.825C131.965 265.825 131.965 265.825 131.965 265.825C131.965 265.825 131.965 265.825 131.965 265.825C131.965 265.825 131.965 265.825 131.965 265.825C131.965 265.825 131.965 265.825 131.965 265.825C131.965 265.825 131.965 265.825 131.965 265.825C131.965 265.825 131.965 265.825 131.965 265.825C131.965 265.825 131.965 265.825 131.965 265.825C131.965 265.825 131.965 265.825 131.965 265.825C131.965 265.825 131.965 265.825 131.965 265.825C131.965 265.825 131.965 265.825 131.965 265.825C131.965 265.825 131.965 265.825 131.965 265.825C131.965 265.825 131.965 265.825 131.965 265.825C131.965 265.825 131.965 265.825 131.965 265.825C131.965 265.825 131.965 265.825 131.965 265.825C131.965 265.825 131.965 265.825 131.965 265.825C131.965 265.825 131.965 265.825 131.965 265.825C131.965 265.825 131.965 265.825 131.965 265.825C131.965 265.825 131.965 265.825 131.965 265.825C131.965 265.825 131.965 265.825 131.965 265.825C131.965 265.825 131.965 265.825 131.965 265.825C131.965 265.825 131.965 265.825 131.965 265.825C131.965 265.825 131.965 265.825 131.965 265.825C131.965 265.825 131.965 265.825 131.965 265.825C131.965 265.825 131.965 265.825 131.965 265.825C131.965 265.825 131.965 265.825 131.965 265.825C131.965 265.825 131.965 265.825 131.965 265.825C131.965 265.825 131.965 265.825 131.965 265.825C131.965 265.825 131.965 265.825 131.965 265.825C131.965 265.825 131.965 265.825 131.965 265.825C131.965 265.825 131.965 265.825 131.965 265.825C131.965 265.825 131.965 265.825 131.965 265.825C131.965 265.825 131.965 265.825 131.965 265.825C131.965 265.825 131.965 265.825 131.965 265.825C131.965 265.825 131.965 265.825 131.965 265.825C131.965 265.825 131.965 265.825 131.965 265.825C131.965 265.825 131.965 265.825 131.965 265.825C131.965 265.825 131.965 265.825 131.965 265.825C131.965 265.825 131.965 265.825 131.965 265.825C131.965 265.825 131.965 265.825 131.965 265.825C131.965 265.825 131.965 265.825 131.965 265.825C131.965 265.825 131.965 265.825 131.965 265.825C131.965 265.825 131.965 265.825 131.965 265.825C131.965 265.825 131.965 265.825 131.965 265.825C131.965 265.825 131.965 265.825 131.965 265.825C131.965 265.825 131.965 265.825 131.965 265.825C131.965 265.825 131.965 265.825 131.965 265.825C131.965 265.825 131.965 265.825 131.965 265.825C131.965 265.825 131.965 265.825 131.965 265.825C131.965 265.825 131.965 265.825 131.965 265.825C131.965 265.825 131.965 265.825 131.965 265.825C131.965 265.825 131.965 265.825 131.965 265.825C131.965 265.825 131.965 265.825 131.965 265.825C131.965 265.825 131.965 265.825 131.965 265.825C131.965 265.825 131.965 265.825 131.965 265.825C131.965 265.825 131.965 265.825 131.965 265.825C131.965 265.825 131.965 265.825 131.965 265.825C131.965 265.825 131.965 265.825 131.965 265.825C131.965 265.825 131.965 265.825 131.965 265.825C131.965 265.825 131.965 265.825 131.965 265.825C131.965 265.825 131.965 265.825 131.965 265.825C131.965 265.825 131.965 265.825 131.965 265.825C131.965 265.825 131.965 265.825 131.965 265.825C131.965 265.825 131.965 265.825 131.965 265.825C131.965 265.825 131.965 265.825 131.965 265.825C131.965 265.825 131.965 265.825 131.965 265.825C131.965 265.825 131.965 265.825 131.965 265.825C131.965 265.825 131.965 265.825 131.965 265.825C131.965 265.825 131.965 265.825 131.965 265.825C131.965 265.825 131.965 265.825 131.965 265.825C131.965 265.825 131.965 265.825 131.965 265.825C131.965 265.825 131.965 265.825 131.965 265.825C131.965 265.825 131.965 265.825 131.965 265.825C131.965 265.825 131.965 265.825 131.965 265.825C131.965 265.825 131.965 265.825 131.965 265.825C131.965 265.825 131.965 265.825 131.965 265.825C131.965 265.825 131.965 265.825 131.965 265.825C131.965 265.825 131.965 265.825 131.965 265.825C131.965 265.825 131.965 265.825 131.965 265.825C131.965 265.825 131.965 265.825 131.965 265.825C131.965 265.825 131.965 265.825 131.965 265.825C131.965 265.825 131.965 265.825 131.965 265.825C131.965 265.825 131.965 265.825 131.965 265.825C131.965 265.825 131.965 265.825 131.965 265.825C131.965 265.825 131.965 265.825 131.965 265.825C131.965 265.825 131.965 265.825 131.965 265.825C131.965 265.825 131.965 265.825 131.965 265.825C131.965 265.825 131.965 265.825 131.965 265.825C131.965 265.825 131.965 265.825 131.965 265.825C131.965 265.825 131.965 265.825 131.965 265.825C131.965 265.825 131.965 265.825 131.965 265.825C131.965 265.825 131.965 265.825 131.965 265.825C131.965 265.825 131.965 265.825 131.965 265.825C131.965 265.825 131.965 265.825 131.965 265.825C131.965 265.825 131.965 265.825 131.965 265.825C131.965 265.825 131.965 265.825 131.965 265.825C131.965 265.825 131.965 265.825 131.965 265.825C131.965 265.825 131.965 265.825 131.965 265.825C131.965 265.825 131.965 265.825 131.965 265.825C131.965 265.825 131.965 265.825 131.965 265.825C131.965 265.825 131.965 265.825 131.965 265.825C131.965 265.825 131.965 265.825 131.965 265.825C131.965 265.825 131.965 265.825 131.965 265.825C131.965 265.825 131.965 265.825 131.965 265.825C131.965 265.825 131.965 265.825 131.965 265.825C131.965 265.825 131.965 265.825 131.965 265.825C131.965 265.825 131.965 265.824 131.965 265.824C131.965 265.824 131.965 265.824 131.965 265.824C131.965 265.824 131.965 265.824 131.965 265.824C131.965 265.824 131.965 265.824 131.965 265.824C131.965 265.824 131.965 265.824 131.965 265.824C131.965 265.824 131.965 265.824 131.965 265.824C131.965 265.824 131.965 265.824 131.965 265.824C131.965 265.824 131.965 265.824 131.965 265.824C131.965 265.824 131.965 265.824 131.965 265.824C131.965 265.824 131.965 265.824 131.965 265.824C131.965 265.824 131.965 265.824 131.965 265.824C131.965 265.824 131.965 265.824 131.965 265.824C131.965 265.824 131.965 265.824 131.965 265.824C131.965 265.824 131.965 265.824 131.965 265.824C131.965 265.824 131.965 265.824 131.965 265.824C131.965 265.824 131.965 265.824 131.965 265.824C131.965 265.824 131.965 265.824 131.965 265.824C131.965 265.824 131.965 265.824 131.965 265.824C131.965 265.824 131.965 265.824 131.965 265.824C131.965 265.824 131.965 265.824 131.965 265.824C131.965 265.824 131.965 265.824 131.965 265.824C131.965 265.824 131.965 265.824 131.965 265.824C131.965 265.824 131.965 265.824 131.965 265.824C131.965 265.824 131.965 265.824 131.965 265.824C131.965 265.824 131.965 265.824 131.965 265.824C131.965 265.824 131.965 265.824 131.965 265.824C131.965 265.824 131.965 265.824 131.965 265.824C131.965 265.824 131.965 265.824 131.965 265.824C131.965 265.824 131.965 265.824 131.965 265.824C131.965 265.824 131.965 265.824 131.965 265.824C131.965 265.824 131.965 265.824 131.965 265.824C131.965 265.824 131.965 265.824 131.965 265.824C131.965 265.824 131.965 265.824 131.965 265.824C131.965 265.824 131.965 265.824 131.965 265.824C131.965 265.824 131.965 265.824 131.965 265.824C131.965 265.824 131.965 265.824 131.965 265.824C131.965 265.824 131.965 265.824 131.965 265.824C131.965 265.824 131.965 265.824 131.965 265.824C131.965 265.824 131.965 265.824 131.965 265.824C131.965 265.824 131.965 265.824 131.965 265.824C131.965 265.824 131.965 265.824 131.965 265.824C131.965 265.824 131.965 265.824 131.965 265.824C131.965 265.824 131.965 265.824 131.965 265.824C131.965 265.824 131.965 265.824 131.965 265.824C131.965 265.824 131.965 265.824 131.965 265.824C131.965 265.824 131.965 265.824 131.965 265.824C131.965 265.824 131.965 265.824 131.965 265.824C131.965 265.824 131.965 265.824 131.965 265.824C131.965 265.824 131.965 265.824 131.965 265.824C131.965 265.824 131.965 265.824 131.965 265.824C131.965 265.824 131.965 265.824 131.965 265.824C131.965 265.824 131.965 265.824 131.965 265.824C131.965 265.824 131.965 265.824 131.965 265.824C131.965 265.824 131.965 265.824 131.965 265.824C131.965 265.824 131.965 265.824 131.965 265.824C131.965 265.824 131.965 265.824 131.965 265.824C131.965 265.824 131.965 265.824 131.965 265.824C131.965 265.824 131.965 265.824 131.965 265.824C131.965 265.824 131.965 265.824 131.965 265.824C131.965 265.824 131.965 265.824 131.965 265.824C131.965 265.824 131.965 265.824 131.965 265.824C131.965 265.824 131.965 265.824 131.965 265.824C131.965 265.824 131.965 265.824 131.965 265.824C131.965 265.824 131.965 265.824 131.965 265.824C131.965 265.824 131.965 265.824 131.965 265.824C131.965 265.824 131.965 265.824 131.965 265.824C131.965 265.824 131.965 265.824 131.965 265.824C131.965 265.824 131.965 265.824 131.965 265.824C131.965 265.824 131.965 265.824 131.965 265.824C131.965 265.824 131.965 265.824 131.965 265.824C131.965 265.824 131.965 265.824 131.965 265.824C131.965 265.824 131.965 265.824 131.965 265.824C131.965 265.824 131.965 265.824 131.965 265.824C131.965 265.824 131.965 265.824 131.965 265.824C131.965 265.824 131.965 265.824 131.965 265.824C131.965 265.824 131.965 265.824 131.965 265.824C131.965 265.824 131.965 265.824 131.965 265.824C131.965 265.824 131.965 265.824 131.965 265.824C131.965 265.824 131.965 265.824 131.965 265.824C131.965 265.824 131.965 265.824 131.965 265.824C131.965 265.824 131.965 265.824 131.965 265.824C131.965 265.824 131.965 265.824 131.965 265.824C131.965 265.824 131.965 265.824 131.965 265.824C131.965 265.824 131.965 265.824 131.965 265.824C131.965 265.824 131.965 265.824 131.965 265.824C131.965 265.824 131.965 265.824 131.965 265.824C131.965 265.824 131.965 265.824 131.965 265.824C131.965 265.824 131.965 265.824 131.965 265.824C131.965 265.824 131.965 265.824 131.965 265.824C131.965 265.824 131.965 265.824 131.965 265.824C131.965 265.824 131.965 265.824 131.965 265.824C131.965 265.824 131.965 265.824 131.965 265.824C131.965 265.824 131.965 265.824 131.965 265.824C131.965 265.824 131.965 265.824 131.965 265.824C131.965 265.824 131.965 265.824 131.965 265.824C131.965 265.824 131.965 265.824 131.965 265.824C131.965 265.824 131.965 265.824 131.965 265.824C131.965 265.824 131.965 265.824 131.965 265.824C131.965 265.824 131.965 265.824 131.965 265.824C131.965 265.824 131.965 265.824 131.965 265.824C131.965 265.824 131.965 265.824 131.965 265.824C131.965 265.824 131.965 265.824 131.965 265.824C131.965 265.824 131.965 265.824 131.965 265.824C131.965 265.824 131.965 265.824 131.965 265.824C131.965 265.824 131.965 265.824 131.965 265.824C131.965 265.824 131.965 265.824 131.965 265.824C131.965 265.824 131.965 265.824 131.965 265.824C131.965 265.824 131.965 265.824 131.965 265.824C131.965 265.824 131.965 265.824 131.965 265.824C131.965 265.824 131.965 265.824 131.965 265.824C131.965 265.824 131.965 265.824 131.965 265.824C131.965 265.824 131.965 265.824 131.965 265.824C131.965 265.824 131.965 265.824 131.965 265.824C131.965 265.824 131.965 265.824 131.965 265.824C131.965 265.824 131.965 265.824 131.965 265.824C131.965 265.824 131.965 265.824 131.965 265.824C131.965 265.824 131.965 265.824 131.965 265.824C131.965 265.824 131.965 265.824 131.965 265.824C131.965 265.824 131.965 265.824 131.965 265.824C131.965 265.824 131.965 265.824 131.965 265.824C131.965 265.824 131.965 265.824 131.965 265.824C131.965 265.824 131.965 265.824 131.965 265.824C131.965 265.824 131.965 265.824 131.965 265.824C131.965 265.824 131.965 265.824 131.965 265.824C131.965 265.824 131.965 265.824 131.965 265.824C131.965 265.824 131.965 265.824 131.965 265.824C131.965 265.824 131.965 265.824 131.965 265.824C131.965 265.824 131.965 265.824 131.965 265.824C131.965 265.824 131.965 265.824 131.965 265.824C131.965 265.824 131.965 265.824 131.965 265.824C131.965 265.824 131.965 265.824 131.965 265.824C131.965 265.824 131.965 265.824 131.965 265.824C131.965 265.824 131.965 265.824 131.965 265.824C131.965 265.824 131.965 265.824 131.965 265.824C131.965 265.824 131.965 265.824 131.965 265.824C131.965 265.824 131.965 265.824 131.965 265.824C131.965 265.824 131.965 265.824 131.965 265.824C131.965 265.824 131.965 265.824 131.965 265.824C131.965 265.824 131.965 265.824 131.965 265.824C131.965 265.824 131.965 265.824 131.965 265.824C131.965 265.824 131.965 265.824 131.965 265.824C131.965 265.824 131.965 265.824 131.965 265.824C131.965 265.824 131.965 265.824 131.965 265.824C131.965 265.824 131.965 265.824 131.965 265.824C131.965 265.824 131.965 265.824 131.965 265.824C131.965 265.824 131.965 265.824 131.965 265.824C131.965 265.824 131.965 265.824 131.965 265.824C131.965 265.824 131.965 265.824 131.965 265.824C131.965 265.824 131.965 265.824 131.965 265.824C131.965 265.824 131.965 265.824 131.965 265.824C131.965 265.824 131.965 265.824 131.965 265.824C131.965 265.824 131.965 265.824 131.965 265.824C131.965 265.824 131.965 265.824 131.965 265.824C131.965 265.824 131.965 265.824 131.965 265.824C131.965 265.824 131.965 265.824 131.965 265.824C131.965 265.824 131.965 265.824 131.965 265.824C131.965 265.824 131.965 265.824 131.965 265.824C131.965 265.824 131.965 265.824 131.965 265.824C131.965 265.824 131.965 265.824 131.965 265.824C131.965 265.824 131.965 265.824 131.965 265.824C131.965 265.824 131.965 265.824 131.965 265.824C131.965 265.824 131.965 265.824 131.965 265.824C131.965 265.824 131.965 265.824 131.965 265.824C131.965 265.824 131.965 265.824 131.965 265.824C131.965 265.824 131.965 265.824 131.965 265.824C131.965 265.824 131.965 265.824 131.965 265.824C131.965 265.824 131.965 265.824 131.965 265.824C131.965 265.824 131.965 265.824 131.965 265.824C131.965 265.824 131.965 265.824 131.965 265.824C131.965 265.824 131.965 265.824 131.965 265.824C131.965 265.824 131.965 265.824 131.965 265.824C131.965 265.824 131.965 265.824 131.965 265.824C131.965 265.824 131.965 265.824 131.965 265.824C131.965 265.824 131.965 265.824 131.965 265.824C131.965 265.824 131.965 265.824 131.965 265.824C131.965 265.824 131.965 265.824 131.965 265.824C131.965 265.824 131.965 265.824 131.965 265.824C131.965 265.824 131.965 265.824 131.965 265.824C131.965 265.824 131.965 265.824 131.965 265.824C131.965 265.824 131.965 265.824 131.965 265.824C131.965 265.824 131.965 265.824 131.965 265.824C131.965 265.824 131.965 265.824 131.965 265.824C131.965 265.824 131.965 265.824 131.965 265.824C131.965 265.824 131.965 265.824 131.965 265.824C131.965 265.824 131.965 265.824 131.965 265.824C131.965 265.824 131.965 265.824 131.965 265.824C131.965 265.824 131.965 265.824 131.965 265.824C131.965 265.824 131.965 265.824 131.965 265.824C131.965 265.824 131.965 265.824 131.965 265.824C131.965 265.824 131.965 265.824 131.965 265.824C131.965 265.824 131.965 265.824 131.965 265.824C131.965 265.824 131.965 265.824 131.965 265.824C131.965 265.824 131.965 265.824 131.965 265.824C131.965 265.824 131.965 265.824 131.965 265.824C131.965 265.824 131.965 265.824 131.965 265.824C131.965 265.824 131.965 265.824 131.965 265.824C131.965 265.824 131.965 265.824 131.965 265.824C131.965 265.824 131.965 265.824 131.965 265.824C131.965 265.824 131.965 265.824 131.965 265.824C131.965 265.824 131.965 265.824 131.965 265.824C131.965 265.824 131.965 265.824 131.965 265.824C131.965 265.824 131.965 265.824 131.965 265.824C131.965 265.824 131.965 265.824 131.965 265.824C131.965 265.824 131.965 265.824 131.965 265.824C131.965 265.824 131.965 265.824 131.965 265.824C131.965 265.824 131.965 265.824 131.965 265.824C131.965 265.824 131.965 265.824 131.965 265.824C131.965 265.824 131.965 265.824 131.965 265.824C131.965 265.824 131.965 265.824 131.965 265.824C131.965 265.824 131.965 265.824 131.965 265.824C131.965 265.824 131.965 265.824 131.965 265.824C131.965 265.824 131.965 265.824 131.965 265.824C131.965 265.824 131.965 265.824 131.965 265.824C131.965 265.824 131.965 265.824 131.965 265.824C131.965 265.824 131.965 265.824 131.965 265.824C131.965 265.824 131.965 265.824 131.965 265.824C131.965 265.824 131.965 265.824 131.965 265.824C131.965 265.824 131.965 265.824 131.965 265.824C131.965 265.824 131.965 265.824 131.965 265.824C131.965 265.824 131.965 265.824 131.965 265.824C131.965 265.824 131.965 265.824 131.965 265.824C131.965 265.824 131.965 265.824 131.965 265.824C131.965 265.824 131.965 265.824 131.965 265.824C131.965 265.824 131.965 265.824 131.965 265.824C131.965 265.824 131.965 265.824 131.965 265.824C131.965 265.824 131.965 265.824 131.965 265.824C131.965 265.824 131.965 265.824 131.965 265.824C131.965 265.824 131.965 265.824 131.965 265.824C131.965 265.824 131.965 265.824 131.965 265.824C131.965 265.824 131.965 265.824 131.965 265.824C131.965 265.824 131.965 265.824 131.965 265.824C131.965 265.824 131.965 265.824 131.965 265.824C131.965 265.824 131.965 265.824 131.965 265.824C131.965 265.824 131.965 265.824 131.965 265.824C131.965 265.824 131.965 265.824 131.965 265.824C131.965 265.824 131.965 265.824 131.965 265.824C131.965 265.824 131.965 265.824 131.965 265.824C131.965 265.824 131.965 265.824 131.965 265.824C131.965 265.824 131.965 265.824 131.965 265.824C131.965 265.824 131.965 265.824 131.965 265.824C131.965 265.824 131.965 265.824 131.965 265.824C131.965 265.824 131.965 265.824 131.965 265.824C131.965 265.824 131.965 265.824 131.965 265.824C131.965 265.824 131.965 265.824 131.965 265.824C131.965 265.824 131.965 265.824 131.965 265.824C131.965 265.824 131.965 265.824 131.965 265.824C131.965 265.824 131.965 265.824 131.965 265.824C131.965 265.824 131.965 265.824 131.965 265.824C131.965 265.824 131.965 265.824 131.965 265.824C131.965 265.824 131.965 265.824 131.965 265.824C131.965 265.824 131.965 265.824 131.965 265.824C131.965 265.824 131.965 265.824 131.965 265.824C131.965 265.824 131.965 265.824 131.965 265.824C131.965 265.824 131.965 265.824 131.965 265.824C131.965 265.824 131.965 265.824 131.965 265.824C131.965 265.824 131.965 265.824 131.965 265.824C131.965 265.824 131.965 265.824 131.965 265.824C131.965 265.824 131.965 265.824 131.965 265.824C131.965 265.824 131.965 265.824 131.965 265.824C131.965 265.824 131.965 265.824 131.965 265.824C131.965 265.824 131.965 265.824 131.965 265.824C131.965 265.824 131.965 265.824 131.965 265.824C131.965 265.824 131.965 265.824 131.965 265.824C131.965 265.824 131.965 265.824 131.965 265.824C131.965 265.824 131.965 265.824 131.965 265.824C131.965 265.824 131.965 265.824 131.965 265.824C131.965 265.824 131.965 265.824 131.965 265.824C131.965 265.824 131.965 265.824 131.965 265.824C131.965 265.824 131.965 265.824 131.965 265.824C131.965 265.824 131.965 265.824 131.965 265.824C131.965 265.824 131.965 265.824 131.965 265.824C131.965 265.824 131.965 265.824 131.965 265.824C131.965 265.824 131.965 265.824 131.965 265.824C131.965 265.824 131.965 265.824 131.965 265.824C131.965 265.824 131.965 265.824 131.965 265.824C131.965 265.824 131.965 265.824 131.965 265.824C131.965 265.824 131.965 265.824 131.965 265.824C131.965 265.824 131.965 265.824 131.965 265.824C131.965 265.824 131.965 265.824 131.965 265.824C131.965 265.824 131.965 265.824 131.965 265.824C131.965 265.824 131.965 265.824 131.965 265.824C131.965 265.824 131.965 265.824 131.965 265.824C131.965 265.824 131.965 265.824 131.965 265.824C131.965 265.824 131.965 265.824 131.965 265.824C131.965 265.824 131.965 265.824 131.965 265.824C131.965 265.824 131.965 265.824 131.965 265.824C131.965 265.824 131.965 265.824 131.965 265.824C131.965 265.824 131.965 265.824 131.965 265.824C131.965 265.824 131.965 265.824 131.965 265.824C131.965 265.824 131.965 265.824 131.965 265.824C131.965 265.824 131.965 265.824 131.965 265.824C131.965 265.824 131.965 265.824 131.965 265.824C131.965 265.824 131.965 265.824 131.965 265.824C131.965 265.824 131.965 265.824 131.965 265.824C131.965 265.824 131.965 265.824 131.965 265.824C131.965 265.824 131.965 265.824 131.965 265.824C131.965 265.824 131.965 265.824 131.965 265.824C131.965 265.824 131.965 265.824 131.965 265.824C131.965 265.824 131.965 265.824 131.965 265.824C131.965 265.824 131.965 265.824 131.965 265.824C131.965 265.824 131.965 265.824 131.965 265.824C131.965 265.824 131.965 265.824 131.965 265.824C131.965 265.824 131.965 265.824 131.965 265.824C131.965 265.824 131.965 265.824 131.965 265.824C131.965 265.824 131.965 265.824 131.965 265.824C131.965 265.824 131.965 265.824 131.965 265.824C131.965 265.824 131.965 265.824 131.965 265.824C131.965 265.824 131.965 265.824 131.965 265.824C131.965 265.824 131.965 265.824 131.965 265.824C131.965 265.824 131.965 265.824 131.965 265.824C131.965 265.824 131.965 265.824 131.965 265.824C131.965 265.824 131.965 265.824 131.965 265.824C131.965 265.824 131.965 265.824 131.965 265.824C131.965 265.824 131.965 265.824 131.965 265.824C131.965 265.824 131.965 265.824 131.965 265.824C131.965 265.824 131.965 265.824 131.965 265.824C131.965 265.824 131.965 265.824 131.965 265.824C131.965 265.824 131.965 265.824 131.965 265.824C131.965 265.824 131.965 265.824 131.965 265.824C131.965 265.824 131.965 265.824 131.965 265.824C131.965 265.824 131.965 265.824 131.965 265.824C131.965 265.824 131.965 265.824 131.965 265.824C131.965 265.824 131.965 265.824 131.965 265.824C131.965 265.824 131.965 265.824 131.965 265.824C131.965 265.824 131.965 265.824 131.965 265.824H125.965ZM0 268.825H128.965V262.825H0L0 268.825ZM265.825 -3C117.357 -3 -3 117.357 -3 265.825H3C3 120.671 120.671 3 265.825 3V-3ZM534.65 265.825C534.65 117.357 414.293 -3 265.825 -3V3C410.979 3 528.65 120.671 528.65 265.825H534.65Z" fill="black" mask="url(#path-1-inside-1)"/>
</svg>
