<svg width="286" height="143" viewBox="0 0 286 143" fill="none" xmlns="http://www.w3.org/2000/svg">
<mask id="path-1-inside-1" fill="white">
<path fill-rule="evenodd" clip-rule="evenodd" d="M0 142.94C0.0002309 63.9962 63.9966 0 142.94 0C221.883 0 285.88 63.9962 285.88 142.94H216.533C216.533 142.939 216.533 142.939 216.533 142.939C216.533 102.295 183.584 69.3462 142.94 69.3462C102.296 69.3462 69.3473 102.295 69.3473 142.939C69.3473 142.939 69.3473 142.939 69.3473 142.94H0Z"/>
</mask>
<path d="M0 142.94L-3 142.94L-3.00001 145.94H0L0 142.94ZM285.88 142.94V145.94H288.88L288.88 142.94L285.88 142.94ZM216.533 142.94H213.533V145.94H216.533V142.94ZM69.3473 142.94V145.94H72.3473V142.94H69.3473ZM142.94 -3C62.3397 -3 -2.99976 62.3393 -3 142.94L3 142.94C3.00023 65.653 65.6534 3 142.94 3V-3ZM288.88 142.94C288.88 62.3393 223.54 -3 142.94 -3V3C220.227 3 282.88 65.653 282.88 142.94L288.88 142.94ZM216.533 145.94H285.88V139.94H216.533V145.94ZM219.533 142.94C219.533 142.94 219.533 142.94 219.533 142.94C219.533 142.94 219.533 142.94 219.533 142.94C219.533 142.94 219.533 142.94 219.533 142.94C219.533 142.94 219.533 142.94 219.533 142.94C219.533 142.94 219.533 142.94 219.533 142.94C219.533 142.94 219.533 142.94 219.533 142.94C219.533 142.94 219.533 142.94 219.533 142.94C219.533 142.94 219.533 142.94 219.533 142.94C219.533 142.94 219.533 142.94 219.533 142.94C219.533 142.94 219.533 142.94 219.533 142.94C219.533 142.94 219.533 142.94 219.533 142.94C219.533 142.94 219.533 142.94 219.533 142.94C219.533 142.94 219.533 142.94 219.533 142.94C219.533 142.94 219.533 142.94 219.533 142.94C219.533 142.94 219.533 142.94 219.533 142.94C219.533 142.94 219.533 142.94 219.533 142.94C219.533 142.94 219.533 142.94 219.533 142.94C219.533 142.94 219.533 142.94 219.533 142.94C219.533 142.94 219.533 142.94 219.533 142.94C219.533 142.94 219.533 142.94 219.533 142.94C219.533 142.94 219.533 142.94 219.533 142.94C219.533 142.94 219.533 142.94 219.533 142.94C219.533 142.94 219.533 142.94 219.533 142.94C219.533 142.94 219.533 142.94 219.533 142.94C219.533 142.94 219.533 142.94 219.533 142.94C219.533 142.94 219.533 142.94 219.533 142.94C219.533 142.94 219.533 142.94 219.533 142.94C219.533 142.94 219.533 142.94 219.533 142.94C219.533 142.94 219.533 142.94 219.533 142.94C219.533 142.94 219.533 142.94 219.533 142.94C219.533 142.94 219.533 142.94 219.533 142.94C219.533 142.94 219.533 142.94 219.533 142.94C219.533 142.94 219.533 142.94 219.533 142.94C219.533 142.94 219.533 142.94 219.533 142.94C219.533 142.94 219.533 142.94 219.533 142.94C219.533 142.94 219.533 142.94 219.533 142.94C219.533 142.94 219.533 142.94 219.533 142.94C219.533 142.94 219.533 142.94 219.533 142.94C219.533 142.94 219.533 142.94 219.533 142.94C219.533 142.94 219.533 142.94 219.533 142.94C219.533 142.94 219.533 142.94 219.533 142.94C219.533 142.94 219.533 142.94 219.533 142.94C219.533 142.94 219.533 142.94 219.533 142.94C219.533 142.94 219.533 142.94 219.533 142.94C219.533 142.94 219.533 142.94 219.533 142.94C219.533 142.94 219.533 142.94 219.533 142.94C219.533 142.94 219.533 142.94 219.533 142.94C219.533 142.94 219.533 142.94 219.533 142.94C219.533 142.94 219.533 142.94 219.533 142.94C219.533 142.94 219.533 142.94 219.533 142.94C219.533 142.94 219.533 142.94 219.533 142.94C219.533 142.94 219.533 142.94 219.533 142.94C219.533 142.94 219.533 142.94 219.533 142.94C219.533 142.94 219.533 142.94 219.533 142.94C219.533 142.94 219.533 142.94 219.533 142.94C219.533 142.94 219.533 142.94 219.533 142.94C219.533 142.94 219.533 142.94 219.533 142.94C219.533 142.94 219.533 142.94 219.533 142.94C219.533 142.94 219.533 142.94 219.533 142.94C219.533 142.94 219.533 142.94 219.533 142.94C219.533 142.94 219.533 142.94 219.533 142.94C219.533 142.94 219.533 142.94 219.533 142.94C219.533 142.94 219.533 142.94 219.533 142.94C219.533 142.94 219.533 142.94 219.533 142.94C219.533 142.94 219.533 142.94 219.533 142.94C219.533 142.94 219.533 142.94 219.533 142.94C219.533 142.94 219.533 142.94 219.533 142.94C219.533 142.94 219.533 142.94 219.533 142.94C219.533 142.94 219.533 142.94 219.533 142.94C219.533 142.94 219.533 142.94 219.533 142.94C219.533 142.94 219.533 142.94 219.533 142.94C219.533 142.94 219.533 142.94 219.533 142.94C219.533 142.94 219.533 142.94 219.533 142.94C219.533 142.94 219.533 142.94 219.533 142.94C219.533 142.94 219.533 142.94 219.533 142.94C219.533 142.94 219.533 142.94 219.533 142.94C219.533 142.94 219.533 142.939 219.533 142.939C219.533 142.939 219.533 142.939 219.533 142.939C219.533 142.939 219.533 142.939 219.533 142.939C219.533 142.939 219.533 142.939 219.533 142.939C219.533 142.939 219.533 142.939 219.533 142.939C219.533 142.939 219.533 142.939 219.533 142.939C219.533 142.939 219.533 142.939 219.533 142.939C219.533 142.939 219.533 142.939 219.533 142.939C219.533 142.939 219.533 142.939 219.533 142.939C219.533 142.939 219.533 142.939 219.533 142.939C219.533 142.939 219.533 142.939 219.533 142.939C219.533 142.939 219.533 142.939 219.533 142.939C219.533 142.939 219.533 142.939 219.533 142.939C219.533 142.939 219.533 142.939 219.533 142.939C219.533 142.939 219.533 142.939 219.533 142.939C219.533 142.939 219.533 142.939 219.533 142.939C219.533 142.939 219.533 142.939 219.533 142.939C219.533 142.939 219.533 142.939 219.533 142.939C219.533 142.939 219.533 142.939 219.533 142.939C219.533 142.939 219.533 142.939 219.533 142.939C219.533 142.939 219.533 142.939 219.533 142.939C219.533 142.939 219.533 142.939 219.533 142.939C219.533 142.939 219.533 142.939 219.533 142.939C219.533 142.939 219.533 142.939 219.533 142.939C219.533 142.939 219.533 142.939 219.533 142.939C219.533 142.939 219.533 142.939 219.533 142.939C219.533 142.939 219.533 142.939 219.533 142.939C219.533 142.939 219.533 142.939 219.533 142.939C219.533 142.939 219.533 142.939 219.533 142.939C219.533 142.939 219.533 142.939 219.533 142.939C219.533 142.939 219.533 142.939 219.533 142.939C219.533 142.939 219.533 142.939 219.533 142.939C219.533 142.939 219.533 142.939 219.533 142.939C219.533 142.939 219.533 142.939 219.533 142.939C219.533 142.939 219.533 142.939 219.533 142.939C219.533 142.939 219.533 142.939 219.533 142.939C219.533 142.939 219.533 142.939 219.533 142.939C219.533 142.939 219.533 142.939 219.533 142.939C219.533 142.939 219.533 142.939 219.533 142.939C219.533 142.939 219.533 142.939 219.533 142.939C219.533 142.939 219.533 142.939 219.533 142.939C219.533 142.939 219.533 142.939 219.533 142.939C219.533 142.939 219.533 142.939 219.533 142.939C219.533 142.939 219.533 142.939 219.533 142.939C219.533 142.939 219.533 142.939 219.533 142.939C219.533 142.939 219.533 142.939 219.533 142.939C219.533 142.939 219.533 142.939 219.533 142.939C219.533 142.939 219.533 142.939 219.533 142.939C219.533 142.939 219.533 142.939 219.533 142.939C219.533 142.939 219.533 142.939 219.533 142.939C219.533 142.939 219.533 142.939 219.533 142.939C219.533 142.939 219.533 142.939 219.533 142.939C219.533 142.939 219.533 142.939 219.533 142.939C219.533 142.939 219.533 142.939 219.533 142.939C219.533 142.939 219.533 142.939 219.533 142.939C219.533 142.939 219.533 142.939 219.533 142.939C219.533 142.939 219.533 142.939 219.533 142.939C219.533 142.939 219.533 142.939 219.533 142.939C219.533 142.939 219.533 142.939 219.533 142.939C219.533 142.939 219.533 142.939 219.533 142.939C219.533 142.939 219.533 142.939 219.533 142.939C219.533 142.939 219.533 142.939 219.533 142.939C219.533 142.939 219.533 142.939 219.533 142.939C219.533 142.939 219.533 142.939 219.533 142.939C219.533 142.939 219.533 142.939 219.533 142.939C219.533 142.939 219.533 142.939 219.533 142.939C219.533 142.939 219.533 142.939 219.533 142.939C219.533 142.939 219.533 142.939 219.533 142.939C219.533 142.939 219.533 142.939 219.533 142.939C219.533 142.939 219.533 142.939 219.533 142.939C219.533 142.939 219.533 142.939 219.533 142.939C219.533 142.939 219.533 142.939 219.533 142.939C219.533 142.939 219.533 142.939 219.533 142.939C219.533 142.939 219.533 142.939 219.533 142.939C219.533 142.939 219.533 142.939 219.533 142.939C219.533 142.939 219.533 142.939 219.533 142.939C219.533 142.939 219.533 142.939 219.533 142.939C219.533 142.939 219.533 142.939 219.533 142.939C219.533 142.939 219.533 142.939 219.533 142.939C219.533 142.939 219.533 142.939 219.533 142.939C219.533 142.939 219.533 142.939 219.533 142.939C219.533 142.939 219.533 142.939 219.533 142.939C219.533 142.939 219.533 142.939 219.533 142.939C219.533 142.939 219.533 142.939 219.533 142.939C219.533 142.939 219.533 142.939 219.533 142.939C219.533 142.939 219.533 142.939 219.533 142.939C219.533 142.939 219.533 142.939 219.533 142.939C219.533 142.939 219.533 142.939 219.533 142.939C219.533 142.939 219.533 142.939 219.533 142.939C219.533 142.939 219.533 142.939 219.533 142.939C219.533 142.939 219.533 142.939 219.533 142.939C219.533 142.939 219.533 142.939 219.533 142.939C219.533 142.939 219.533 142.939 219.533 142.939C219.533 142.939 219.533 142.939 219.533 142.939C219.533 142.939 219.533 142.939 219.533 142.939C219.533 142.939 219.533 142.939 219.533 142.939C219.533 142.939 219.533 142.939 219.533 142.939C219.533 142.939 219.533 142.939 219.533 142.939C219.533 142.939 219.533 142.939 219.533 142.939C219.533 142.939 219.533 142.939 219.533 142.939C219.533 142.939 219.533 142.939 219.533 142.939C219.533 142.939 219.533 142.939 219.533 142.939C219.533 142.939 219.533 142.939 219.533 142.939C219.533 142.939 219.533 142.939 219.533 142.939C219.533 142.939 219.533 142.939 219.533 142.939C219.533 142.939 219.533 142.939 219.533 142.939C219.533 142.939 219.533 142.939 219.533 142.939C219.533 142.939 219.533 142.939 219.533 142.939C219.533 142.939 219.533 142.939 219.533 142.939C219.533 142.939 219.533 142.939 219.533 142.939C219.533 142.939 219.533 142.939 219.533 142.939C219.533 142.939 219.533 142.939 219.533 142.939C219.533 142.939 219.533 142.939 219.533 142.939C219.533 142.939 219.533 142.939 219.533 142.939C219.533 142.939 219.533 142.939 219.533 142.939C219.533 142.939 219.533 142.939 219.533 142.939C219.533 142.939 219.533 142.939 219.533 142.939C219.533 142.939 219.533 142.939 219.533 142.939C219.533 142.939 219.533 142.939 219.533 142.939C219.533 142.939 219.533 142.939 219.533 142.939C219.533 142.939 219.533 142.939 219.533 142.939C219.533 142.939 219.533 142.939 219.533 142.939C219.533 142.939 219.533 142.939 219.533 142.939C219.533 142.939 219.533 142.939 219.533 142.939C219.533 142.939 219.533 142.939 219.533 142.939C219.533 142.939 219.533 142.939 219.533 142.939C219.533 142.939 219.533 142.939 219.533 142.939C219.533 142.939 219.533 142.939 219.533 142.939C219.533 142.939 219.533 142.939 219.533 142.939C219.533 142.939 219.533 142.939 219.533 142.939C219.533 142.939 219.533 142.939 219.533 142.939C219.533 142.939 219.533 142.939 219.533 142.939C219.533 142.939 219.533 142.939 219.533 142.939C219.533 142.939 219.533 142.939 219.533 142.939C219.533 142.939 219.533 142.939 219.533 142.939C219.533 142.939 219.533 142.939 219.533 142.939C219.533 142.939 219.533 142.939 219.533 142.939C219.533 142.939 219.533 142.939 219.533 142.939C219.533 142.939 219.533 142.939 219.533 142.939C219.533 142.939 219.533 142.939 219.533 142.939C219.533 142.939 219.533 142.939 219.533 142.939C219.533 142.939 219.533 142.939 219.533 142.939C219.533 142.939 219.533 142.939 219.533 142.939C219.533 142.939 219.533 142.939 219.533 142.939C219.533 142.939 219.533 142.939 219.533 142.939C219.533 142.939 219.533 142.939 219.533 142.939C219.533 142.939 219.533 142.939 219.533 142.939C219.533 142.939 219.533 142.939 219.533 142.939C219.533 142.939 219.533 142.939 219.533 142.939C219.533 142.939 219.533 142.939 219.533 142.939C219.533 142.939 219.533 142.939 219.533 142.939C219.533 142.939 219.533 142.939 219.533 142.939C219.533 142.939 219.533 142.939 219.533 142.939C219.533 142.939 219.533 142.939 219.533 142.939C219.533 142.939 219.533 142.939 219.533 142.939C219.533 142.939 219.533 142.939 219.533 142.939C219.533 142.939 219.533 142.939 219.533 142.939C219.533 142.939 219.533 142.939 219.533 142.939C219.533 142.939 219.533 142.939 219.533 142.939C219.533 142.939 219.533 142.939 219.533 142.939C219.533 142.939 219.533 142.939 219.533 142.939C219.533 142.939 219.533 142.939 219.533 142.939C219.533 142.939 219.533 142.939 219.533 142.939C219.533 142.939 219.533 142.939 219.533 142.939C219.533 142.939 219.533 142.939 219.533 142.939C219.533 142.939 219.533 142.939 219.533 142.939C219.533 142.939 219.533 142.939 219.533 142.939C219.533 142.939 219.533 142.939 219.533 142.939C219.533 142.939 219.533 142.939 219.533 142.939C219.533 142.939 219.533 142.939 219.533 142.939C219.533 142.939 219.533 142.939 219.533 142.939C219.533 142.939 219.533 142.939 219.533 142.939C219.533 142.939 219.533 142.939 219.533 142.939C219.533 142.939 219.533 142.939 219.533 142.939C219.533 142.939 219.533 142.939 219.533 142.939C219.533 142.939 219.533 142.939 219.533 142.939C219.533 142.939 219.533 142.939 219.533 142.939C219.533 142.939 219.533 142.939 219.533 142.939C219.533 142.939 219.533 142.939 219.533 142.939C219.533 142.939 219.533 142.939 219.533 142.939C219.533 142.939 219.533 142.939 219.533 142.939C219.533 142.939 219.533 142.939 219.533 142.939C219.533 142.939 219.533 142.939 219.533 142.939C219.533 142.939 219.533 142.939 219.533 142.939C219.533 142.939 219.533 142.939 219.533 142.939C219.533 142.939 219.533 142.939 219.533 142.939C219.533 142.939 219.533 142.939 219.533 142.939C219.533 142.939 219.533 142.939 219.533 142.939C219.533 142.939 219.533 142.939 219.533 142.939C219.533 142.939 219.533 142.939 219.533 142.939C219.533 142.939 219.533 142.939 219.533 142.939C219.533 142.939 219.533 142.939 219.533 142.939C219.533 142.939 219.533 142.939 219.533 142.939C219.533 142.939 219.533 142.939 219.533 142.939C219.533 142.939 219.533 142.939 219.533 142.939C219.533 142.939 219.533 142.939 219.533 142.939C219.533 142.939 219.533 142.939 219.533 142.939C219.533 142.939 219.533 142.939 219.533 142.939C219.533 142.939 219.533 142.939 219.533 142.939C219.533 142.939 219.533 142.939 219.533 142.939C219.533 142.939 219.533 142.939 219.533 142.939C219.533 142.939 219.533 142.939 219.533 142.939C219.533 142.939 219.533 142.939 219.533 142.939C219.533 142.939 219.533 142.939 219.533 142.939C219.533 142.939 219.533 142.939 219.533 142.939C219.533 142.939 219.533 142.939 219.533 142.939C219.533 142.939 219.533 142.939 219.533 142.939C219.533 142.939 219.533 142.939 219.533 142.939C219.533 142.939 219.533 142.939 219.533 142.939C219.533 142.939 219.533 142.939 219.533 142.939C219.533 142.939 219.533 142.939 219.533 142.939C219.533 142.939 219.533 142.939 219.533 142.939C219.533 142.939 219.533 142.939 219.533 142.939C219.533 142.939 219.533 142.939 219.533 142.939C219.533 142.939 219.533 142.939 219.533 142.939C219.533 142.939 219.533 142.939 219.533 142.939C219.533 142.939 219.533 142.939 219.533 142.939C219.533 142.939 219.533 142.939 219.533 142.939C219.533 142.939 219.533 142.939 219.533 142.939C219.533 142.939 219.533 142.939 219.533 142.939C219.533 142.939 219.533 142.939 219.533 142.939C219.533 142.939 219.533 142.939 219.533 142.939C219.533 142.939 219.533 142.939 219.533 142.939C219.533 142.939 219.533 142.939 219.533 142.939C219.533 142.939 219.533 142.939 219.533 142.939C219.533 142.939 219.533 142.939 219.533 142.939C219.533 142.939 219.533 142.939 219.533 142.939C219.533 142.939 219.533 142.939 219.533 142.939C219.533 142.939 219.533 142.939 219.533 142.939C219.533 142.939 219.533 142.939 219.533 142.939C219.533 142.939 219.533 142.939 219.533 142.939C219.533 142.939 219.533 142.939 219.533 142.939C219.533 142.939 219.533 142.939 219.533 142.939C219.533 142.939 219.533 142.939 219.533 142.939C219.533 142.939 219.533 142.939 219.533 142.939C219.533 142.939 219.533 142.939 219.533 142.939C219.533 142.939 219.533 142.939 219.533 142.939C219.533 142.939 219.533 142.939 219.533 142.939C219.533 142.939 219.533 142.939 219.533 142.939C219.533 142.939 219.533 142.939 219.533 142.939C219.533 142.939 219.533 142.939 219.533 142.939C219.533 142.939 219.533 142.939 219.533 142.939C219.533 142.939 219.533 142.939 219.533 142.939C219.533 142.939 219.533 142.939 219.533 142.939C219.533 142.939 219.533 142.939 219.533 142.939C219.533 142.939 219.533 142.939 219.533 142.939C219.533 142.939 219.533 142.939 219.533 142.939C219.533 142.939 219.533 142.939 219.533 142.939C219.533 142.939 219.533 142.939 219.533 142.939C219.533 142.939 219.533 142.939 219.533 142.939C219.533 142.939 219.533 142.939 219.533 142.939C219.533 142.939 219.533 142.939 219.533 142.939C219.533 142.939 219.533 142.939 219.533 142.939C219.533 142.939 219.533 142.939 219.533 142.939C219.533 142.939 219.533 142.939 219.533 142.939C219.533 142.939 219.533 142.939 219.533 142.939C219.533 142.939 219.533 142.939 219.533 142.939C219.533 142.939 219.533 142.939 219.533 142.939C219.533 142.939 219.533 142.939 219.533 142.939C219.533 142.939 219.533 142.939 219.533 142.939C219.533 142.939 219.533 142.939 219.533 142.939C219.533 142.939 219.533 142.939 219.533 142.939C219.533 142.939 219.533 142.939 219.533 142.939C219.533 142.939 219.533 142.939 219.533 142.939C219.533 142.939 219.533 142.939 219.533 142.939C219.533 142.939 219.533 142.939 219.533 142.939C219.533 142.939 219.533 142.939 219.533 142.939C219.533 142.939 219.533 142.939 219.533 142.939C219.533 142.939 219.533 142.939 219.533 142.939C219.533 142.939 219.533 142.939 219.533 142.939C219.533 142.939 219.533 142.939 219.533 142.939C219.533 142.939 219.533 142.939 219.533 142.939C219.533 142.939 219.533 142.939 219.533 142.939C219.533 142.939 219.533 142.939 219.533 142.939C219.533 142.939 219.533 142.939 219.533 142.939C219.533 142.939 219.533 142.939 219.533 142.939C219.533 142.939 219.533 142.939 219.533 142.939C219.533 142.939 219.533 142.939 219.533 142.939C219.533 142.939 219.533 142.939 219.533 142.939C219.533 142.939 219.533 142.939 219.533 142.939C219.533 142.939 219.533 142.939 219.533 142.939C219.533 142.939 219.533 142.939 219.533 142.939C219.533 142.939 219.533 142.939 219.533 142.939C219.533 142.939 219.533 142.939 219.533 142.939C219.533 142.939 219.533 142.939 219.533 142.939C219.533 142.939 219.533 142.939 219.533 142.939C219.533 142.939 219.533 142.939 219.533 142.939C219.533 142.939 219.533 142.939 219.533 142.939C219.533 142.939 219.533 142.939 219.533 142.939C219.533 142.939 219.533 142.939 219.533 142.939C219.533 142.939 219.533 142.939 219.533 142.939C219.533 142.939 219.533 142.939 219.533 142.939C219.533 142.939 219.533 142.939 219.533 142.939C219.533 142.939 219.533 142.939 219.533 142.939C219.533 142.939 219.533 142.939 219.533 142.939C219.533 142.939 219.533 142.939 219.533 142.939C219.533 142.939 219.533 142.939 219.533 142.939C219.533 142.939 219.533 142.939 219.533 142.939C219.533 142.939 219.533 142.939 219.533 142.939C219.533 142.939 219.533 142.939 219.533 142.939C219.533 142.939 219.533 142.939 219.533 142.939C219.533 142.939 219.533 142.939 219.533 142.939C219.533 142.939 219.533 142.939 219.533 142.939C219.533 142.939 219.533 142.939 219.533 142.939C219.533 142.939 219.533 142.939 219.533 142.939C219.533 142.939 219.533 142.939 219.533 142.939C219.533 142.939 219.533 142.939 219.533 142.939C219.533 142.939 219.533 142.939 219.533 142.939C219.533 142.939 219.533 142.939 219.533 142.939C219.533 142.939 219.533 142.939 219.533 142.939C219.533 142.939 219.533 142.939 219.533 142.939C219.533 142.939 219.533 142.939 219.533 142.939C219.533 142.939 219.533 142.939 219.533 142.939C219.533 142.939 219.533 142.939 219.533 142.939C219.533 142.939 219.533 142.939 219.533 142.939C219.533 142.939 219.533 142.939 219.533 142.939C219.533 142.939 219.533 142.939 219.533 142.939C219.533 142.939 219.533 142.939 219.533 142.939C219.533 142.939 219.533 142.939 219.533 142.939C219.533 142.939 219.533 142.939 219.533 142.939C219.533 142.939 219.533 142.939 219.533 142.939C219.533 142.939 219.533 142.939 219.533 142.939C219.533 142.939 219.533 142.939 219.533 142.939C219.533 142.939 219.533 142.939 219.533 142.939C219.533 142.939 219.533 142.939 219.533 142.939C219.533 142.939 219.533 142.939 219.533 142.939C219.533 142.939 219.533 142.939 219.533 142.939C219.533 142.939 219.533 142.939 219.533 142.939C219.533 142.939 219.533 142.939 219.533 142.939C219.533 142.939 219.533 142.939 219.533 142.939C219.533 142.939 219.533 142.939 219.533 142.939C219.533 142.939 219.533 142.939 219.533 142.939C219.533 142.939 219.533 142.939 219.533 142.939C219.533 142.939 219.533 142.939 219.533 142.939C219.533 142.939 219.533 142.939 219.533 142.939C219.533 142.939 219.533 142.939 219.533 142.939C219.533 142.939 219.533 142.939 219.533 142.939C219.533 142.939 219.533 142.939 219.533 142.939C219.533 142.939 219.533 142.939 219.533 142.939C219.533 142.939 219.533 142.939 219.533 142.939C219.533 142.939 219.533 142.939 219.533 142.939C219.533 142.939 219.533 142.939 219.533 142.939C219.533 142.939 219.533 142.939 219.533 142.939C219.533 142.939 219.533 142.939 219.533 142.939C219.533 142.939 219.533 142.939 219.533 142.939C219.533 142.939 219.533 142.939 219.533 142.939C219.533 142.939 219.533 142.939 219.533 142.939C219.533 142.939 219.533 142.939 219.533 142.939C219.533 142.939 219.533 142.939 219.533 142.939C219.533 142.939 219.533 142.939 219.533 142.939C219.533 142.939 219.533 142.939 219.533 142.939C219.533 142.939 219.533 142.939 219.533 142.939C219.533 142.939 219.533 142.939 219.533 142.939C219.533 142.939 219.533 142.939 219.533 142.939C219.533 142.939 219.533 142.939 219.533 142.939C219.533 142.939 219.533 142.939 219.533 142.939C219.533 142.939 219.533 142.939 219.533 142.939C219.533 142.939 219.533 142.939 219.533 142.939C219.533 142.939 219.533 142.939 219.533 142.939C219.533 142.939 219.533 142.939 219.533 142.939C219.533 142.939 219.533 142.939 219.533 142.939C219.533 142.939 219.533 142.939 219.533 142.939C219.533 142.939 219.533 142.939 219.533 142.939C219.533 142.939 219.533 142.939 219.533 142.939C219.533 142.939 219.533 142.939 219.533 142.939C219.533 142.939 219.533 142.939 219.533 142.939C219.533 142.939 219.533 142.939 219.533 142.939C219.533 142.939 219.533 142.939 219.533 142.939C219.533 142.939 219.533 142.939 219.533 142.939C219.533 142.939 219.533 142.939 219.533 142.939C219.533 142.939 219.533 142.939 219.533 142.939C219.533 142.939 219.533 142.939 219.533 142.939C219.533 142.939 219.533 142.939 219.533 142.939C219.533 142.939 219.533 142.939 219.533 142.939C219.533 142.939 219.533 142.939 219.533 142.939C219.533 142.939 219.533 142.939 219.533 142.939C219.533 142.939 219.533 142.939 219.533 142.939C219.533 142.939 219.533 142.939 219.533 142.939C219.533 142.939 219.533 142.939 219.533 142.939C219.533 142.939 219.533 142.939 219.533 142.939C219.533 142.939 219.533 142.939 219.533 142.939C219.533 142.939 219.533 142.939 219.533 142.939C219.533 142.939 219.533 142.939 219.533 142.939C219.533 142.939 219.533 142.939 219.533 142.939C219.533 142.939 219.533 142.939 219.533 142.939C219.533 142.939 219.533 142.939 219.533 142.939C219.533 142.939 219.533 142.939 219.533 142.939C219.533 142.939 219.533 142.939 219.533 142.939C219.533 142.939 219.533 142.939 219.533 142.939C219.533 142.939 219.533 142.939 219.533 142.939C219.533 142.939 219.533 142.939 219.533 142.939C219.533 142.939 219.533 142.939 219.533 142.939C219.533 142.939 219.533 142.939 219.533 142.939C219.533 142.939 219.533 142.939 219.533 142.939C219.533 142.939 219.533 142.939 219.533 142.939C219.533 142.939 219.533 142.939 219.533 142.939C219.533 142.939 219.533 142.939 219.533 142.939C219.533 142.939 219.533 142.939 219.533 142.939C219.533 142.939 219.533 142.939 219.533 142.939C219.533 142.939 219.533 142.939 219.533 142.939C219.533 142.939 219.533 142.939 219.533 142.939C219.533 142.939 219.533 142.939 219.533 142.939C219.533 142.939 219.533 142.939 219.533 142.939C219.533 142.939 219.533 142.939 219.533 142.939C219.533 142.939 219.533 142.939 219.533 142.939C219.533 142.939 219.533 142.939 219.533 142.939C219.533 142.939 219.533 142.939 219.533 142.939C219.533 142.939 219.533 142.939 219.533 142.939C219.533 142.939 219.533 142.939 219.533 142.939C219.533 142.939 219.533 142.939 219.533 142.939C219.533 142.939 219.533 142.939 219.533 142.939C219.533 142.939 219.533 142.939 219.533 142.939C219.533 142.939 219.533 142.939 219.533 142.939C219.533 142.939 219.533 142.939 219.533 142.939C219.533 142.939 219.533 142.939 219.533 142.939C219.533 142.939 219.533 142.939 219.533 142.939C219.533 142.939 219.533 142.939 219.533 142.939C219.533 142.939 219.533 142.939 219.533 142.939C219.533 142.939 219.533 142.939 219.533 142.939C219.533 142.939 219.533 142.939 219.533 142.939C219.533 142.939 219.533 142.939 219.533 142.939C219.533 142.939 219.533 142.939 219.533 142.939C219.533 142.939 219.533 142.939 219.533 142.939C219.533 142.939 219.533 142.939 219.533 142.939C219.533 142.939 219.533 142.939 219.533 142.939C219.533 142.939 219.533 142.939 219.533 142.939C219.533 142.939 219.533 142.939 219.533 142.939C219.533 142.939 219.533 142.939 219.533 142.939C219.533 142.939 219.533 142.939 219.533 142.939C219.533 142.939 219.533 142.939 219.533 142.939C219.533 142.939 219.533 142.939 219.533 142.939C219.533 142.939 219.533 142.939 219.533 142.939C219.533 142.939 219.533 142.939 219.533 142.939C219.533 142.939 219.533 142.939 219.533 142.939C219.533 142.939 219.533 142.939 219.533 142.939C219.533 142.939 219.533 142.939 219.533 142.939H213.533C213.533 142.939 213.533 142.939 213.533 142.939C213.533 142.939 213.533 142.939 213.533 142.939C213.533 142.939 213.533 142.939 213.533 142.939C213.533 142.939 213.533 142.939 213.533 142.939C213.533 142.939 213.533 142.939 213.533 142.939C213.533 142.939 213.533 142.939 213.533 142.939C213.533 142.939 213.533 142.939 213.533 142.939C213.533 142.939 213.533 142.939 213.533 142.939C213.533 142.939 213.533 142.939 213.533 142.939C213.533 142.939 213.533 142.939 213.533 142.939C213.533 142.939 213.533 142.939 213.533 142.939C213.533 142.939 213.533 142.939 213.533 142.939C213.533 142.939 213.533 142.939 213.533 142.939C213.533 142.939 213.533 142.939 213.533 142.939C213.533 142.939 213.533 142.939 213.533 142.939C213.533 142.939 213.533 142.939 213.533 142.939C213.533 142.939 213.533 142.939 213.533 142.939C213.533 142.939 213.533 142.939 213.533 142.939C213.533 142.939 213.533 142.939 213.533 142.939C213.533 142.939 213.533 142.939 213.533 142.939C213.533 142.939 213.533 142.939 213.533 142.939C213.533 142.939 213.533 142.939 213.533 142.939C213.533 142.939 213.533 142.939 213.533 142.939C213.533 142.939 213.533 142.939 213.533 142.939C213.533 142.939 213.533 142.939 213.533 142.939C213.533 142.939 213.533 142.939 213.533 142.939C213.533 142.939 213.533 142.939 213.533 142.939C213.533 142.939 213.533 142.939 213.533 142.939C213.533 142.939 213.533 142.939 213.533 142.939C213.533 142.939 213.533 142.939 213.533 142.939C213.533 142.939 213.533 142.939 213.533 142.939C213.533 142.939 213.533 142.939 213.533 142.939C213.533 142.939 213.533 142.939 213.533 142.939C213.533 142.939 213.533 142.939 213.533 142.939C213.533 142.939 213.533 142.939 213.533 142.939C213.533 142.939 213.533 142.939 213.533 142.939C213.533 142.939 213.533 142.939 213.533 142.939C213.533 142.939 213.533 142.939 213.533 142.939C213.533 142.939 213.533 142.939 213.533 142.939C213.533 142.939 213.533 142.939 213.533 142.939C213.533 142.939 213.533 142.939 213.533 142.939C213.533 142.939 213.533 142.939 213.533 142.939C213.533 142.939 213.533 142.939 213.533 142.939C213.533 142.939 213.533 142.939 213.533 142.939C213.533 142.939 213.533 142.939 213.533 142.939C213.533 142.939 213.533 142.939 213.533 142.939C213.533 142.939 213.533 142.939 213.533 142.939C213.533 142.939 213.533 142.939 213.533 142.939C213.533 142.939 213.533 142.939 213.533 142.939C213.533 142.939 213.533 142.939 213.533 142.939C213.533 142.939 213.533 142.939 213.533 142.939C213.533 142.939 213.533 142.939 213.533 142.939C213.533 142.939 213.533 142.939 213.533 142.939C213.533 142.939 213.533 142.939 213.533 142.939C213.533 142.939 213.533 142.939 213.533 142.939C213.533 142.939 213.533 142.939 213.533 142.939C213.533 142.939 213.533 142.939 213.533 142.939C213.533 142.939 213.533 142.939 213.533 142.939C213.533 142.939 213.533 142.939 213.533 142.939C213.533 142.939 213.533 142.939 213.533 142.939C213.533 142.939 213.533 142.939 213.533 142.939C213.533 142.939 213.533 142.939 213.533 142.939C213.533 142.939 213.533 142.939 213.533 142.939C213.533 142.939 213.533 142.939 213.533 142.939C213.533 142.939 213.533 142.939 213.533 142.939C213.533 142.939 213.533 142.939 213.533 142.939C213.533 142.939 213.533 142.939 213.533 142.939C213.533 142.939 213.533 142.939 213.533 142.939C213.533 142.939 213.533 142.939 213.533 142.939C213.533 142.939 213.533 142.939 213.533 142.939C213.533 142.939 213.533 142.939 213.533 142.939C213.533 142.939 213.533 142.939 213.533 142.939C213.533 142.939 213.533 142.939 213.533 142.939C213.533 142.939 213.533 142.939 213.533 142.939C213.533 142.939 213.533 142.939 213.533 142.939C213.533 142.939 213.533 142.939 213.533 142.939C213.533 142.939 213.533 142.939 213.533 142.939C213.533 142.939 213.533 142.939 213.533 142.939C213.533 142.939 213.533 142.939 213.533 142.939C213.533 142.939 213.533 142.939 213.533 142.939C213.533 142.939 213.533 142.939 213.533 142.939C213.533 142.939 213.533 142.939 213.533 142.939C213.533 142.939 213.533 142.939 213.533 142.939C213.533 142.939 213.533 142.939 213.533 142.939C213.533 142.939 213.533 142.939 213.533 142.939C213.533 142.939 213.533 142.939 213.533 142.939C213.533 142.939 213.533 142.939 213.533 142.939C213.533 142.939 213.533 142.939 213.533 142.939C213.533 142.939 213.533 142.939 213.533 142.939C213.533 142.939 213.533 142.939 213.533 142.939C213.533 142.939 213.533 142.939 213.533 142.939C213.533 142.939 213.533 142.939 213.533 142.939C213.533 142.939 213.533 142.939 213.533 142.939C213.533 142.939 213.533 142.939 213.533 142.939C213.533 142.939 213.533 142.939 213.533 142.939C213.533 142.939 213.533 142.939 213.533 142.939C213.533 142.939 213.533 142.939 213.533 142.939C213.533 142.939 213.533 142.939 213.533 142.939C213.533 142.939 213.533 142.939 213.533 142.939C213.533 142.939 213.533 142.939 213.533 142.939C213.533 142.939 213.533 142.939 213.533 142.939C213.533 142.939 213.533 142.939 213.533 142.939C213.533 142.939 213.533 142.939 213.533 142.939C213.533 142.939 213.533 142.939 213.533 142.939C213.533 142.939 213.533 142.939 213.533 142.939C213.533 142.939 213.533 142.939 213.533 142.939C213.533 142.939 213.533 142.939 213.533 142.939C213.533 142.939 213.533 142.939 213.533 142.939C213.533 142.939 213.533 142.939 213.533 142.939C213.533 142.939 213.533 142.939 213.533 142.939C213.533 142.939 213.533 142.939 213.533 142.939C213.533 142.939 213.533 142.939 213.533 142.939C213.533 142.939 213.533 142.939 213.533 142.939C213.533 142.939 213.533 142.939 213.533 142.939C213.533 142.939 213.533 142.939 213.533 142.939C213.533 142.939 213.533 142.939 213.533 142.939C213.533 142.939 213.533 142.939 213.533 142.939C213.533 142.939 213.533 142.939 213.533 142.939C213.533 142.939 213.533 142.939 213.533 142.939C213.533 142.939 213.533 142.939 213.533 142.939C213.533 142.939 213.533 142.939 213.533 142.939C213.533 142.939 213.533 142.939 213.533 142.939C213.533 142.939 213.533 142.939 213.533 142.939C213.533 142.939 213.533 142.939 213.533 142.939C213.533 142.939 213.533 142.939 213.533 142.939C213.533 142.939 213.533 142.939 213.533 142.939C213.533 142.939 213.533 142.939 213.533 142.939C213.533 142.939 213.533 142.939 213.533 142.939C213.533 142.939 213.533 142.939 213.533 142.939C213.533 142.939 213.533 142.939 213.533 142.939C213.533 142.939 213.533 142.939 213.533 142.939C213.533 142.939 213.533 142.939 213.533 142.939C213.533 142.939 213.533 142.939 213.533 142.939C213.533 142.939 213.533 142.939 213.533 142.939C213.533 142.939 213.533 142.939 213.533 142.939C213.533 142.939 213.533 142.939 213.533 142.939C213.533 142.939 213.533 142.939 213.533 142.939C213.533 142.939 213.533 142.939 213.533 142.939C213.533 142.939 213.533 142.939 213.533 142.939C213.533 142.939 213.533 142.939 213.533 142.939C213.533 142.939 213.533 142.939 213.533 142.939C213.533 142.939 213.533 142.939 213.533 142.939C213.533 142.939 213.533 142.939 213.533 142.939C213.533 142.939 213.533 142.939 213.533 142.939C213.533 142.939 213.533 142.939 213.533 142.939C213.533 142.939 213.533 142.939 213.533 142.939C213.533 142.939 213.533 142.939 213.533 142.939C213.533 142.939 213.533 142.939 213.533 142.939C213.533 142.939 213.533 142.939 213.533 142.939C213.533 142.939 213.533 142.939 213.533 142.939C213.533 142.939 213.533 142.939 213.533 142.939C213.533 142.939 213.533 142.939 213.533 142.939C213.533 142.939 213.533 142.939 213.533 142.939C213.533 142.939 213.533 142.939 213.533 142.939C213.533 142.939 213.533 142.939 213.533 142.939C213.533 142.939 213.533 142.939 213.533 142.939C213.533 142.939 213.533 142.939 213.533 142.939C213.533 142.939 213.533 142.939 213.533 142.939C213.533 142.939 213.533 142.939 213.533 142.939C213.533 142.939 213.533 142.939 213.533 142.939C213.533 142.939 213.533 142.939 213.533 142.939C213.533 142.939 213.533 142.939 213.533 142.939C213.533 142.939 213.533 142.939 213.533 142.939C213.533 142.939 213.533 142.939 213.533 142.939C213.533 142.939 213.533 142.939 213.533 142.939C213.533 142.939 213.533 142.939 213.533 142.939C213.533 142.939 213.533 142.939 213.533 142.939C213.533 142.939 213.533 142.939 213.533 142.939C213.533 142.939 213.533 142.939 213.533 142.939C213.533 142.939 213.533 142.939 213.533 142.939C213.533 142.939 213.533 142.939 213.533 142.939C213.533 142.939 213.533 142.939 213.533 142.939C213.533 142.939 213.533 142.939 213.533 142.939C213.533 142.939 213.533 142.939 213.533 142.939C213.533 142.939 213.533 142.939 213.533 142.939C213.533 142.939 213.533 142.939 213.533 142.939C213.533 142.939 213.533 142.939 213.533 142.939C213.533 142.939 213.533 142.939 213.533 142.939C213.533 142.939 213.533 142.939 213.533 142.939C213.533 142.939 213.533 142.939 213.533 142.939C213.533 142.939 213.533 142.939 213.533 142.939C213.533 142.939 213.533 142.939 213.533 142.939C213.533 142.939 213.533 142.939 213.533 142.939C213.533 142.939 213.533 142.939 213.533 142.939C213.533 142.939 213.533 142.939 213.533 142.939C213.533 142.939 213.533 142.939 213.533 142.939C213.533 142.939 213.533 142.939 213.533 142.939C213.533 142.939 213.533 142.939 213.533 142.939C213.533 142.939 213.533 142.939 213.533 142.939C213.533 142.939 213.533 142.939 213.533 142.939C213.533 142.939 213.533 142.939 213.533 142.939C213.533 142.939 213.533 142.939 213.533 142.939C213.533 142.939 213.533 142.939 213.533 142.939C213.533 142.939 213.533 142.939 213.533 142.939C213.533 142.939 213.533 142.939 213.533 142.939C213.533 142.939 213.533 142.939 213.533 142.939C213.533 142.939 213.533 142.939 213.533 142.939C213.533 142.939 213.533 142.939 213.533 142.939C213.533 142.939 213.533 142.939 213.533 142.939C213.533 142.939 213.533 142.939 213.533 142.939C213.533 142.939 213.533 142.939 213.533 142.939C213.533 142.939 213.533 142.939 213.533 142.939C213.533 142.939 213.533 142.939 213.533 142.939C213.533 142.939 213.533 142.939 213.533 142.939C213.533 142.939 213.533 142.939 213.533 142.939C213.533 142.939 213.533 142.939 213.533 142.939C213.533 142.939 213.533 142.939 213.533 142.939C213.533 142.939 213.533 142.939 213.533 142.939C213.533 142.939 213.533 142.939 213.533 142.939C213.533 142.939 213.533 142.939 213.533 142.939C213.533 142.939 213.533 142.939 213.533 142.939C213.533 142.939 213.533 142.939 213.533 142.939C213.533 142.939 213.533 142.939 213.533 142.939C213.533 142.939 213.533 142.939 213.533 142.939C213.533 142.939 213.533 142.939 213.533 142.939C213.533 142.939 213.533 142.939 213.533 142.939C213.533 142.939 213.533 142.939 213.533 142.939C213.533 142.939 213.533 142.939 213.533 142.939C213.533 142.939 213.533 142.939 213.533 142.939C213.533 142.939 213.533 142.939 213.533 142.939C213.533 142.939 213.533 142.939 213.533 142.939C213.533 142.939 213.533 142.939 213.533 142.939C213.533 142.939 213.533 142.939 213.533 142.939C213.533 142.939 213.533 142.939 213.533 142.939C213.533 142.939 213.533 142.939 213.533 142.939C213.533 142.939 213.533 142.939 213.533 142.939C213.533 142.939 213.533 142.939 213.533 142.939C213.533 142.939 213.533 142.939 213.533 142.939C213.533 142.939 213.533 142.939 213.533 142.939C213.533 142.939 213.533 142.939 213.533 142.939C213.533 142.939 213.533 142.939 213.533 142.939C213.533 142.939 213.533 142.939 213.533 142.939C213.533 142.939 213.533 142.939 213.533 142.939C213.533 142.939 213.533 142.939 213.533 142.939C213.533 142.939 213.533 142.939 213.533 142.939C213.533 142.939 213.533 142.939 213.533 142.939C213.533 142.939 213.533 142.939 213.533 142.939C213.533 142.939 213.533 142.939 213.533 142.939C213.533 142.939 213.533 142.939 213.533 142.939C213.533 142.939 213.533 142.939 213.533 142.939C213.533 142.939 213.533 142.939 213.533 142.939C213.533 142.939 213.533 142.939 213.533 142.939C213.533 142.939 213.533 142.939 213.533 142.939C213.533 142.939 213.533 142.939 213.533 142.939C213.533 142.939 213.533 142.939 213.533 142.939C213.533 142.939 213.533 142.939 213.533 142.939C213.533 142.939 213.533 142.939 213.533 142.939C213.533 142.939 213.533 142.939 213.533 142.939C213.533 142.939 213.533 142.939 213.533 142.939C213.533 142.939 213.533 142.939 213.533 142.939C213.533 142.939 213.533 142.939 213.533 142.939C213.533 142.939 213.533 142.939 213.533 142.939C213.533 142.939 213.533 142.939 213.533 142.939C213.533 142.939 213.533 142.939 213.533 142.939C213.533 142.939 213.533 142.939 213.533 142.939C213.533 142.939 213.533 142.939 213.533 142.939C213.533 142.939 213.533 142.939 213.533 142.939C213.533 142.939 213.533 142.939 213.533 142.939C213.533 142.939 213.533 142.939 213.533 142.939C213.533 142.939 213.533 142.939 213.533 142.939C213.533 142.939 213.533 142.939 213.533 142.939C213.533 142.939 213.533 142.939 213.533 142.939C213.533 142.939 213.533 142.939 213.533 142.939C213.533 142.939 213.533 142.939 213.533 142.939C213.533 142.939 213.533 142.939 213.533 142.939C213.533 142.939 213.533 142.939 213.533 142.939C213.533 142.939 213.533 142.939 213.533 142.939C213.533 142.939 213.533 142.939 213.533 142.939C213.533 142.939 213.533 142.939 213.533 142.939C213.533 142.939 213.533 142.939 213.533 142.939C213.533 142.939 213.533 142.939 213.533 142.939C213.533 142.939 213.533 142.939 213.533 142.939C213.533 142.939 213.533 142.939 213.533 142.939C213.533 142.939 213.533 142.939 213.533 142.939C213.533 142.939 213.533 142.939 213.533 142.939C213.533 142.939 213.533 142.939 213.533 142.939C213.533 142.939 213.533 142.939 213.533 142.939C213.533 142.939 213.533 142.939 213.533 142.939C213.533 142.939 213.533 142.939 213.533 142.939C213.533 142.939 213.533 142.939 213.533 142.939C213.533 142.939 213.533 142.939 213.533 142.939C213.533 142.939 213.533 142.939 213.533 142.939C213.533 142.939 213.533 142.939 213.533 142.939C213.533 142.939 213.533 142.939 213.533 142.939C213.533 142.939 213.533 142.939 213.533 142.939C213.533 142.939 213.533 142.939 213.533 142.939C213.533 142.939 213.533 142.939 213.533 142.939C213.533 142.939 213.533 142.939 213.533 142.939C213.533 142.939 213.533 142.939 213.533 142.939C213.533 142.939 213.533 142.939 213.533 142.939C213.533 142.939 213.533 142.939 213.533 142.939C213.533 142.939 213.533 142.939 213.533 142.939C213.533 142.939 213.533 142.939 213.533 142.939C213.533 142.939 213.533 142.939 213.533 142.939C213.533 142.939 213.533 142.939 213.533 142.939C213.533 142.939 213.533 142.939 213.533 142.939C213.533 142.939 213.533 142.939 213.533 142.939C213.533 142.939 213.533 142.939 213.533 142.939C213.533 142.939 213.533 142.939 213.533 142.939C213.533 142.939 213.533 142.939 213.533 142.939C213.533 142.939 213.533 142.939 213.533 142.939C213.533 142.939 213.533 142.939 213.533 142.939C213.533 142.939 213.533 142.939 213.533 142.939C213.533 142.939 213.533 142.939 213.533 142.939C213.533 142.939 213.533 142.939 213.533 142.939C213.533 142.939 213.533 142.939 213.533 142.939C213.533 142.939 213.533 142.939 213.533 142.939C213.533 142.939 213.533 142.939 213.533 142.939C213.533 142.939 213.533 142.939 213.533 142.939C213.533 142.939 213.533 142.939 213.533 142.939C213.533 142.939 213.533 142.939 213.533 142.939C213.533 142.939 213.533 142.939 213.533 142.939C213.533 142.939 213.533 142.939 213.533 142.939C213.533 142.939 213.533 142.939 213.533 142.939C213.533 142.939 213.533 142.939 213.533 142.939C213.533 142.939 213.533 142.939 213.533 142.939C213.533 142.939 213.533 142.939 213.533 142.939C213.533 142.939 213.533 142.939 213.533 142.939C213.533 142.939 213.533 142.939 213.533 142.939C213.533 142.939 213.533 142.939 213.533 142.939C213.533 142.939 213.533 142.939 213.533 142.939C213.533 142.939 213.533 142.939 213.533 142.939C213.533 142.939 213.533 142.939 213.533 142.939C213.533 142.939 213.533 142.939 213.533 142.939C213.533 142.939 213.533 142.939 213.533 142.939C213.533 142.939 213.533 142.939 213.533 142.939C213.533 142.939 213.533 142.939 213.533 142.939C213.533 142.939 213.533 142.939 213.533 142.939C213.533 142.939 213.533 142.939 213.533 142.939C213.533 142.939 213.533 142.939 213.533 142.939C213.533 142.939 213.533 142.939 213.533 142.939C213.533 142.939 213.533 142.939 213.533 142.939C213.533 142.939 213.533 142.939 213.533 142.939C213.533 142.939 213.533 142.939 213.533 142.939C213.533 142.939 213.533 142.939 213.533 142.939C213.533 142.939 213.533 142.939 213.533 142.939C213.533 142.939 213.533 142.939 213.533 142.939C213.533 142.939 213.533 142.939 213.533 142.939C213.533 142.939 213.533 142.939 213.533 142.939C213.533 142.939 213.533 142.939 213.533 142.939C213.533 142.939 213.533 142.939 213.533 142.939C213.533 142.939 213.533 142.939 213.533 142.939C213.533 142.939 213.533 142.939 213.533 142.939C213.533 142.939 213.533 142.939 213.533 142.939C213.533 142.939 213.533 142.939 213.533 142.939C213.533 142.939 213.533 142.939 213.533 142.939C213.533 142.939 213.533 142.939 213.533 142.939C213.533 142.939 213.533 142.939 213.533 142.939C213.533 142.939 213.533 142.939 213.533 142.939C213.533 142.939 213.533 142.939 213.533 142.939C213.533 142.939 213.533 142.939 213.533 142.939C213.533 142.939 213.533 142.939 213.533 142.939C213.533 142.939 213.533 142.939 213.533 142.939C213.533 142.939 213.533 142.939 213.533 142.939C213.533 142.939 213.533 142.939 213.533 142.939C213.533 142.939 213.533 142.939 213.533 142.939C213.533 142.939 213.533 142.939 213.533 142.939C213.533 142.939 213.533 142.939 213.533 142.939C213.533 142.939 213.533 142.939 213.533 142.939C213.533 142.939 213.533 142.939 213.533 142.939C213.533 142.939 213.533 142.939 213.533 142.939C213.533 142.939 213.533 142.939 213.533 142.939C213.533 142.939 213.533 142.939 213.533 142.939C213.533 142.939 213.533 142.939 213.533 142.939C213.533 142.939 213.533 142.939 213.533 142.939C213.533 142.939 213.533 142.939 213.533 142.939C213.533 142.939 213.533 142.939 213.533 142.939C213.533 142.939 213.533 142.939 213.533 142.939C213.533 142.939 213.533 142.939 213.533 142.939C213.533 142.939 213.533 142.939 213.533 142.939C213.533 142.939 213.533 142.939 213.533 142.939C213.533 142.939 213.533 142.939 213.533 142.939C213.533 142.939 213.533 142.939 213.533 142.939C213.533 142.939 213.533 142.939 213.533 142.939C213.533 142.939 213.533 142.939 213.533 142.939C213.533 142.939 213.533 142.939 213.533 142.939C213.533 142.939 213.533 142.939 213.533 142.939C213.533 142.939 213.533 142.939 213.533 142.939C213.533 142.939 213.533 142.939 213.533 142.939C213.533 142.939 213.533 142.939 213.533 142.939C213.533 142.939 213.533 142.939 213.533 142.939C213.533 142.939 213.533 142.939 213.533 142.939C213.533 142.939 213.533 142.939 213.533 142.939C213.533 142.939 213.533 142.939 213.533 142.939C213.533 142.939 213.533 142.939 213.533 142.939C213.533 142.939 213.533 142.939 213.533 142.939C213.533 142.939 213.533 142.939 213.533 142.939C213.533 142.939 213.533 142.939 213.533 142.939C213.533 142.939 213.533 142.939 213.533 142.939C213.533 142.939 213.533 142.939 213.533 142.939C213.533 142.939 213.533 142.939 213.533 142.939C213.533 142.939 213.533 142.939 213.533 142.939C213.533 142.939 213.533 142.939 213.533 142.939C213.533 142.939 213.533 142.939 213.533 142.939C213.533 142.939 213.533 142.939 213.533 142.939C213.533 142.939 213.533 142.939 213.533 142.939C213.533 142.939 213.533 142.939 213.533 142.939C213.533 142.939 213.533 142.939 213.533 142.939C213.533 142.939 213.533 142.939 213.533 142.939C213.533 142.939 213.533 142.939 213.533 142.939C213.533 142.939 213.533 142.939 213.533 142.939C213.533 142.939 213.533 142.939 213.533 142.939C213.533 142.939 213.533 142.939 213.533 142.939C213.533 142.939 213.533 142.939 213.533 142.939C213.533 142.939 213.533 142.939 213.533 142.939C213.533 142.939 213.533 142.939 213.533 142.939C213.533 142.939 213.533 142.939 213.533 142.939C213.533 142.939 213.533 142.939 213.533 142.939C213.533 142.939 213.533 142.939 213.533 142.939C213.533 142.939 213.533 142.939 213.533 142.939C213.533 142.939 213.533 142.939 213.533 142.939C213.533 142.939 213.533 142.939 213.533 142.939C213.533 142.939 213.533 142.939 213.533 142.939C213.533 142.939 213.533 142.939 213.533 142.939C213.533 142.939 213.533 142.939 213.533 142.939C213.533 142.939 213.533 142.939 213.533 142.939C213.533 142.939 213.533 142.939 213.533 142.939C213.533 142.939 213.533 142.939 213.533 142.939C213.533 142.939 213.533 142.939 213.533 142.939C213.533 142.939 213.533 142.939 213.533 142.939C213.533 142.939 213.533 142.939 213.533 142.939C213.533 142.939 213.533 142.939 213.533 142.939C213.533 142.939 213.533 142.939 213.533 142.939C213.533 142.939 213.533 142.939 213.533 142.939C213.533 142.939 213.533 142.939 213.533 142.939C213.533 142.939 213.533 142.939 213.533 142.939C213.533 142.939 213.533 142.939 213.533 142.939C213.533 142.939 213.533 142.939 213.533 142.939C213.533 142.939 213.533 142.939 213.533 142.939C213.533 142.939 213.533 142.939 213.533 142.939C213.533 142.939 213.533 142.939 213.533 142.939C213.533 142.939 213.533 142.939 213.533 142.939C213.533 142.939 213.533 142.939 213.533 142.939C213.533 142.939 213.533 142.939 213.533 142.939C213.533 142.939 213.533 142.939 213.533 142.939C213.533 142.939 213.533 142.94 213.533 142.94C213.533 142.94 213.533 142.94 213.533 142.94C213.533 142.94 213.533 142.94 213.533 142.94C213.533 142.94 213.533 142.94 213.533 142.94C213.533 142.94 213.533 142.94 213.533 142.94C213.533 142.94 213.533 142.94 213.533 142.94C213.533 142.94 213.533 142.94 213.533 142.94C213.533 142.94 213.533 142.94 213.533 142.94C213.533 142.94 213.533 142.94 213.533 142.94C213.533 142.94 213.533 142.94 213.533 142.94C213.533 142.94 213.533 142.94 213.533 142.94C213.533 142.94 213.533 142.94 213.533 142.94C213.533 142.94 213.533 142.94 213.533 142.94C213.533 142.94 213.533 142.94 213.533 142.94C213.533 142.94 213.533 142.94 213.533 142.94C213.533 142.94 213.533 142.94 213.533 142.94C213.533 142.94 213.533 142.94 213.533 142.94C213.533 142.94 213.533 142.94 213.533 142.94C213.533 142.94 213.533 142.94 213.533 142.94C213.533 142.94 213.533 142.94 213.533 142.94C213.533 142.94 213.533 142.94 213.533 142.94C213.533 142.94 213.533 142.94 213.533 142.94C213.533 142.94 213.533 142.94 213.533 142.94C213.533 142.94 213.533 142.94 213.533 142.94C213.533 142.94 213.533 142.94 213.533 142.94C213.533 142.94 213.533 142.94 213.533 142.94C213.533 142.94 213.533 142.94 213.533 142.94C213.533 142.94 213.533 142.94 213.533 142.94C213.533 142.94 213.533 142.94 213.533 142.94C213.533 142.94 213.533 142.94 213.533 142.94C213.533 142.94 213.533 142.94 213.533 142.94C213.533 142.94 213.533 142.94 213.533 142.94C213.533 142.94 213.533 142.94 213.533 142.94C213.533 142.94 213.533 142.94 213.533 142.94C213.533 142.94 213.533 142.94 213.533 142.94C213.533 142.94 213.533 142.94 213.533 142.94C213.533 142.94 213.533 142.94 213.533 142.94C213.533 142.94 213.533 142.94 213.533 142.94C213.533 142.94 213.533 142.94 213.533 142.94C213.533 142.94 213.533 142.94 213.533 142.94C213.533 142.94 213.533 142.94 213.533 142.94C213.533 142.94 213.533 142.94 213.533 142.94C213.533 142.94 213.533 142.94 213.533 142.94C213.533 142.94 213.533 142.94 213.533 142.94C213.533 142.94 213.533 142.94 213.533 142.94C213.533 142.94 213.533 142.94 213.533 142.94C213.533 142.94 213.533 142.94 213.533 142.94C213.533 142.94 213.533 142.94 213.533 142.94C213.533 142.94 213.533 142.94 213.533 142.94C213.533 142.94 213.533 142.94 213.533 142.94C213.533 142.94 213.533 142.94 213.533 142.94C213.533 142.94 213.533 142.94 213.533 142.94C213.533 142.94 213.533 142.94 213.533 142.94C213.533 142.94 213.533 142.94 213.533 142.94C213.533 142.94 213.533 142.94 213.533 142.94C213.533 142.94 213.533 142.94 213.533 142.94C213.533 142.94 213.533 142.94 213.533 142.94C213.533 142.94 213.533 142.94 213.533 142.94C213.533 142.94 213.533 142.94 213.533 142.94C213.533 142.94 213.533 142.94 213.533 142.94C213.533 142.94 213.533 142.94 213.533 142.94C213.533 142.94 213.533 142.94 213.533 142.94C213.533 142.94 213.533 142.94 213.533 142.94C213.533 142.94 213.533 142.94 213.533 142.94C213.533 142.94 213.533 142.94 213.533 142.94C213.533 142.94 213.533 142.94 213.533 142.94C213.533 142.94 213.533 142.94 213.533 142.94C213.533 142.94 213.533 142.94 213.533 142.94C213.533 142.94 213.533 142.94 213.533 142.94C213.533 142.94 213.533 142.94 213.533 142.94C213.533 142.94 213.533 142.94 213.533 142.94C213.533 142.94 213.533 142.94 213.533 142.94C213.533 142.94 213.533 142.94 213.533 142.94C213.533 142.94 213.533 142.94 213.533 142.94C213.533 142.94 213.533 142.94 213.533 142.94C213.533 142.94 213.533 142.94 213.533 142.94C213.533 142.94 213.533 142.94 213.533 142.94H219.533ZM219.533 142.939C219.533 100.638 185.241 66.3462 142.94 66.3462V72.3462C181.927 72.3462 213.533 103.952 213.533 142.939H219.533ZM142.94 66.3462C100.639 66.3462 66.3473 100.638 66.3473 142.939H72.3473C72.3473 103.952 103.953 72.3462 142.94 72.3462V66.3462ZM66.3473 142.939C66.3473 142.939 66.3473 142.939 66.3473 142.939C66.3473 142.939 66.3473 142.939 66.3473 142.939C66.3473 142.939 66.3473 142.939 66.3473 142.939C66.3473 142.939 66.3473 142.939 66.3473 142.939C66.3473 142.939 66.3473 142.939 66.3473 142.939C66.3473 142.939 66.3473 142.939 66.3473 142.939C66.3473 142.939 66.3473 142.939 66.3473 142.939C66.3473 142.939 66.3473 142.939 66.3473 142.939C66.3473 142.939 66.3473 142.939 66.3473 142.939C66.3473 142.939 66.3473 142.939 66.3473 142.939C66.3473 142.939 66.3473 142.939 66.3473 142.939C66.3473 142.939 66.3473 142.939 66.3473 142.939C66.3473 142.939 66.3473 142.939 66.3473 142.939C66.3473 142.939 66.3473 142.939 66.3473 142.939C66.3473 142.939 66.3473 142.939 66.3473 142.939C66.3473 142.939 66.3473 142.939 66.3473 142.939C66.3473 142.939 66.3473 142.939 66.3473 142.939C66.3473 142.939 66.3473 142.939 66.3473 142.939C66.3473 142.939 66.3473 142.939 66.3473 142.939C66.3473 142.939 66.3473 142.939 66.3473 142.939C66.3473 142.939 66.3473 142.939 66.3473 142.939C66.3473 142.939 66.3473 142.939 66.3473 142.939C66.3473 142.939 66.3473 142.939 66.3473 142.939C66.3473 142.939 66.3473 142.939 66.3473 142.939C66.3473 142.939 66.3473 142.939 66.3473 142.939C66.3473 142.939 66.3473 142.939 66.3473 142.939C66.3473 142.939 66.3473 142.939 66.3473 142.939C66.3473 142.939 66.3473 142.939 66.3473 142.939C66.3473 142.939 66.3473 142.939 66.3473 142.939C66.3473 142.939 66.3473 142.939 66.3473 142.939C66.3473 142.939 66.3473 142.939 66.3473 142.939C66.3473 142.939 66.3473 142.939 66.3473 142.939C66.3473 142.939 66.3473 142.939 66.3473 142.939C66.3473 142.939 66.3473 142.939 66.3473 142.939C66.3473 142.939 66.3473 142.939 66.3473 142.939C66.3473 142.939 66.3473 142.939 66.3473 142.939C66.3473 142.939 66.3473 142.939 66.3473 142.939C66.3473 142.939 66.3473 142.939 66.3473 142.939C66.3473 142.939 66.3473 142.939 66.3473 142.939C66.3473 142.939 66.3473 142.939 66.3473 142.939C66.3473 142.939 66.3473 142.939 66.3473 142.939C66.3473 142.939 66.3473 142.939 66.3473 142.939C66.3473 142.939 66.3473 142.939 66.3473 142.939C66.3473 142.939 66.3473 142.939 66.3473 142.939C66.3473 142.939 66.3473 142.939 66.3473 142.939C66.3473 142.939 66.3473 142.939 66.3473 142.939C66.3473 142.939 66.3473 142.939 66.3473 142.939C66.3473 142.939 66.3473 142.939 66.3473 142.939C66.3473 142.939 66.3473 142.939 66.3473 142.939C66.3473 142.939 66.3473 142.939 66.3473 142.939C66.3473 142.939 66.3473 142.939 66.3473 142.939C66.3473 142.939 66.3473 142.939 66.3473 142.939C66.3473 142.939 66.3473 142.939 66.3473 142.939C66.3473 142.939 66.3473 142.939 66.3473 142.939C66.3473 142.939 66.3473 142.939 66.3473 142.939C66.3473 142.939 66.3473 142.939 66.3473 142.939C66.3473 142.939 66.3473 142.939 66.3473 142.939C66.3473 142.939 66.3473 142.939 66.3473 142.939C66.3473 142.939 66.3473 142.939 66.3473 142.939C66.3473 142.939 66.3473 142.939 66.3473 142.939C66.3473 142.939 66.3473 142.939 66.3473 142.939C66.3473 142.939 66.3473 142.939 66.3473 142.939C66.3473 142.939 66.3473 142.939 66.3473 142.939C66.3473 142.939 66.3473 142.939 66.3473 142.939C66.3473 142.939 66.3473 142.939 66.3473 142.939C66.3473 142.939 66.3473 142.939 66.3473 142.939C66.3473 142.939 66.3473 142.939 66.3473 142.939C66.3473 142.939 66.3473 142.939 66.3473 142.939C66.3473 142.939 66.3473 142.939 66.3473 142.939C66.3473 142.939 66.3473 142.939 66.3473 142.939C66.3473 142.939 66.3473 142.939 66.3473 142.939C66.3473 142.939 66.3473 142.939 66.3473 142.939C66.3473 142.939 66.3473 142.939 66.3473 142.939C66.3473 142.939 66.3473 142.939 66.3473 142.939C66.3473 142.939 66.3473 142.939 66.3473 142.939C66.3473 142.939 66.3473 142.939 66.3473 142.939C66.3473 142.939 66.3473 142.939 66.3473 142.939C66.3473 142.939 66.3473 142.939 66.3473 142.939C66.3473 142.939 66.3473 142.939 66.3473 142.939C66.3473 142.939 66.3473 142.939 66.3473 142.939C66.3473 142.939 66.3473 142.939 66.3473 142.939C66.3473 142.939 66.3473 142.939 66.3473 142.939C66.3473 142.939 66.3473 142.939 66.3473 142.939C66.3473 142.939 66.3473 142.939 66.3473 142.939C66.3473 142.939 66.3473 142.939 66.3473 142.939C66.3473 142.939 66.3473 142.939 66.3473 142.939C66.3473 142.939 66.3473 142.939 66.3473 142.939C66.3473 142.939 66.3473 142.939 66.3473 142.939C66.3473 142.939 66.3473 142.939 66.3473 142.939C66.3473 142.939 66.3473 142.939 66.3473 142.939C66.3473 142.939 66.3473 142.939 66.3473 142.939C66.3473 142.939 66.3473 142.939 66.3473 142.939C66.3473 142.939 66.3473 142.939 66.3473 142.939C66.3473 142.939 66.3473 142.939 66.3473 142.939C66.3473 142.939 66.3473 142.939 66.3473 142.939C66.3473 142.939 66.3473 142.939 66.3473 142.939C66.3473 142.939 66.3473 142.939 66.3473 142.939C66.3473 142.939 66.3473 142.939 66.3473 142.939C66.3473 142.939 66.3473 142.939 66.3473 142.939C66.3473 142.939 66.3473 142.939 66.3473 142.939C66.3473 142.939 66.3473 142.939 66.3473 142.939C66.3473 142.939 66.3473 142.939 66.3473 142.939C66.3473 142.939 66.3473 142.939 66.3473 142.939C66.3473 142.939 66.3473 142.939 66.3473 142.939C66.3473 142.939 66.3473 142.939 66.3473 142.939C66.3473 142.939 66.3473 142.939 66.3473 142.939C66.3473 142.939 66.3473 142.939 66.3473 142.939C66.3473 142.939 66.3473 142.939 66.3473 142.939C66.3473 142.939 66.3473 142.939 66.3473 142.939C66.3473 142.939 66.3473 142.939 66.3473 142.939C66.3473 142.939 66.3473 142.939 66.3473 142.939C66.3473 142.939 66.3473 142.939 66.3473 142.939C66.3473 142.939 66.3473 142.939 66.3473 142.939C66.3473 142.939 66.3473 142.939 66.3473 142.939C66.3473 142.939 66.3473 142.939 66.3473 142.939C66.3473 142.939 66.3473 142.939 66.3473 142.939C66.3473 142.939 66.3473 142.939 66.3473 142.939C66.3473 142.939 66.3473 142.939 66.3473 142.939C66.3473 142.939 66.3473 142.939 66.3473 142.939C66.3473 142.939 66.3473 142.939 66.3473 142.939C66.3473 142.939 66.3473 142.939 66.3473 142.939C66.3473 142.939 66.3473 142.939 66.3473 142.939C66.3473 142.939 66.3473 142.939 66.3473 142.939C66.3473 142.939 66.3473 142.939 66.3473 142.939C66.3473 142.939 66.3473 142.939 66.3473 142.939C66.3473 142.939 66.3473 142.939 66.3473 142.939C66.3473 142.939 66.3473 142.939 66.3473 142.939C66.3473 142.939 66.3473 142.939 66.3473 142.939C66.3473 142.939 66.3473 142.939 66.3473 142.939C66.3473 142.939 66.3473 142.939 66.3473 142.939C66.3473 142.939 66.3473 142.939 66.3473 142.939C66.3473 142.939 66.3473 142.939 66.3473 142.939C66.3473 142.939 66.3473 142.939 66.3473 142.939C66.3473 142.939 66.3473 142.939 66.3473 142.939C66.3473 142.939 66.3473 142.939 66.3473 142.939C66.3473 142.939 66.3473 142.939 66.3473 142.939C66.3473 142.939 66.3473 142.939 66.3473 142.939C66.3473 142.939 66.3473 142.939 66.3473 142.939C66.3473 142.939 66.3473 142.939 66.3473 142.939C66.3473 142.939 66.3473 142.939 66.3473 142.939C66.3473 142.939 66.3473 142.939 66.3473 142.939C66.3473 142.939 66.3473 142.939 66.3473 142.939C66.3473 142.939 66.3473 142.939 66.3473 142.939C66.3473 142.939 66.3473 142.939 66.3473 142.939C66.3473 142.939 66.3473 142.939 66.3473 142.939C66.3473 142.939 66.3473 142.939 66.3473 142.939C66.3473 142.939 66.3473 142.939 66.3473 142.939C66.3473 142.939 66.3473 142.939 66.3473 142.939C66.3473 142.939 66.3473 142.939 66.3473 142.939C66.3473 142.939 66.3473 142.939 66.3473 142.939C66.3473 142.939 66.3473 142.939 66.3473 142.939C66.3473 142.939 66.3473 142.939 66.3473 142.939C66.3473 142.939 66.3473 142.939 66.3473 142.939C66.3473 142.939 66.3473 142.939 66.3473 142.939C66.3473 142.939 66.3473 142.939 66.3473 142.939C66.3473 142.939 66.3473 142.939 66.3473 142.939C66.3473 142.939 66.3473 142.939 66.3473 142.939C66.3473 142.939 66.3473 142.939 66.3473 142.939C66.3473 142.939 66.3473 142.939 66.3473 142.939C66.3473 142.939 66.3473 142.939 66.3473 142.939C66.3473 142.939 66.3473 142.939 66.3473 142.939C66.3473 142.939 66.3473 142.939 66.3473 142.939C66.3473 142.939 66.3473 142.939 66.3473 142.939C66.3473 142.939 66.3473 142.939 66.3473 142.939C66.3473 142.939 66.3473 142.939 66.3473 142.939C66.3473 142.939 66.3473 142.939 66.3473 142.939C66.3473 142.939 66.3473 142.939 66.3473 142.939C66.3473 142.939 66.3473 142.939 66.3473 142.939C66.3473 142.939 66.3473 142.939 66.3473 142.939C66.3473 142.939 66.3473 142.939 66.3473 142.939C66.3473 142.939 66.3473 142.939 66.3473 142.939C66.3473 142.939 66.3473 142.939 66.3473 142.939C66.3473 142.939 66.3473 142.939 66.3473 142.939C66.3473 142.939 66.3473 142.939 66.3473 142.939C66.3473 142.939 66.3473 142.939 66.3473 142.939C66.3473 142.939 66.3473 142.939 66.3473 142.939C66.3473 142.939 66.3473 142.939 66.3473 142.939C66.3473 142.939 66.3473 142.939 66.3473 142.939C66.3473 142.939 66.3473 142.939 66.3473 142.939C66.3473 142.939 66.3473 142.939 66.3473 142.939C66.3473 142.939 66.3473 142.939 66.3473 142.939C66.3473 142.939 66.3473 142.939 66.3473 142.939C66.3473 142.939 66.3473 142.939 66.3473 142.939C66.3473 142.939 66.3473 142.939 66.3473 142.939C66.3473 142.939 66.3473 142.939 66.3473 142.939C66.3473 142.939 66.3473 142.939 66.3473 142.939C66.3473 142.939 66.3473 142.939 66.3473 142.939C66.3473 142.939 66.3473 142.939 66.3473 142.939C66.3473 142.939 66.3473 142.939 66.3473 142.939C66.3473 142.939 66.3473 142.939 66.3473 142.939C66.3473 142.939 66.3473 142.939 66.3473 142.939C66.3473 142.939 66.3473 142.939 66.3473 142.939C66.3473 142.939 66.3473 142.939 66.3473 142.939C66.3473 142.939 66.3473 142.939 66.3473 142.939C66.3473 142.939 66.3473 142.939 66.3473 142.939C66.3473 142.939 66.3473 142.939 66.3473 142.939C66.3473 142.939 66.3473 142.939 66.3473 142.939C66.3473 142.939 66.3473 142.939 66.3473 142.939C66.3473 142.939 66.3473 142.939 66.3473 142.939C66.3473 142.939 66.3473 142.939 66.3473 142.939C66.3473 142.939 66.3473 142.939 66.3473 142.939C66.3473 142.939 66.3473 142.939 66.3473 142.939C66.3473 142.939 66.3473 142.939 66.3473 142.939C66.3473 142.939 66.3473 142.939 66.3473 142.939C66.3473 142.939 66.3473 142.939 66.3473 142.939C66.3473 142.939 66.3473 142.939 66.3473 142.939C66.3473 142.939 66.3473 142.939 66.3473 142.939C66.3473 142.939 66.3473 142.939 66.3473 142.939C66.3473 142.939 66.3473 142.939 66.3473 142.939C66.3473 142.939 66.3473 142.939 66.3473 142.939C66.3473 142.939 66.3473 142.939 66.3473 142.939C66.3473 142.939 66.3473 142.939 66.3473 142.939C66.3473 142.939 66.3473 142.939 66.3473 142.939C66.3473 142.939 66.3473 142.939 66.3473 142.939C66.3473 142.939 66.3473 142.939 66.3473 142.939C66.3473 142.939 66.3473 142.939 66.3473 142.939C66.3473 142.939 66.3473 142.939 66.3473 142.939C66.3473 142.939 66.3473 142.939 66.3473 142.939C66.3473 142.939 66.3473 142.939 66.3473 142.939C66.3473 142.939 66.3473 142.939 66.3473 142.939C66.3473 142.939 66.3473 142.939 66.3473 142.939C66.3473 142.939 66.3473 142.939 66.3473 142.939C66.3473 142.939 66.3473 142.939 66.3473 142.939C66.3473 142.939 66.3473 142.939 66.3473 142.939C66.3473 142.939 66.3473 142.939 66.3473 142.939C66.3473 142.939 66.3473 142.939 66.3473 142.939C66.3473 142.939 66.3473 142.939 66.3473 142.939C66.3473 142.939 66.3473 142.939 66.3473 142.939C66.3473 142.939 66.3473 142.939 66.3473 142.939C66.3473 142.939 66.3473 142.939 66.3473 142.939C66.3473 142.939 66.3473 142.939 66.3473 142.939C66.3473 142.939 66.3473 142.939 66.3473 142.939C66.3473 142.939 66.3473 142.939 66.3473 142.939C66.3473 142.939 66.3473 142.939 66.3473 142.939C66.3473 142.939 66.3473 142.939 66.3473 142.939C66.3473 142.939 66.3473 142.939 66.3473 142.939C66.3473 142.939 66.3473 142.939 66.3473 142.939C66.3473 142.939 66.3473 142.939 66.3473 142.939C66.3473 142.939 66.3473 142.939 66.3473 142.939C66.3473 142.939 66.3473 142.939 66.3473 142.939C66.3473 142.939 66.3473 142.939 66.3473 142.939C66.3473 142.939 66.3473 142.939 66.3473 142.939C66.3473 142.939 66.3473 142.939 66.3473 142.939C66.3473 142.939 66.3473 142.939 66.3473 142.939C66.3473 142.939 66.3473 142.939 66.3473 142.939C66.3473 142.939 66.3473 142.939 66.3473 142.939C66.3473 142.939 66.3473 142.939 66.3473 142.939C66.3473 142.939 66.3473 142.939 66.3473 142.939C66.3473 142.939 66.3473 142.939 66.3473 142.939C66.3473 142.939 66.3473 142.939 66.3473 142.939C66.3473 142.939 66.3473 142.939 66.3473 142.939C66.3473 142.939 66.3473 142.939 66.3473 142.939C66.3473 142.939 66.3473 142.939 66.3473 142.939C66.3473 142.939 66.3473 142.939 66.3473 142.939C66.3473 142.939 66.3473 142.939 66.3473 142.939C66.3473 142.939 66.3473 142.939 66.3473 142.939C66.3473 142.939 66.3473 142.939 66.3473 142.939C66.3473 142.939 66.3473 142.939 66.3473 142.939C66.3473 142.939 66.3473 142.939 66.3473 142.939C66.3473 142.939 66.3473 142.939 66.3473 142.939C66.3473 142.939 66.3473 142.939 66.3473 142.939C66.3473 142.939 66.3473 142.939 66.3473 142.939C66.3473 142.939 66.3473 142.939 66.3473 142.939C66.3473 142.939 66.3473 142.939 66.3473 142.939C66.3473 142.939 66.3473 142.939 66.3473 142.939C66.3473 142.939 66.3473 142.939 66.3473 142.939C66.3473 142.939 66.3473 142.939 66.3473 142.939C66.3473 142.939 66.3473 142.939 66.3473 142.939C66.3473 142.939 66.3473 142.939 66.3473 142.939C66.3473 142.939 66.3473 142.939 66.3473 142.939C66.3473 142.939 66.3473 142.939 66.3473 142.939C66.3473 142.939 66.3473 142.939 66.3473 142.939C66.3473 142.939 66.3473 142.939 66.3473 142.939C66.3473 142.939 66.3473 142.939 66.3473 142.939C66.3473 142.939 66.3473 142.939 66.3473 142.939C66.3473 142.939 66.3473 142.939 66.3473 142.939C66.3473 142.939 66.3473 142.939 66.3473 142.939C66.3473 142.939 66.3473 142.939 66.3473 142.939C66.3473 142.939 66.3473 142.939 66.3473 142.939C66.3473 142.939 66.3473 142.939 66.3473 142.939C66.3473 142.939 66.3473 142.939 66.3473 142.939C66.3473 142.939 66.3473 142.939 66.3473 142.939C66.3473 142.939 66.3473 142.939 66.3473 142.939C66.3473 142.939 66.3473 142.939 66.3473 142.939C66.3473 142.939 66.3473 142.939 66.3473 142.939C66.3473 142.939 66.3473 142.939 66.3473 142.939C66.3473 142.939 66.3473 142.939 66.3473 142.939C66.3473 142.939 66.3473 142.939 66.3473 142.939C66.3473 142.939 66.3473 142.939 66.3473 142.939C66.3473 142.939 66.3473 142.939 66.3473 142.939C66.3473 142.939 66.3473 142.939 66.3473 142.939C66.3473 142.939 66.3473 142.939 66.3473 142.939C66.3473 142.939 66.3473 142.939 66.3473 142.939C66.3473 142.939 66.3473 142.939 66.3473 142.939C66.3473 142.939 66.3473 142.939 66.3473 142.939C66.3473 142.939 66.3473 142.939 66.3473 142.939C66.3473 142.939 66.3473 142.939 66.3473 142.939C66.3473 142.939 66.3473 142.939 66.3473 142.939C66.3473 142.939 66.3473 142.939 66.3473 142.939C66.3473 142.939 66.3473 142.939 66.3473 142.939C66.3473 142.939 66.3473 142.939 66.3473 142.939C66.3473 142.939 66.3473 142.939 66.3473 142.939C66.3473 142.939 66.3473 142.939 66.3473 142.939C66.3473 142.939 66.3473 142.939 66.3473 142.939C66.3473 142.939 66.3473 142.939 66.3473 142.939C66.3473 142.939 66.3473 142.939 66.3473 142.939C66.3473 142.939 66.3473 142.939 66.3473 142.939C66.3473 142.939 66.3473 142.939 66.3473 142.939C66.3473 142.939 66.3473 142.939 66.3473 142.939C66.3473 142.939 66.3473 142.939 66.3473 142.939C66.3473 142.939 66.3473 142.939 66.3473 142.939C66.3473 142.939 66.3473 142.939 66.3473 142.939C66.3473 142.939 66.3473 142.939 66.3473 142.939C66.3473 142.939 66.3473 142.939 66.3473 142.939C66.3473 142.939 66.3473 142.939 66.3473 142.939C66.3473 142.939 66.3473 142.939 66.3473 142.939C66.3473 142.939 66.3473 142.939 66.3473 142.939C66.3473 142.939 66.3473 142.939 66.3473 142.939C66.3473 142.939 66.3473 142.939 66.3473 142.939C66.3473 142.939 66.3473 142.939 66.3473 142.939C66.3473 142.939 66.3473 142.939 66.3473 142.939C66.3473 142.939 66.3473 142.939 66.3473 142.939C66.3473 142.939 66.3473 142.939 66.3473 142.939C66.3473 142.939 66.3473 142.939 66.3473 142.939C66.3473 142.939 66.3473 142.939 66.3473 142.939C66.3473 142.939 66.3473 142.939 66.3473 142.939C66.3473 142.939 66.3473 142.939 66.3473 142.939C66.3473 142.939 66.3473 142.939 66.3473 142.939C66.3473 142.939 66.3473 142.939 66.3473 142.939C66.3473 142.939 66.3473 142.939 66.3473 142.939C66.3473 142.939 66.3473 142.939 66.3473 142.939C66.3473 142.939 66.3473 142.939 66.3473 142.939C66.3473 142.939 66.3473 142.939 66.3473 142.939C66.3473 142.939 66.3473 142.939 66.3473 142.939C66.3473 142.939 66.3473 142.939 66.3473 142.939C66.3473 142.939 66.3473 142.939 66.3473 142.939C66.3473 142.939 66.3473 142.939 66.3473 142.939C66.3473 142.939 66.3473 142.939 66.3473 142.939C66.3473 142.939 66.3473 142.939 66.3473 142.939C66.3473 142.939 66.3473 142.939 66.3473 142.939C66.3473 142.939 66.3473 142.939 66.3473 142.939C66.3473 142.939 66.3473 142.939 66.3473 142.939C66.3473 142.939 66.3473 142.939 66.3473 142.939C66.3473 142.939 66.3473 142.939 66.3473 142.939C66.3473 142.939 66.3473 142.939 66.3473 142.939C66.3473 142.939 66.3473 142.939 66.3473 142.939C66.3473 142.939 66.3473 142.939 66.3473 142.939C66.3473 142.939 66.3473 142.939 66.3473 142.939C66.3473 142.939 66.3473 142.939 66.3473 142.939C66.3473 142.939 66.3473 142.939 66.3473 142.939C66.3473 142.939 66.3473 142.939 66.3473 142.939C66.3473 142.939 66.3473 142.939 66.3473 142.939C66.3473 142.939 66.3473 142.939 66.3473 142.939C66.3473 142.939 66.3473 142.939 66.3473 142.939C66.3473 142.939 66.3473 142.939 66.3473 142.939C66.3473 142.939 66.3473 142.939 66.3473 142.939C66.3473 142.939 66.3473 142.939 66.3473 142.939C66.3473 142.939 66.3473 142.939 66.3473 142.939C66.3473 142.939 66.3473 142.939 66.3473 142.939C66.3473 142.939 66.3473 142.939 66.3473 142.939C66.3473 142.939 66.3473 142.939 66.3473 142.939C66.3473 142.939 66.3473 142.939 66.3473 142.939C66.3473 142.939 66.3473 142.939 66.3473 142.939C66.3473 142.939 66.3473 142.939 66.3473 142.939C66.3473 142.939 66.3473 142.939 66.3473 142.939C66.3473 142.939 66.3473 142.939 66.3473 142.939C66.3473 142.939 66.3473 142.939 66.3473 142.939C66.3473 142.939 66.3473 142.939 66.3473 142.939C66.3473 142.939 66.3473 142.939 66.3473 142.939C66.3473 142.939 66.3473 142.939 66.3473 142.939C66.3473 142.939 66.3473 142.939 66.3473 142.939C66.3473 142.939 66.3473 142.939 66.3473 142.939C66.3473 142.939 66.3473 142.939 66.3473 142.939C66.3473 142.939 66.3473 142.939 66.3473 142.939C66.3473 142.939 66.3473 142.939 66.3473 142.939C66.3473 142.939 66.3473 142.939 66.3473 142.939C66.3473 142.939 66.3473 142.939 66.3473 142.939C66.3473 142.939 66.3473 142.939 66.3473 142.939C66.3473 142.939 66.3473 142.939 66.3473 142.939C66.3473 142.939 66.3473 142.939 66.3473 142.939C66.3473 142.939 66.3473 142.939 66.3473 142.939C66.3473 142.939 66.3473 142.939 66.3473 142.939C66.3473 142.939 66.3473 142.939 66.3473 142.939C66.3473 142.939 66.3473 142.939 66.3473 142.939C66.3473 142.939 66.3473 142.939 66.3473 142.939C66.3473 142.939 66.3473 142.939 66.3473 142.939C66.3473 142.939 66.3473 142.939 66.3473 142.939C66.3473 142.939 66.3473 142.939 66.3473 142.939C66.3473 142.939 66.3473 142.939 66.3473 142.939C66.3473 142.939 66.3473 142.939 66.3473 142.939C66.3473 142.939 66.3473 142.939 66.3473 142.939C66.3473 142.939 66.3473 142.939 66.3473 142.939C66.3473 142.939 66.3473 142.939 66.3473 142.939C66.3473 142.939 66.3473 142.939 66.3473 142.939C66.3473 142.939 66.3473 142.939 66.3473 142.939C66.3473 142.939 66.3473 142.939 66.3473 142.939C66.3473 142.939 66.3473 142.939 66.3473 142.939C66.3473 142.939 66.3473 142.939 66.3473 142.939C66.3473 142.939 66.3473 142.939 66.3473 142.939C66.3473 142.939 66.3473 142.939 66.3473 142.939C66.3473 142.939 66.3473 142.939 66.3473 142.939C66.3473 142.939 66.3473 142.939 66.3473 142.939C66.3473 142.939 66.3473 142.939 66.3473 142.939C66.3473 142.939 66.3473 142.939 66.3473 142.939C66.3473 142.939 66.3473 142.939 66.3473 142.939C66.3473 142.939 66.3473 142.939 66.3473 142.939C66.3473 142.939 66.3473 142.939 66.3473 142.939C66.3473 142.939 66.3473 142.939 66.3473 142.939C66.3473 142.939 66.3473 142.939 66.3473 142.939C66.3473 142.939 66.3473 142.939 66.3473 142.939C66.3473 142.939 66.3473 142.939 66.3473 142.939C66.3473 142.939 66.3473 142.939 66.3473 142.939C66.3473 142.939 66.3473 142.939 66.3473 142.939C66.3473 142.939 66.3473 142.939 66.3473 142.939C66.3473 142.939 66.3473 142.939 66.3473 142.939C66.3473 142.939 66.3473 142.939 66.3473 142.939C66.3473 142.939 66.3473 142.939 66.3473 142.939C66.3473 142.939 66.3473 142.939 66.3473 142.939C66.3473 142.939 66.3473 142.939 66.3473 142.939C66.3473 142.939 66.3473 142.939 66.3473 142.939C66.3473 142.939 66.3473 142.939 66.3473 142.939C66.3473 142.939 66.3473 142.939 66.3473 142.939C66.3473 142.939 66.3473 142.939 66.3473 142.939C66.3473 142.939 66.3473 142.939 66.3473 142.939C66.3473 142.939 66.3473 142.939 66.3473 142.939C66.3473 142.939 66.3473 142.939 66.3473 142.939C66.3473 142.939 66.3473 142.939 66.3473 142.939C66.3473 142.939 66.3473 142.939 66.3473 142.939C66.3473 142.939 66.3473 142.939 66.3473 142.939C66.3473 142.939 66.3473 142.939 66.3473 142.939C66.3473 142.939 66.3473 142.939 66.3473 142.939C66.3473 142.939 66.3473 142.939 66.3473 142.939C66.3473 142.939 66.3473 142.939 66.3473 142.939C66.3473 142.939 66.3473 142.939 66.3473 142.939C66.3473 142.939 66.3473 142.939 66.3473 142.939C66.3473 142.939 66.3473 142.94 66.3473 142.94C66.3473 142.94 66.3473 142.94 66.3473 142.94C66.3473 142.94 66.3473 142.94 66.3473 142.94C66.3473 142.94 66.3473 142.94 66.3473 142.94C66.3473 142.94 66.3473 142.94 66.3473 142.94C66.3473 142.94 66.3473 142.94 66.3473 142.94C66.3473 142.94 66.3473 142.94 66.3473 142.94C66.3473 142.94 66.3473 142.94 66.3473 142.94C66.3473 142.94 66.3473 142.94 66.3473 142.94C66.3473 142.94 66.3473 142.94 66.3473 142.94C66.3473 142.94 66.3473 142.94 66.3473 142.94C66.3473 142.94 66.3473 142.94 66.3473 142.94C66.3473 142.94 66.3473 142.94 66.3473 142.94C66.3473 142.94 66.3473 142.94 66.3473 142.94C66.3473 142.94 66.3473 142.94 66.3473 142.94C66.3473 142.94 66.3473 142.94 66.3473 142.94C66.3473 142.94 66.3473 142.94 66.3473 142.94C66.3473 142.94 66.3473 142.94 66.3473 142.94C66.3473 142.94 66.3473 142.94 66.3473 142.94C66.3473 142.94 66.3473 142.94 66.3473 142.94C66.3473 142.94 66.3473 142.94 66.3473 142.94C66.3473 142.94 66.3473 142.94 66.3473 142.94C66.3473 142.94 66.3473 142.94 66.3473 142.94C66.3473 142.94 66.3473 142.94 66.3473 142.94C66.3473 142.94 66.3473 142.94 66.3473 142.94C66.3473 142.94 66.3473 142.94 66.3473 142.94C66.3473 142.94 66.3473 142.94 66.3473 142.94C66.3473 142.94 66.3473 142.94 66.3473 142.94C66.3473 142.94 66.3473 142.94 66.3473 142.94C66.3473 142.94 66.3473 142.94 66.3473 142.94C66.3473 142.94 66.3473 142.94 66.3473 142.94C66.3473 142.94 66.3473 142.94 66.3473 142.94C66.3473 142.94 66.3473 142.94 66.3473 142.94C66.3473 142.94 66.3473 142.94 66.3473 142.94C66.3473 142.94 66.3473 142.94 66.3473 142.94C66.3473 142.94 66.3473 142.94 66.3473 142.94C66.3473 142.94 66.3473 142.94 66.3473 142.94C66.3473 142.94 66.3473 142.94 66.3473 142.94C66.3473 142.94 66.3473 142.94 66.3473 142.94C66.3473 142.94 66.3473 142.94 66.3473 142.94C66.3473 142.94 66.3473 142.94 66.3473 142.94C66.3473 142.94 66.3473 142.94 66.3473 142.94C66.3473 142.94 66.3473 142.94 66.3473 142.94C66.3473 142.94 66.3473 142.94 66.3473 142.94C66.3473 142.94 66.3473 142.94 66.3473 142.94C66.3473 142.94 66.3473 142.94 66.3473 142.94C66.3473 142.94 66.3473 142.94 66.3473 142.94C66.3473 142.94 66.3473 142.94 66.3473 142.94C66.3473 142.94 66.3473 142.94 66.3473 142.94C66.3473 142.94 66.3473 142.94 66.3473 142.94C66.3473 142.94 66.3473 142.94 66.3473 142.94C66.3473 142.94 66.3473 142.94 66.3473 142.94C66.3473 142.94 66.3473 142.94 66.3473 142.94C66.3473 142.94 66.3473 142.94 66.3473 142.94C66.3473 142.94 66.3473 142.94 66.3473 142.94C66.3473 142.94 66.3473 142.94 66.3473 142.94C66.3473 142.94 66.3473 142.94 66.3473 142.94C66.3473 142.94 66.3473 142.94 66.3473 142.94C66.3473 142.94 66.3473 142.94 66.3473 142.94C66.3473 142.94 66.3473 142.94 66.3473 142.94C66.3473 142.94 66.3473 142.94 66.3473 142.94C66.3473 142.94 66.3473 142.94 66.3473 142.94C66.3473 142.94 66.3473 142.94 66.3473 142.94C66.3473 142.94 66.3473 142.94 66.3473 142.94C66.3473 142.94 66.3473 142.94 66.3473 142.94C66.3473 142.94 66.3473 142.94 66.3473 142.94C66.3473 142.94 66.3473 142.94 66.3473 142.94C66.3473 142.94 66.3473 142.94 66.3473 142.94C66.3473 142.94 66.3473 142.94 66.3473 142.94C66.3473 142.94 66.3473 142.94 66.3473 142.94C66.3473 142.94 66.3473 142.94 66.3473 142.94C66.3473 142.94 66.3473 142.94 66.3473 142.94C66.3473 142.94 66.3473 142.94 66.3473 142.94C66.3473 142.94 66.3473 142.94 66.3473 142.94C66.3473 142.94 66.3473 142.94 66.3473 142.94C66.3473 142.94 66.3473 142.94 66.3473 142.94C66.3473 142.94 66.3473 142.94 66.3473 142.94H72.3473C72.3473 142.94 72.3473 142.94 72.3473 142.94C72.3473 142.94 72.3473 142.94 72.3473 142.94C72.3473 142.94 72.3473 142.94 72.3473 142.94C72.3473 142.94 72.3473 142.94 72.3473 142.94C72.3473 142.94 72.3473 142.94 72.3473 142.94C72.3473 142.94 72.3473 142.94 72.3473 142.94C72.3473 142.94 72.3473 142.94 72.3473 142.94C72.3473 142.94 72.3473 142.94 72.3473 142.94C72.3473 142.94 72.3473 142.94 72.3473 142.94C72.3473 142.94 72.3473 142.94 72.3473 142.94C72.3473 142.94 72.3473 142.94 72.3473 142.94C72.3473 142.94 72.3473 142.94 72.3473 142.94C72.3473 142.94 72.3473 142.94 72.3473 142.94C72.3473 142.94 72.3473 142.94 72.3473 142.94C72.3473 142.94 72.3473 142.94 72.3473 142.94C72.3473 142.94 72.3473 142.94 72.3473 142.94C72.3473 142.94 72.3473 142.94 72.3473 142.94C72.3473 142.94 72.3473 142.94 72.3473 142.94C72.3473 142.94 72.3473 142.94 72.3473 142.94C72.3473 142.94 72.3473 142.94 72.3473 142.94C72.3473 142.94 72.3473 142.94 72.3473 142.94C72.3473 142.94 72.3473 142.94 72.3473 142.94C72.3473 142.94 72.3473 142.94 72.3473 142.94C72.3473 142.94 72.3473 142.94 72.3473 142.94C72.3473 142.94 72.3473 142.94 72.3473 142.94C72.3473 142.94 72.3473 142.94 72.3473 142.94C72.3473 142.94 72.3473 142.94 72.3473 142.94C72.3473 142.94 72.3473 142.94 72.3473 142.94C72.3473 142.94 72.3473 142.94 72.3473 142.94C72.3473 142.94 72.3473 142.94 72.3473 142.94C72.3473 142.94 72.3473 142.94 72.3473 142.94C72.3473 142.94 72.3473 142.94 72.3473 142.94C72.3473 142.94 72.3473 142.94 72.3473 142.94C72.3473 142.94 72.3473 142.94 72.3473 142.94C72.3473 142.94 72.3473 142.94 72.3473 142.94C72.3473 142.94 72.3473 142.94 72.3473 142.94C72.3473 142.94 72.3473 142.94 72.3473 142.94C72.3473 142.94 72.3473 142.94 72.3473 142.94C72.3473 142.94 72.3473 142.94 72.3473 142.94C72.3473 142.94 72.3473 142.94 72.3473 142.94C72.3473 142.94 72.3473 142.94 72.3473 142.94C72.3473 142.94 72.3473 142.94 72.3473 142.94C72.3473 142.94 72.3473 142.94 72.3473 142.94C72.3473 142.94 72.3473 142.94 72.3473 142.94C72.3473 142.94 72.3473 142.94 72.3473 142.94C72.3473 142.94 72.3473 142.94 72.3473 142.94C72.3473 142.94 72.3473 142.94 72.3473 142.94C72.3473 142.94 72.3473 142.94 72.3473 142.94C72.3473 142.94 72.3473 142.94 72.3473 142.94C72.3473 142.94 72.3473 142.94 72.3473 142.94C72.3473 142.94 72.3473 142.94 72.3473 142.94C72.3473 142.94 72.3473 142.94 72.3473 142.94C72.3473 142.94 72.3473 142.94 72.3473 142.94C72.3473 142.94 72.3473 142.94 72.3473 142.94C72.3473 142.94 72.3473 142.94 72.3473 142.94C72.3473 142.94 72.3473 142.94 72.3473 142.94C72.3473 142.94 72.3473 142.94 72.3473 142.94C72.3473 142.94 72.3473 142.94 72.3473 142.94C72.3473 142.94 72.3473 142.94 72.3473 142.94C72.3473 142.94 72.3473 142.94 72.3473 142.94C72.3473 142.94 72.3473 142.94 72.3473 142.94C72.3473 142.94 72.3473 142.94 72.3473 142.94C72.3473 142.94 72.3473 142.94 72.3473 142.94C72.3473 142.94 72.3473 142.94 72.3473 142.94C72.3473 142.94 72.3473 142.94 72.3473 142.94C72.3473 142.94 72.3473 142.94 72.3473 142.94C72.3473 142.94 72.3473 142.94 72.3473 142.94C72.3473 142.94 72.3473 142.94 72.3473 142.94C72.3473 142.94 72.3473 142.94 72.3473 142.94C72.3473 142.94 72.3473 142.94 72.3473 142.94C72.3473 142.94 72.3473 142.94 72.3473 142.94C72.3473 142.94 72.3473 142.94 72.3473 142.94C72.3473 142.94 72.3473 142.94 72.3473 142.94C72.3473 142.94 72.3473 142.94 72.3473 142.94C72.3473 142.94 72.3473 142.94 72.3473 142.94C72.3473 142.94 72.3473 142.94 72.3473 142.94C72.3473 142.94 72.3473 142.939 72.3473 142.939C72.3473 142.939 72.3473 142.939 72.3473 142.939C72.3473 142.939 72.3473 142.939 72.3473 142.939C72.3473 142.939 72.3473 142.939 72.3473 142.939C72.3473 142.939 72.3473 142.939 72.3473 142.939C72.3473 142.939 72.3473 142.939 72.3473 142.939C72.3473 142.939 72.3473 142.939 72.3473 142.939C72.3473 142.939 72.3473 142.939 72.3473 142.939C72.3473 142.939 72.3473 142.939 72.3473 142.939C72.3473 142.939 72.3473 142.939 72.3473 142.939C72.3473 142.939 72.3473 142.939 72.3473 142.939C72.3473 142.939 72.3473 142.939 72.3473 142.939C72.3473 142.939 72.3473 142.939 72.3473 142.939C72.3473 142.939 72.3473 142.939 72.3473 142.939C72.3473 142.939 72.3473 142.939 72.3473 142.939C72.3473 142.939 72.3473 142.939 72.3473 142.939C72.3473 142.939 72.3473 142.939 72.3473 142.939C72.3473 142.939 72.3473 142.939 72.3473 142.939C72.3473 142.939 72.3473 142.939 72.3473 142.939C72.3473 142.939 72.3473 142.939 72.3473 142.939C72.3473 142.939 72.3473 142.939 72.3473 142.939C72.3473 142.939 72.3473 142.939 72.3473 142.939C72.3473 142.939 72.3473 142.939 72.3473 142.939C72.3473 142.939 72.3473 142.939 72.3473 142.939C72.3473 142.939 72.3473 142.939 72.3473 142.939C72.3473 142.939 72.3473 142.939 72.3473 142.939C72.3473 142.939 72.3473 142.939 72.3473 142.939C72.3473 142.939 72.3473 142.939 72.3473 142.939C72.3473 142.939 72.3473 142.939 72.3473 142.939C72.3473 142.939 72.3473 142.939 72.3473 142.939C72.3473 142.939 72.3473 142.939 72.3473 142.939C72.3473 142.939 72.3473 142.939 72.3473 142.939C72.3473 142.939 72.3473 142.939 72.3473 142.939C72.3473 142.939 72.3473 142.939 72.3473 142.939C72.3473 142.939 72.3473 142.939 72.3473 142.939C72.3473 142.939 72.3473 142.939 72.3473 142.939C72.3473 142.939 72.3473 142.939 72.3473 142.939C72.3473 142.939 72.3473 142.939 72.3473 142.939C72.3473 142.939 72.3473 142.939 72.3473 142.939C72.3473 142.939 72.3473 142.939 72.3473 142.939C72.3473 142.939 72.3473 142.939 72.3473 142.939C72.3473 142.939 72.3473 142.939 72.3473 142.939C72.3473 142.939 72.3473 142.939 72.3473 142.939C72.3473 142.939 72.3473 142.939 72.3473 142.939C72.3473 142.939 72.3473 142.939 72.3473 142.939C72.3473 142.939 72.3473 142.939 72.3473 142.939C72.3473 142.939 72.3473 142.939 72.3473 142.939C72.3473 142.939 72.3473 142.939 72.3473 142.939C72.3473 142.939 72.3473 142.939 72.3473 142.939C72.3473 142.939 72.3473 142.939 72.3473 142.939C72.3473 142.939 72.3473 142.939 72.3473 142.939C72.3473 142.939 72.3473 142.939 72.3473 142.939C72.3473 142.939 72.3473 142.939 72.3473 142.939C72.3473 142.939 72.3473 142.939 72.3473 142.939C72.3473 142.939 72.3473 142.939 72.3473 142.939C72.3473 142.939 72.3473 142.939 72.3473 142.939C72.3473 142.939 72.3473 142.939 72.3473 142.939C72.3473 142.939 72.3473 142.939 72.3473 142.939C72.3473 142.939 72.3473 142.939 72.3473 142.939C72.3473 142.939 72.3473 142.939 72.3473 142.939C72.3473 142.939 72.3473 142.939 72.3473 142.939C72.3473 142.939 72.3473 142.939 72.3473 142.939C72.3473 142.939 72.3473 142.939 72.3473 142.939C72.3473 142.939 72.3473 142.939 72.3473 142.939C72.3473 142.939 72.3473 142.939 72.3473 142.939C72.3473 142.939 72.3473 142.939 72.3473 142.939C72.3473 142.939 72.3473 142.939 72.3473 142.939C72.3473 142.939 72.3473 142.939 72.3473 142.939C72.3473 142.939 72.3473 142.939 72.3473 142.939C72.3473 142.939 72.3473 142.939 72.3473 142.939C72.3473 142.939 72.3473 142.939 72.3473 142.939C72.3473 142.939 72.3473 142.939 72.3473 142.939C72.3473 142.939 72.3473 142.939 72.3473 142.939C72.3473 142.939 72.3473 142.939 72.3473 142.939C72.3473 142.939 72.3473 142.939 72.3473 142.939C72.3473 142.939 72.3473 142.939 72.3473 142.939C72.3473 142.939 72.3473 142.939 72.3473 142.939C72.3473 142.939 72.3473 142.939 72.3473 142.939C72.3473 142.939 72.3473 142.939 72.3473 142.939C72.3473 142.939 72.3473 142.939 72.3473 142.939C72.3473 142.939 72.3473 142.939 72.3473 142.939C72.3473 142.939 72.3473 142.939 72.3473 142.939C72.3473 142.939 72.3473 142.939 72.3473 142.939C72.3473 142.939 72.3473 142.939 72.3473 142.939C72.3473 142.939 72.3473 142.939 72.3473 142.939C72.3473 142.939 72.3473 142.939 72.3473 142.939C72.3473 142.939 72.3473 142.939 72.3473 142.939C72.3473 142.939 72.3473 142.939 72.3473 142.939C72.3473 142.939 72.3473 142.939 72.3473 142.939C72.3473 142.939 72.3473 142.939 72.3473 142.939C72.3473 142.939 72.3473 142.939 72.3473 142.939C72.3473 142.939 72.3473 142.939 72.3473 142.939C72.3473 142.939 72.3473 142.939 72.3473 142.939C72.3473 142.939 72.3473 142.939 72.3473 142.939C72.3473 142.939 72.3473 142.939 72.3473 142.939C72.3473 142.939 72.3473 142.939 72.3473 142.939C72.3473 142.939 72.3473 142.939 72.3473 142.939C72.3473 142.939 72.3473 142.939 72.3473 142.939C72.3473 142.939 72.3473 142.939 72.3473 142.939C72.3473 142.939 72.3473 142.939 72.3473 142.939C72.3473 142.939 72.3473 142.939 72.3473 142.939C72.3473 142.939 72.3473 142.939 72.3473 142.939C72.3473 142.939 72.3473 142.939 72.3473 142.939C72.3473 142.939 72.3473 142.939 72.3473 142.939C72.3473 142.939 72.3473 142.939 72.3473 142.939C72.3473 142.939 72.3473 142.939 72.3473 142.939C72.3473 142.939 72.3473 142.939 72.3473 142.939C72.3473 142.939 72.3473 142.939 72.3473 142.939C72.3473 142.939 72.3473 142.939 72.3473 142.939C72.3473 142.939 72.3473 142.939 72.3473 142.939C72.3473 142.939 72.3473 142.939 72.3473 142.939C72.3473 142.939 72.3473 142.939 72.3473 142.939C72.3473 142.939 72.3473 142.939 72.3473 142.939C72.3473 142.939 72.3473 142.939 72.3473 142.939C72.3473 142.939 72.3473 142.939 72.3473 142.939C72.3473 142.939 72.3473 142.939 72.3473 142.939C72.3473 142.939 72.3473 142.939 72.3473 142.939C72.3473 142.939 72.3473 142.939 72.3473 142.939C72.3473 142.939 72.3473 142.939 72.3473 142.939C72.3473 142.939 72.3473 142.939 72.3473 142.939C72.3473 142.939 72.3473 142.939 72.3473 142.939C72.3473 142.939 72.3473 142.939 72.3473 142.939C72.3473 142.939 72.3473 142.939 72.3473 142.939C72.3473 142.939 72.3473 142.939 72.3473 142.939C72.3473 142.939 72.3473 142.939 72.3473 142.939C72.3473 142.939 72.3473 142.939 72.3473 142.939C72.3473 142.939 72.3473 142.939 72.3473 142.939C72.3473 142.939 72.3473 142.939 72.3473 142.939C72.3473 142.939 72.3473 142.939 72.3473 142.939C72.3473 142.939 72.3473 142.939 72.3473 142.939C72.3473 142.939 72.3473 142.939 72.3473 142.939C72.3473 142.939 72.3473 142.939 72.3473 142.939C72.3473 142.939 72.3473 142.939 72.3473 142.939C72.3473 142.939 72.3473 142.939 72.3473 142.939C72.3473 142.939 72.3473 142.939 72.3473 142.939C72.3473 142.939 72.3473 142.939 72.3473 142.939C72.3473 142.939 72.3473 142.939 72.3473 142.939C72.3473 142.939 72.3473 142.939 72.3473 142.939C72.3473 142.939 72.3473 142.939 72.3473 142.939C72.3473 142.939 72.3473 142.939 72.3473 142.939C72.3473 142.939 72.3473 142.939 72.3473 142.939C72.3473 142.939 72.3473 142.939 72.3473 142.939C72.3473 142.939 72.3473 142.939 72.3473 142.939C72.3473 142.939 72.3473 142.939 72.3473 142.939C72.3473 142.939 72.3473 142.939 72.3473 142.939C72.3473 142.939 72.3473 142.939 72.3473 142.939C72.3473 142.939 72.3473 142.939 72.3473 142.939C72.3473 142.939 72.3473 142.939 72.3473 142.939C72.3473 142.939 72.3473 142.939 72.3473 142.939C72.3473 142.939 72.3473 142.939 72.3473 142.939C72.3473 142.939 72.3473 142.939 72.3473 142.939C72.3473 142.939 72.3473 142.939 72.3473 142.939C72.3473 142.939 72.3473 142.939 72.3473 142.939C72.3473 142.939 72.3473 142.939 72.3473 142.939C72.3473 142.939 72.3473 142.939 72.3473 142.939C72.3473 142.939 72.3473 142.939 72.3473 142.939C72.3473 142.939 72.3473 142.939 72.3473 142.939C72.3473 142.939 72.3473 142.939 72.3473 142.939C72.3473 142.939 72.3473 142.939 72.3473 142.939C72.3473 142.939 72.3473 142.939 72.3473 142.939C72.3473 142.939 72.3473 142.939 72.3473 142.939C72.3473 142.939 72.3473 142.939 72.3473 142.939C72.3473 142.939 72.3473 142.939 72.3473 142.939C72.3473 142.939 72.3473 142.939 72.3473 142.939C72.3473 142.939 72.3473 142.939 72.3473 142.939C72.3473 142.939 72.3473 142.939 72.3473 142.939C72.3473 142.939 72.3473 142.939 72.3473 142.939C72.3473 142.939 72.3473 142.939 72.3473 142.939C72.3473 142.939 72.3473 142.939 72.3473 142.939C72.3473 142.939 72.3473 142.939 72.3473 142.939C72.3473 142.939 72.3473 142.939 72.3473 142.939C72.3473 142.939 72.3473 142.939 72.3473 142.939C72.3473 142.939 72.3473 142.939 72.3473 142.939C72.3473 142.939 72.3473 142.939 72.3473 142.939C72.3473 142.939 72.3473 142.939 72.3473 142.939C72.3473 142.939 72.3473 142.939 72.3473 142.939C72.3473 142.939 72.3473 142.939 72.3473 142.939C72.3473 142.939 72.3473 142.939 72.3473 142.939C72.3473 142.939 72.3473 142.939 72.3473 142.939C72.3473 142.939 72.3473 142.939 72.3473 142.939C72.3473 142.939 72.3473 142.939 72.3473 142.939C72.3473 142.939 72.3473 142.939 72.3473 142.939C72.3473 142.939 72.3473 142.939 72.3473 142.939C72.3473 142.939 72.3473 142.939 72.3473 142.939C72.3473 142.939 72.3473 142.939 72.3473 142.939C72.3473 142.939 72.3473 142.939 72.3473 142.939C72.3473 142.939 72.3473 142.939 72.3473 142.939C72.3473 142.939 72.3473 142.939 72.3473 142.939C72.3473 142.939 72.3473 142.939 72.3473 142.939C72.3473 142.939 72.3473 142.939 72.3473 142.939C72.3473 142.939 72.3473 142.939 72.3473 142.939C72.3473 142.939 72.3473 142.939 72.3473 142.939C72.3473 142.939 72.3473 142.939 72.3473 142.939C72.3473 142.939 72.3473 142.939 72.3473 142.939C72.3473 142.939 72.3473 142.939 72.3473 142.939C72.3473 142.939 72.3473 142.939 72.3473 142.939C72.3473 142.939 72.3473 142.939 72.3473 142.939C72.3473 142.939 72.3473 142.939 72.3473 142.939C72.3473 142.939 72.3473 142.939 72.3473 142.939C72.3473 142.939 72.3473 142.939 72.3473 142.939C72.3473 142.939 72.3473 142.939 72.3473 142.939C72.3473 142.939 72.3473 142.939 72.3473 142.939C72.3473 142.939 72.3473 142.939 72.3473 142.939C72.3473 142.939 72.3473 142.939 72.3473 142.939C72.3473 142.939 72.3473 142.939 72.3473 142.939C72.3473 142.939 72.3473 142.939 72.3473 142.939C72.3473 142.939 72.3473 142.939 72.3473 142.939C72.3473 142.939 72.3473 142.939 72.3473 142.939C72.3473 142.939 72.3473 142.939 72.3473 142.939C72.3473 142.939 72.3473 142.939 72.3473 142.939C72.3473 142.939 72.3473 142.939 72.3473 142.939C72.3473 142.939 72.3473 142.939 72.3473 142.939C72.3473 142.939 72.3473 142.939 72.3473 142.939C72.3473 142.939 72.3473 142.939 72.3473 142.939C72.3473 142.939 72.3473 142.939 72.3473 142.939C72.3473 142.939 72.3473 142.939 72.3473 142.939C72.3473 142.939 72.3473 142.939 72.3473 142.939C72.3473 142.939 72.3473 142.939 72.3473 142.939C72.3473 142.939 72.3473 142.939 72.3473 142.939C72.3473 142.939 72.3473 142.939 72.3473 142.939C72.3473 142.939 72.3473 142.939 72.3473 142.939C72.3473 142.939 72.3473 142.939 72.3473 142.939C72.3473 142.939 72.3473 142.939 72.3473 142.939C72.3473 142.939 72.3473 142.939 72.3473 142.939C72.3473 142.939 72.3473 142.939 72.3473 142.939C72.3473 142.939 72.3473 142.939 72.3473 142.939C72.3473 142.939 72.3473 142.939 72.3473 142.939C72.3473 142.939 72.3473 142.939 72.3473 142.939C72.3473 142.939 72.3473 142.939 72.3473 142.939C72.3473 142.939 72.3473 142.939 72.3473 142.939C72.3473 142.939 72.3473 142.939 72.3473 142.939C72.3473 142.939 72.3473 142.939 72.3473 142.939C72.3473 142.939 72.3473 142.939 72.3473 142.939C72.3473 142.939 72.3473 142.939 72.3473 142.939C72.3473 142.939 72.3473 142.939 72.3473 142.939C72.3473 142.939 72.3473 142.939 72.3473 142.939C72.3473 142.939 72.3473 142.939 72.3473 142.939C72.3473 142.939 72.3473 142.939 72.3473 142.939C72.3473 142.939 72.3473 142.939 72.3473 142.939C72.3473 142.939 72.3473 142.939 72.3473 142.939C72.3473 142.939 72.3473 142.939 72.3473 142.939C72.3473 142.939 72.3473 142.939 72.3473 142.939C72.3473 142.939 72.3473 142.939 72.3473 142.939C72.3473 142.939 72.3473 142.939 72.3473 142.939C72.3473 142.939 72.3473 142.939 72.3473 142.939C72.3473 142.939 72.3473 142.939 72.3473 142.939C72.3473 142.939 72.3473 142.939 72.3473 142.939C72.3473 142.939 72.3473 142.939 72.3473 142.939C72.3473 142.939 72.3473 142.939 72.3473 142.939C72.3473 142.939 72.3473 142.939 72.3473 142.939C72.3473 142.939 72.3473 142.939 72.3473 142.939C72.3473 142.939 72.3473 142.939 72.3473 142.939C72.3473 142.939 72.3473 142.939 72.3473 142.939C72.3473 142.939 72.3473 142.939 72.3473 142.939C72.3473 142.939 72.3473 142.939 72.3473 142.939C72.3473 142.939 72.3473 142.939 72.3473 142.939C72.3473 142.939 72.3473 142.939 72.3473 142.939C72.3473 142.939 72.3473 142.939 72.3473 142.939C72.3473 142.939 72.3473 142.939 72.3473 142.939C72.3473 142.939 72.3473 142.939 72.3473 142.939C72.3473 142.939 72.3473 142.939 72.3473 142.939C72.3473 142.939 72.3473 142.939 72.3473 142.939C72.3473 142.939 72.3473 142.939 72.3473 142.939C72.3473 142.939 72.3473 142.939 72.3473 142.939C72.3473 142.939 72.3473 142.939 72.3473 142.939C72.3473 142.939 72.3473 142.939 72.3473 142.939C72.3473 142.939 72.3473 142.939 72.3473 142.939C72.3473 142.939 72.3473 142.939 72.3473 142.939C72.3473 142.939 72.3473 142.939 72.3473 142.939C72.3473 142.939 72.3473 142.939 72.3473 142.939C72.3473 142.939 72.3473 142.939 72.3473 142.939C72.3473 142.939 72.3473 142.939 72.3473 142.939C72.3473 142.939 72.3473 142.939 72.3473 142.939C72.3473 142.939 72.3473 142.939 72.3473 142.939C72.3473 142.939 72.3473 142.939 72.3473 142.939C72.3473 142.939 72.3473 142.939 72.3473 142.939C72.3473 142.939 72.3473 142.939 72.3473 142.939C72.3473 142.939 72.3473 142.939 72.3473 142.939C72.3473 142.939 72.3473 142.939 72.3473 142.939C72.3473 142.939 72.3473 142.939 72.3473 142.939C72.3473 142.939 72.3473 142.939 72.3473 142.939C72.3473 142.939 72.3473 142.939 72.3473 142.939C72.3473 142.939 72.3473 142.939 72.3473 142.939C72.3473 142.939 72.3473 142.939 72.3473 142.939C72.3473 142.939 72.3473 142.939 72.3473 142.939C72.3473 142.939 72.3473 142.939 72.3473 142.939C72.3473 142.939 72.3473 142.939 72.3473 142.939C72.3473 142.939 72.3473 142.939 72.3473 142.939C72.3473 142.939 72.3473 142.939 72.3473 142.939C72.3473 142.939 72.3473 142.939 72.3473 142.939C72.3473 142.939 72.3473 142.939 72.3473 142.939C72.3473 142.939 72.3473 142.939 72.3473 142.939C72.3473 142.939 72.3473 142.939 72.3473 142.939C72.3473 142.939 72.3473 142.939 72.3473 142.939C72.3473 142.939 72.3473 142.939 72.3473 142.939C72.3473 142.939 72.3473 142.939 72.3473 142.939C72.3473 142.939 72.3473 142.939 72.3473 142.939C72.3473 142.939 72.3473 142.939 72.3473 142.939C72.3473 142.939 72.3473 142.939 72.3473 142.939C72.3473 142.939 72.3473 142.939 72.3473 142.939C72.3473 142.939 72.3473 142.939 72.3473 142.939C72.3473 142.939 72.3473 142.939 72.3473 142.939C72.3473 142.939 72.3473 142.939 72.3473 142.939C72.3473 142.939 72.3473 142.939 72.3473 142.939C72.3473 142.939 72.3473 142.939 72.3473 142.939C72.3473 142.939 72.3473 142.939 72.3473 142.939C72.3473 142.939 72.3473 142.939 72.3473 142.939C72.3473 142.939 72.3473 142.939 72.3473 142.939C72.3473 142.939 72.3473 142.939 72.3473 142.939C72.3473 142.939 72.3473 142.939 72.3473 142.939C72.3473 142.939 72.3473 142.939 72.3473 142.939C72.3473 142.939 72.3473 142.939 72.3473 142.939C72.3473 142.939 72.3473 142.939 72.3473 142.939C72.3473 142.939 72.3473 142.939 72.3473 142.939C72.3473 142.939 72.3473 142.939 72.3473 142.939C72.3473 142.939 72.3473 142.939 72.3473 142.939C72.3473 142.939 72.3473 142.939 72.3473 142.939C72.3473 142.939 72.3473 142.939 72.3473 142.939C72.3473 142.939 72.3473 142.939 72.3473 142.939C72.3473 142.939 72.3473 142.939 72.3473 142.939C72.3473 142.939 72.3473 142.939 72.3473 142.939C72.3473 142.939 72.3473 142.939 72.3473 142.939C72.3473 142.939 72.3473 142.939 72.3473 142.939C72.3473 142.939 72.3473 142.939 72.3473 142.939C72.3473 142.939 72.3473 142.939 72.3473 142.939C72.3473 142.939 72.3473 142.939 72.3473 142.939C72.3473 142.939 72.3473 142.939 72.3473 142.939C72.3473 142.939 72.3473 142.939 72.3473 142.939C72.3473 142.939 72.3473 142.939 72.3473 142.939C72.3473 142.939 72.3473 142.939 72.3473 142.939C72.3473 142.939 72.3473 142.939 72.3473 142.939C72.3473 142.939 72.3473 142.939 72.3473 142.939C72.3473 142.939 72.3473 142.939 72.3473 142.939C72.3473 142.939 72.3473 142.939 72.3473 142.939C72.3473 142.939 72.3473 142.939 72.3473 142.939C72.3473 142.939 72.3473 142.939 72.3473 142.939C72.3473 142.939 72.3473 142.939 72.3473 142.939C72.3473 142.939 72.3473 142.939 72.3473 142.939C72.3473 142.939 72.3473 142.939 72.3473 142.939C72.3473 142.939 72.3473 142.939 72.3473 142.939C72.3473 142.939 72.3473 142.939 72.3473 142.939C72.3473 142.939 72.3473 142.939 72.3473 142.939C72.3473 142.939 72.3473 142.939 72.3473 142.939C72.3473 142.939 72.3473 142.939 72.3473 142.939C72.3473 142.939 72.3473 142.939 72.3473 142.939C72.3473 142.939 72.3473 142.939 72.3473 142.939C72.3473 142.939 72.3473 142.939 72.3473 142.939C72.3473 142.939 72.3473 142.939 72.3473 142.939C72.3473 142.939 72.3473 142.939 72.3473 142.939C72.3473 142.939 72.3473 142.939 72.3473 142.939C72.3473 142.939 72.3473 142.939 72.3473 142.939C72.3473 142.939 72.3473 142.939 72.3473 142.939C72.3473 142.939 72.3473 142.939 72.3473 142.939C72.3473 142.939 72.3473 142.939 72.3473 142.939C72.3473 142.939 72.3473 142.939 72.3473 142.939C72.3473 142.939 72.3473 142.939 72.3473 142.939C72.3473 142.939 72.3473 142.939 72.3473 142.939C72.3473 142.939 72.3473 142.939 72.3473 142.939C72.3473 142.939 72.3473 142.939 72.3473 142.939C72.3473 142.939 72.3473 142.939 72.3473 142.939C72.3473 142.939 72.3473 142.939 72.3473 142.939C72.3473 142.939 72.3473 142.939 72.3473 142.939C72.3473 142.939 72.3473 142.939 72.3473 142.939C72.3473 142.939 72.3473 142.939 72.3473 142.939C72.3473 142.939 72.3473 142.939 72.3473 142.939C72.3473 142.939 72.3473 142.939 72.3473 142.939C72.3473 142.939 72.3473 142.939 72.3473 142.939C72.3473 142.939 72.3473 142.939 72.3473 142.939C72.3473 142.939 72.3473 142.939 72.3473 142.939C72.3473 142.939 72.3473 142.939 72.3473 142.939C72.3473 142.939 72.3473 142.939 72.3473 142.939C72.3473 142.939 72.3473 142.939 72.3473 142.939C72.3473 142.939 72.3473 142.939 72.3473 142.939C72.3473 142.939 72.3473 142.939 72.3473 142.939C72.3473 142.939 72.3473 142.939 72.3473 142.939C72.3473 142.939 72.3473 142.939 72.3473 142.939C72.3473 142.939 72.3473 142.939 72.3473 142.939C72.3473 142.939 72.3473 142.939 72.3473 142.939C72.3473 142.939 72.3473 142.939 72.3473 142.939C72.3473 142.939 72.3473 142.939 72.3473 142.939C72.3473 142.939 72.3473 142.939 72.3473 142.939C72.3473 142.939 72.3473 142.939 72.3473 142.939C72.3473 142.939 72.3473 142.939 72.3473 142.939C72.3473 142.939 72.3473 142.939 72.3473 142.939C72.3473 142.939 72.3473 142.939 72.3473 142.939C72.3473 142.939 72.3473 142.939 72.3473 142.939C72.3473 142.939 72.3473 142.939 72.3473 142.939C72.3473 142.939 72.3473 142.939 72.3473 142.939C72.3473 142.939 72.3473 142.939 72.3473 142.939C72.3473 142.939 72.3473 142.939 72.3473 142.939C72.3473 142.939 72.3473 142.939 72.3473 142.939C72.3473 142.939 72.3473 142.939 72.3473 142.939C72.3473 142.939 72.3473 142.939 72.3473 142.939C72.3473 142.939 72.3473 142.939 72.3473 142.939C72.3473 142.939 72.3473 142.939 72.3473 142.939C72.3473 142.939 72.3473 142.939 72.3473 142.939C72.3473 142.939 72.3473 142.939 72.3473 142.939C72.3473 142.939 72.3473 142.939 72.3473 142.939C72.3473 142.939 72.3473 142.939 72.3473 142.939C72.3473 142.939 72.3473 142.939 72.3473 142.939C72.3473 142.939 72.3473 142.939 72.3473 142.939C72.3473 142.939 72.3473 142.939 72.3473 142.939C72.3473 142.939 72.3473 142.939 72.3473 142.939C72.3473 142.939 72.3473 142.939 72.3473 142.939C72.3473 142.939 72.3473 142.939 72.3473 142.939C72.3473 142.939 72.3473 142.939 72.3473 142.939C72.3473 142.939 72.3473 142.939 72.3473 142.939C72.3473 142.939 72.3473 142.939 72.3473 142.939C72.3473 142.939 72.3473 142.939 72.3473 142.939C72.3473 142.939 72.3473 142.939 72.3473 142.939C72.3473 142.939 72.3473 142.939 72.3473 142.939C72.3473 142.939 72.3473 142.939 72.3473 142.939C72.3473 142.939 72.3473 142.939 72.3473 142.939C72.3473 142.939 72.3473 142.939 72.3473 142.939C72.3473 142.939 72.3473 142.939 72.3473 142.939C72.3473 142.939 72.3473 142.939 72.3473 142.939C72.3473 142.939 72.3473 142.939 72.3473 142.939C72.3473 142.939 72.3473 142.939 72.3473 142.939C72.3473 142.939 72.3473 142.939 72.3473 142.939C72.3473 142.939 72.3473 142.939 72.3473 142.939C72.3473 142.939 72.3473 142.939 72.3473 142.939C72.3473 142.939 72.3473 142.939 72.3473 142.939C72.3473 142.939 72.3473 142.939 72.3473 142.939C72.3473 142.939 72.3473 142.939 72.3473 142.939C72.3473 142.939 72.3473 142.939 72.3473 142.939C72.3473 142.939 72.3473 142.939 72.3473 142.939C72.3473 142.939 72.3473 142.939 72.3473 142.939C72.3473 142.939 72.3473 142.939 72.3473 142.939C72.3473 142.939 72.3473 142.939 72.3473 142.939C72.3473 142.939 72.3473 142.939 72.3473 142.939C72.3473 142.939 72.3473 142.939 72.3473 142.939C72.3473 142.939 72.3473 142.939 72.3473 142.939C72.3473 142.939 72.3473 142.939 72.3473 142.939C72.3473 142.939 72.3473 142.939 72.3473 142.939C72.3473 142.939 72.3473 142.939 72.3473 142.939C72.3473 142.939 72.3473 142.939 72.3473 142.939H66.3473ZM0 145.94H69.3473V139.94H0L0 145.94Z" fill="black" mask="url(#path-1-inside-1)"/>
</svg>
