<svg width="658" height="304" viewBox="0 0 658 304" fill="none" xmlns="http://www.w3.org/2000/svg">
<path d="M6.33559 42.483L5.29116 36.8461L26.1477 32.9817L21.9003 10.0583L1.04381 13.9227L-0.00061439 8.2858L44.7188 0L45.7632 5.63689L26.8483 9.14153L31.0956 32.0649L50.0105 28.5603L51.055 34.1972L6.33559 42.483Z" fill="black"/>
<path d="M21.5371 89.5745L32.9669 79.6983L26.9299 62.7127L11.8523 62.3254L9.91102 56.8636L58.897 58.3139L60.6249 63.1755L23.521 95.1563L21.5371 89.5745ZM48.4503 66.9618C48.7277 66.728 49.2368 66.3217 49.9775 65.743C50.7183 65.1643 51.479 64.5784 52.2597 63.9854C53.0947 63.4183 53.7238 62.9693 54.1471 62.6386C52.8072 62.7994 51.473 62.913 50.1446 62.9795C48.8562 63.0319 47.8292 63.0588 47.0637 63.0605L32.3715 62.8067L37.1926 76.3712L48.4503 66.9618Z" fill="black"/>
<path d="M96.8545 107.029C93.9193 108.3 91.2764 108.515 88.9256 107.674C86.6325 106.849 84.5156 104.669 82.575 101.132C80.5731 97.4834 79.8608 94.5078 80.438 92.2052C81.0356 89.9397 82.698 87.9377 85.4254 86.1991L87.9379 90.7783C86.0297 92.0675 84.9568 93.3343 84.7193 94.5787C84.5394 95.8399 84.9806 97.4385 86.0428 99.3744C86.9825 101.087 88.0715 102.233 89.31 102.813C90.6061 103.41 92.2732 103.27 94.3113 102.394L96.8545 107.029ZM69.5655 86.691L72.1393 91.3819L50.2484 103.393C49.0199 104.067 47.6322 104.805 46.0853 105.605C44.5385 106.405 43.1117 107.115 41.8051 107.735C40.5189 108.393 39.5575 108.848 38.9209 109.1L39.0435 109.323L84.0894 113.161L87.1536 118.746L47.2808 140.623L44.707 135.933L66.3745 124.044C67.752 123.288 69.2328 122.5 70.8168 121.679C72.4213 120.895 73.8955 120.183 75.2394 119.543C76.5833 118.902 77.5447 118.448 78.1235 118.178L78.001 117.955L32.7569 114.153L29.6927 108.569L69.5655 86.691Z" fill="black"/>
<path d="M113.434 153.52L81.7384 178.546L85.3305 183.095L71.9323 193.674L68.5376 189.375L77.9363 181.954L58.555 157.407L49.1563 164.828L45.7616 160.529L59.1597 149.95L61.3308 152.699C64.3445 152.268 67.5556 151.572 70.964 150.612C74.3987 149.686 77.8449 148.534 81.3024 147.157C84.7932 145.753 88.1656 144.199 91.4196 142.496C94.6736 140.792 97.6697 138.968 100.408 137.022L113.434 153.52ZM99.4769 144.169C97.4386 145.562 94.9924 146.952 92.1383 148.34C89.3106 149.761 86.2978 151.085 83.0999 152.311C79.9616 153.545 76.8278 154.612 73.6983 155.514C70.5951 156.449 67.7226 157.094 65.0807 157.449L78.2253 174.097L105.872 152.268L99.4769 144.169Z" fill="black"/>
<path d="M111.445 215.503L92.9616 198.059L124.178 164.983L142.662 182.428L139.208 186.087L124.894 172.578L115.144 182.908L128.624 195.631L125.214 199.244L111.734 186.521L100.585 198.334L114.899 211.844L111.445 215.503ZM133.622 161.195C134.379 160.392 135.135 160.025 135.888 160.093C136.67 160.131 137.354 160.426 137.941 160.98C138.528 161.534 138.863 162.2 138.945 162.979C139.057 163.727 138.734 164.502 137.976 165.305C137.247 166.077 136.477 166.46 135.666 166.453C134.884 166.416 134.2 166.12 133.613 165.566C133.026 165.013 132.691 164.346 132.609 163.568C132.555 162.758 132.893 161.967 133.622 161.195ZM142.331 169.415C143.088 168.612 143.828 168.23 144.55 168.269C145.333 168.307 146.017 168.602 146.604 169.156C147.191 169.71 147.525 170.376 147.608 171.155C147.72 171.903 147.397 172.678 146.639 173.481C145.91 174.253 145.14 174.636 144.329 174.629C143.547 174.592 142.862 174.296 142.275 173.742C141.689 173.188 141.354 172.522 141.271 171.744C141.249 170.963 141.602 170.187 142.331 169.415Z" fill="black"/>
<path d="M170.259 257.236L125.327 227.949L150.162 189.848L154.965 192.978L132.913 226.81L148.121 236.723L170.173 202.891L174.976 206.022L152.924 239.854L168.186 249.802L190.238 215.969L195.094 219.135L170.259 257.236Z" fill="black"/>
<path d="M189.362 265.989L206.678 223.934L211.979 226.116L204.655 243.904L212.548 247.154C216.474 248.771 219.378 250.586 221.258 252.6C223.138 254.614 224.217 256.735 224.494 258.961C224.771 261.188 224.449 263.421 223.528 265.659C222.008 269.35 219.523 271.817 216.072 273.06C212.637 274.263 208.348 273.806 203.204 271.688L189.362 265.989ZM204.541 266.934C211.413 269.764 215.916 268.587 218.05 263.403C219.166 260.694 219.007 258.401 217.575 256.526C216.143 254.65 213.621 252.969 210.008 251.482L202.763 248.499L196.531 263.636L204.541 266.934Z" fill="black"/>
<path d="M267.735 290.746L262.109 289.645L269.876 249.949L255.936 247.222L256.902 242.283L290.347 248.827L289.38 253.766L275.502 251.05L267.735 290.746Z" fill="black"/>
<path d="M337.286 274.163C337.102 278.873 336.135 282.957 334.385 286.416C332.679 289.834 330.239 292.459 327.065 294.29C323.891 296.121 320.013 296.946 315.43 296.767C310.72 296.583 306.833 295.454 303.769 293.379C300.748 291.306 298.542 288.479 297.152 284.897C295.762 281.316 295.159 277.17 295.344 272.46C295.526 267.792 296.449 263.748 298.113 260.329C299.776 256.909 302.195 254.283 305.369 252.453C308.585 250.623 312.569 249.802 317.322 249.987C321.862 250.165 325.643 251.29 328.664 253.363C331.687 255.393 333.915 258.2 335.348 261.784C336.824 265.326 337.47 269.453 337.286 274.163ZM301.388 272.76C301.164 278.488 302.197 283.055 304.486 286.459C306.777 289.821 310.49 291.602 315.624 291.803C320.801 292.005 324.641 290.519 327.145 287.344C329.651 284.127 331.016 279.655 331.239 273.926C331.463 268.198 330.45 263.675 328.2 260.357C325.951 256.997 322.26 255.216 317.125 255.016C311.991 254.815 308.129 256.3 305.541 259.471C302.996 262.602 301.612 267.031 301.388 272.76Z" fill="black"/>
<path d="M355.161 295.592C355.161 295.592 355.141 295.615 355.102 295.661L355.039 295.666C354.192 295.736 353.45 295.52 352.812 295.019C352.213 294.472 351.858 293.777 351.746 292.934C351.693 292.299 351.793 291.694 352.044 291.12C352.51 290.059 353.357 289.478 354.584 289.376C355.642 289.289 356.545 289.641 357.292 290.432C358.039 291.222 358.468 292.295 358.58 293.649C358.834 296.738 357.697 300.007 355.169 303.453L353.963 303.553L352.34 302.472C353.135 301.256 353.811 299.901 354.37 298.406C354.762 297.479 355.026 296.541 355.161 295.592Z" fill="black"/>
<path d="M426.716 281.939L421.166 283.373L416.497 265.303C414.324 266.742 412.259 267.999 410.3 269.075C408.372 270.1 406.133 270.942 403.584 271.6C399.473 272.663 396.042 272.54 393.292 271.233C390.531 269.885 388.683 267.402 387.749 263.784L383.207 246.207L388.758 244.773L393.092 261.548C393.708 263.933 394.787 265.562 396.328 266.435C397.9 267.257 400.084 267.307 402.88 266.585C405.306 265.958 407.427 265.169 409.242 264.217C411.058 263.266 413.078 262.086 415.302 260.678L409.788 239.339L415.339 237.905L426.716 281.939Z" fill="black"/>
<path d="M459.672 269.388L454.389 271.614L438.683 234.34L425.593 239.856L423.639 235.219L455.043 221.986L456.997 226.623L443.966 232.114L459.672 269.388Z" fill="black"/>
<path d="M508.134 216.814C510.61 220.826 512.087 224.755 512.565 228.602C513.057 232.39 512.497 235.929 510.885 239.22C509.273 242.51 506.515 245.36 502.612 247.769C498.601 250.245 494.746 251.477 491.046 251.465C487.382 251.431 483.974 250.315 480.821 248.119C477.669 245.923 474.855 242.819 472.38 238.808C469.926 234.833 468.435 230.962 467.907 227.196C467.379 223.43 467.921 219.902 469.533 216.611C471.182 213.298 474.029 210.393 478.077 207.895C481.943 205.508 485.708 204.332 489.372 204.366C493.014 204.364 496.429 205.45 499.617 207.624C502.819 209.74 505.658 212.803 508.134 216.814ZM477.563 235.684C480.574 240.562 483.979 243.775 487.778 245.322C491.556 246.833 495.63 246.24 500.003 243.541C504.412 240.82 506.769 237.443 507.075 233.412C507.359 229.344 505.996 224.871 502.985 219.993C499.974 215.114 496.609 211.926 492.89 210.429C489.149 208.896 485.092 209.478 480.72 212.177C476.347 214.876 473.972 218.263 473.593 222.339C473.228 226.357 474.552 230.805 477.563 235.684Z" fill="black"/>
<path d="M517.609 180.258L521.393 176.475L539.047 194.133C540.038 195.124 541.134 196.25 542.335 197.512C543.536 198.773 544.617 199.944 545.577 201.025C546.568 202.076 547.274 202.872 547.694 203.413L547.874 203.233L538.962 158.911L543.466 154.407L575.622 186.571L571.838 190.354L554.364 172.876C553.253 171.764 552.082 170.563 550.851 169.272C549.65 167.951 548.555 166.734 547.564 165.623C546.573 164.512 545.867 163.716 545.447 163.236L545.267 163.416L554.27 207.918L549.765 212.421L517.609 180.258Z" fill="black"/>
<path d="M566.756 130.929C563.897 134.889 562.974 138.962 563.985 143.148C564.996 147.335 567.809 151.093 572.423 154.423C577.003 157.728 581.393 159.3 585.595 159.138C589.787 158.917 593.412 156.689 596.469 152.453C597.637 150.835 598.605 149.203 599.373 147.558C600.142 145.913 600.816 144.253 601.397 142.577L605.426 145.485C604.948 147.235 604.296 148.938 603.468 150.592C602.665 152.212 601.531 154.038 600.064 156.07C597.356 159.823 594.319 162.397 590.955 163.793C587.592 165.188 584.021 165.491 580.244 164.703C576.491 163.879 572.686 162.076 568.83 159.293C565.111 156.608 562.324 153.576 560.47 150.195C558.606 146.755 557.839 143.138 558.169 139.343C558.464 135.524 559.979 131.72 562.712 127.932C565.521 124.041 568.692 121.172 572.226 119.323L574.809 124.016C573.472 124.779 572.088 125.718 570.656 126.831C569.249 127.91 567.948 129.276 566.756 130.929Z" fill="black"/>
<path d="M631.376 100.749L628.204 106.853L598.256 114.478L618.717 125.11L616.074 130.197L575.717 109.227L578.36 104.14L597.917 114.302L587.612 86.3349L590.608 80.5695L601.116 108.283L631.376 100.749Z" fill="black"/>
<path d="M646.105 60.3093L631.01 60.8808L625.113 77.9155L636.645 87.6371L634.748 93.1147L597.404 61.3799L599.092 56.5042L648.043 54.7114L646.105 60.3093ZM610.963 61.1534C610.601 61.1626 609.949 61.1618 609.01 61.151C608.07 61.1402 607.11 61.1224 606.129 61.0977C605.123 61.0189 604.351 60.9765 603.814 60.9703C604.961 61.6818 606.074 62.4266 607.153 63.2045C608.191 63.9685 609.01 64.589 609.609 65.0659L620.923 74.4426L625.632 60.8389L610.963 61.1534Z" fill="black"/>
<path d="M657.31 8.26006L656.288 13.9012L616.487 6.69574L613.923 20.8613C616.947 21.7971 620.13 22.8051 623.474 23.885C626.775 24.9574 629.93 26.0033 632.939 27.0228C635.948 28.0422 638.497 28.9784 640.587 29.8315C643.288 30.8815 645.549 31.9813 647.369 33.1308C649.19 34.2803 650.48 35.6144 651.241 37.1331C652.009 38.61 652.201 40.414 651.815 42.5451C651.686 43.2555 651.47 43.9716 651.167 44.6935C650.913 45.3812 650.632 45.9777 650.325 46.4831L645.624 45.6321C645.916 45.2102 646.199 44.722 646.472 44.1672C646.703 43.6049 646.879 42.9895 647 42.3209C647.227 41.0673 646.904 39.9945 646.029 39.1026C645.121 38.1613 643.952 37.3456 642.524 36.6554C641.053 35.9577 639.592 35.3264 638.141 34.7615C636.614 34.1398 634.366 33.323 631.399 32.3111C628.398 31.2498 624.899 30.077 620.902 28.7924C616.913 27.466 612.652 26.0905 608.12 24.6658L612.557 0.158179L657.31 8.26006Z" fill="black"/>
</svg>
