<svg width="766" height="277" viewBox="0 0 766 277" fill="none" xmlns="http://www.w3.org/2000/svg">
<path d="M660.967 191.451L638.163 182.931L616.768 240.544L583.992 228.296L637.075 85.2832L669.85 97.5748L648.396 155.392L672.056 164.173L730.988 120.367L765.825 133.372L693.495 184.956L714.151 276.924L676.672 262.928L660.967 191.451Z" fill="black"/>
<path d="M126.689 119.697L198.859 171.965L146.894 195.485L98.4134 157.737L85.5094 163.562L107.805 213.165L61.6898 234.049L0 96.8179L46.115 75.9485L69.1216 127.11L83.1869 120.746L89.2978 56.4043L137.372 34.6465L126.689 119.697Z" fill="black"/>
<path d="M290.638 116.42C292.429 123.605 291.384 131.178 287.503 139.139C282.336 149.819 274.444 156.183 263.829 158.232C253.213 160.281 240.488 157.688 225.654 150.455L169.596 123.047L229.341 0L282.074 25.7773C295.506 32.3503 304.665 40.2 309.552 49.3264C314.439 58.4529 314.41 68.1133 309.465 78.3077C306.676 84.4437 302.028 89.5401 296.183 92.8712C290.283 95.9824 283.591 97.2552 276.965 96.5266C284.281 102.614 288.839 109.245 290.638 116.42ZM270.491 129.09C273.917 122.061 274.072 115.716 270.956 110.056C267.84 104.396 261.613 99.2888 252.275 94.7353L213.911 75.9776L193.677 117.644L232.04 136.401C250.852 145.596 263.669 143.159 270.491 129.09ZM220.399 62.6229L254.553 79.3126C263.079 83.4777 270.414 84.9632 276.559 83.769C282.703 82.5748 287.372 78.6912 290.566 72.1182C293.759 65.5647 293.914 59.4432 291.03 53.7537C288.147 48.0643 282.505 43.1661 274.106 39.0592L239.937 22.3695L220.399 62.6229Z" fill="black"/>
<path d="M221.387 232.797H137.692L111.158 274.113H99.4297L194.505 127.299H204.999L242.405 274.113H231.664L221.387 232.797ZM219.122 223.767L197.945 138.615L143.44 223.767H219.122Z" fill="black"/>
<path d="M447.418 57.5683C462.117 66.7724 470.827 81.1708 473.546 100.764C476.197 120.181 471.683 136.308 460.003 149.143C448.323 161.979 430.876 170.003 407.661 173.217L354.898 180.498L363.186 241.112L349.731 242.976L324.314 57.6703L390.533 48.539C413.757 45.3059 432.719 48.3157 447.418 57.5683ZM449.276 141.862C458.45 131.755 461.948 118.686 459.771 102.657C457.594 86.6273 450.708 74.9425 439.116 67.6025C427.503 60.3014 411.866 58.0101 392.202 60.7286L339.439 68.0103L353.171 168.323L405.934 161.042C425.616 158.323 440.064 151.93 449.276 141.862Z" fill="black"/>
<path d="M528.588 127.314L569.87 166.461L543.162 194.816L527.514 179.975L488.933 220.942L504.58 235.768L477.872 264.123L436.591 224.977L438.637 222.807C442.711 218.467 443.369 213.355 440.611 207.471C437.854 201.588 432.439 194.568 424.369 186.412L397.312 158.946L465.665 86.3906L519.255 137.203L528.588 127.314ZM466.1 176.043C468.85 179.487 470.737 183.542 471.602 187.869L490.471 167.8L462.37 141.149L447.927 156.47L452.732 161.276C457.494 165.91 461.959 170.843 466.1 176.043V176.043Z" fill="black"/>
<path d="M625.606 32.0391L614.938 149.654L601.453 150.833L603.224 132.279C598.91 138.718 593.248 144.135 586.633 148.154C579.826 152.212 572.175 154.634 564.279 155.231C556.038 156.108 547.712 154.771 540.155 151.357C532.885 147.988 526.763 142.549 522.548 135.716C517.847 127.969 515.088 119.194 514.507 110.143C513.258 97.9926 514.823 85.7172 519.079 74.2731C522.889 63.9032 529.449 54.7737 538.05 47.8695C546.458 41.1503 556.683 37.1171 567.4 36.2916C577.319 35.4178 585.835 36.8499 592.947 40.5878C600.139 44.3862 605.872 50.4712 609.248 57.8892L611.498 33.2915L625.606 32.0391ZM588.578 132.119C595.232 126.659 600.255 119.463 603.093 111.323C606.298 102.254 607.444 92.5811 606.446 83.0112C605.479 71.7099 601.7 63.132 595.11 57.2775C588.52 51.423 579.811 48.9958 568.982 49.9958C560.702 50.6257 552.816 53.7987 546.397 59.0834C539.755 64.6025 534.737 71.8322 531.881 79.9965C528.661 89.077 527.5 98.7641 528.485 108.352C529.452 119.653 533.226 128.192 539.807 133.969C546.387 139.746 555.096 142.173 565.934 141.25C574.233 140.594 582.134 137.408 588.578 132.119Z" fill="black"/>
<path d="M363.258 211.768L272.03 259.361L255.468 238.331L264.395 233.555C255.357 232.07 247.011 227.78 240.531 221.288C234.05 214.796 229.761 206.429 228.266 197.364C227.191 189.987 228.197 182.455 231.169 175.621C234.557 167.907 239.865 161.196 246.585 156.135C254.713 149.505 264.353 145.001 274.643 143.028C284.175 141.175 294.03 141.94 303.165 145.242C312.164 148.483 320.054 154.232 325.91 161.815C335.161 173.573 337.706 185.015 333.545 196.141L345.869 189.617L363.258 211.768ZM273.815 218.03C278.811 219.694 284.171 219.921 289.288 218.685C295.081 217.289 300.481 214.59 305.081 210.792C310.481 206.51 313.543 201.588 314.269 196.025C314.995 190.461 313.19 184.927 308.855 179.422C305.677 175.242 301.332 172.104 296.372 170.407C291.383 168.738 286.027 168.506 280.913 169.738C275.116 171.143 269.714 173.858 265.121 177.675C259.702 181.956 256.639 186.884 255.932 192.457C255.226 198.029 257.007 203.544 261.274 209.001C264.474 213.186 268.838 216.328 273.815 218.03Z" fill="black"/>
</svg>
