<svg width="165" height="440" viewBox="0 0 165 440" fill="none" xmlns="http://www.w3.org/2000/svg">
<path d="M67.9357 31.1238C62.7703 26.1416 57.0374 23.9501 50.737 24.5493C44.4366 25.1485 38.3837 28.4576 32.5783 34.4764C26.8163 40.4503 23.6156 46.5104 22.9762 52.6566C22.4252 58.8013 24.912 64.538 30.4367 69.8668C32.5478 71.903 34.7199 73.6512 36.953 75.1115C39.1861 76.5717 41.4609 77.8988 43.7774 79.0928L38.7086 84.348C36.262 83.2888 33.9214 81.985 31.6868 80.4365C29.497 78.9313 27.0771 76.9007 24.427 74.3446C19.5311 69.6223 16.4185 64.6692 15.0891 59.4854C13.7598 54.3015 14.0621 49.044 15.996 43.713C17.9749 38.4252 21.3904 33.2661 26.2427 28.2354C30.9216 23.3844 35.9132 19.9621 41.2175 17.9686C46.6101 15.9735 52.0321 15.6108 57.4835 16.8805C62.9783 18.1054 68.1961 21.1006 73.1369 25.8662C78.2125 30.7618 81.727 35.9724 83.6804 41.4981L76.316 44.2791C75.4836 42.1756 74.4066 39.9663 73.0849 37.651C71.8081 35.3791 70.0917 33.2033 67.9357 31.1238Z" fill="black"/>
<path d="M72.9823 142.903L67.9278 134.147L82.1582 91.02L52.8112 107.962L48.5991 100.666L106.482 67.25L110.694 74.5462L82.6446 90.7392L125.437 100.083L130.21 108.352L87.5712 99.4604L72.9823 142.903Z" fill="black"/>
<path d="M142.812 140.889L144.497 148.569L108.655 156.432C106.644 156.873 104.382 157.337 101.869 157.825C99.3566 158.312 97.0507 158.722 94.9514 159.055C92.8655 159.449 91.3216 159.691 90.3195 159.783L90.3998 160.149L152.32 184.228L154.326 193.372L89.0421 207.693L87.3572 200.013L122.834 192.23C125.089 191.735 127.503 191.238 130.077 190.737C132.664 190.297 135.037 189.904 137.198 189.558C139.358 189.212 140.902 188.969 141.829 188.83L141.749 188.464L79.5345 164.354L77.5287 155.21L142.812 140.889Z" fill="black"/>
<path d="M151.49 281.559L92.4725 275.309L91.5754 283.78L66.6279 281.138L67.4757 273.132L84.9762 274.985L89.8165 229.279L72.3161 227.426L73.1639 219.42L98.1114 222.062L97.5692 227.182C101.18 229.824 105.27 232.391 109.838 234.882C114.4 237.436 119.205 239.765 124.253 241.869C129.364 243.979 134.504 245.81 139.674 247.361C144.844 248.913 149.867 250.072 154.743 250.84L151.49 281.559ZM146.424 257.395C142.851 256.766 138.852 255.715 134.427 254.242C129.995 252.831 125.469 251.128 120.848 249.133C116.283 247.206 111.893 245.109 107.677 242.843C103.455 240.639 99.7735 238.366 96.6326 236.026L93.3499 267.024L144.827 272.475L146.424 257.395Z" fill="black"/>
<path d="M60.2062 342.014L64.1103 332.688L107.044 317.884L75.7866 304.798L79.0401 297.027L140.691 322.838L137.438 330.609L107.562 318.101L126.051 357.808L122.364 366.616L103.608 327.304L60.2062 342.014Z" fill="black"/>
<path d="M104.109 396.352L99.0193 402.345L71.0508 378.591C69.4811 377.258 67.7414 375.739 65.8316 374.036C63.9218 372.332 62.1987 370.745 60.6623 369.277C59.0854 367.856 57.9569 366.774 57.2767 366.033L57.0343 366.318L75.3867 430.171L69.3271 437.305L18.3844 394.04L23.4745 388.046L51.1576 411.558C52.9176 413.052 54.7762 414.672 56.7335 416.416C58.6505 418.208 60.401 419.859 61.985 421.368C63.569 422.877 64.6975 423.958 65.3706 424.611L65.613 424.326L47.1071 360.221L53.1667 353.086L104.109 396.352Z" fill="black"/>
</svg>
