<svg width="683" height="527" viewBox="0 0 683 527" fill="none" xmlns="http://www.w3.org/2000/svg">
<path d="M81.655 470.518C86.6629 470.176 91.0325 470.213 94.7639 470.627C98.4081 471.016 101.581 472.095 104.284 473.865C106.929 475.665 109.286 478.497 111.355 482.361C112.207 483.952 112.9 485.519 113.433 487.061C113.936 488.546 114.293 489.964 114.504 491.313L106.918 495.375C106.821 493.964 106.593 492.515 106.234 491.025C105.818 489.566 105.23 488.126 104.47 486.706C102.766 483.524 100.745 481.389 98.4081 480.301C96.0404 479.156 92.6976 478.716 88.3796 478.981L55.6719 526.652L51.1539 518.214L75.5681 483.318C75.9842 482.73 76.5403 481.993 77.2365 481.109C77.8758 480.255 78.5172 479.473 79.1605 478.763L78.978 478.422C78.2312 478.529 77.3405 478.641 76.3056 478.756C75.2139 478.902 74.3231 479.013 73.6332 479.09L32.0321 482.503L27.6967 474.406L81.655 470.518Z" fill="black"/>
<path d="M6.1009 400.24L65.6037 385.525L63.4916 376.984L88.6441 370.764L90.6402 378.835L72.9958 383.199L84.3919 429.281L102.036 424.917L104.032 432.989L78.8797 439.209L77.6032 434.047C73.1669 432.754 68.2923 431.702 62.9793 430.891C57.6509 430.018 52.1654 429.449 46.5228 429.184C40.8177 428.935 35.1821 428.968 29.6162 429.282C24.0503 429.596 18.765 430.239 13.7602 431.211L6.1009 400.24ZM19.5287 421.917C23.2195 421.27 27.4725 420.882 32.2876 420.754C37.0872 420.563 42.0816 420.622 47.2707 420.932C52.3818 421.195 57.3829 421.685 62.274 422.401C67.1496 423.054 71.5244 423.964 75.3982 425.131L67.6693 393.878L15.7687 406.713L19.5287 421.917Z" fill="black"/>
<path d="M0.855469 357.979L1.0971 349.861L38.979 350.989C41.105 351.052 43.4878 351.155 46.1273 351.298C48.7668 351.441 51.1799 351.61 53.3665 351.804C55.555 351.933 57.1627 352.078 58.1897 352.237L58.2012 351.851L2.21896 312.172L2.50662 302.509L71.5058 304.562L71.2641 312.68L33.7688 311.564C31.3851 311.493 28.8413 311.385 26.1373 311.24C23.4353 311.031 20.9588 310.828 18.7077 310.632C16.4567 310.436 14.849 310.291 13.8845 310.198L13.873 310.585L70.1423 350.369L69.8546 360.032L0.855469 357.979Z" fill="black"/>
<path d="M15.4539 244.18C17.9705 235.918 21.1004 230.066 24.8438 226.625C28.5443 223.103 33.4157 222.262 39.458 224.103C43.3424 225.286 46.2507 227.351 48.183 230.298C50.0536 233.226 50.7391 236.837 50.2394 241.132L50.7019 241.273C51.9786 238.629 53.5407 236.377 55.3883 234.514C57.2547 232.589 59.464 231.308 62.0164 230.671C64.5688 230.033 67.5713 230.24 71.0241 231.292C77.0048 233.114 80.9999 236.588 83.0094 241.714C85.0377 246.779 84.972 252.857 82.8122 259.947L75.7413 283.161L9.70703 263.047L15.4539 244.18ZM44.0764 251.079C45.8042 245.407 46.0934 241.25 44.9439 238.609C43.7327 235.949 41.3391 234.075 37.763 232.986C34.1252 231.877 31.1413 232.384 28.8111 234.504C26.438 236.543 24.3969 240.368 22.6879 245.979L19.3638 256.892L40.3578 263.287L44.0764 251.079ZM47.2942 265.4L71.2478 272.696L75.3044 259.378C77.0886 253.521 77.1875 249.104 75.6011 246.128C74.0146 243.152 71.3717 241.1 67.6723 239.974C64.2196 238.922 61.0788 239.279 58.25 241.045C55.3784 242.731 53.0129 246.626 51.1536 252.73L47.2942 265.4Z" fill="black"/>
<path d="M38.9023 183.17L43.2271 176.296L75.305 196.478C77.1053 197.611 79.1066 198.908 81.309 200.37C83.5114 201.832 85.5057 203.201 87.2919 204.477C89.1125 205.698 90.4248 206.638 91.229 207.296L91.435 206.969L63.3062 144.382L68.4547 136.199L126.882 172.959L122.558 179.833L90.807 159.857C88.7885 158.587 86.6507 157.204 84.3938 155.707C82.1711 154.157 80.1395 152.726 78.2987 151.416C76.4579 150.105 75.1456 149.165 74.3616 148.596L74.1556 148.923L102.478 211.747L97.33 219.93L38.9023 183.17Z" fill="black"/>
<path d="M157.591 141.723L151.285 147.718L108.988 103.221L93.3617 118.075L88.0996 112.539L125.589 76.9034L130.851 82.4393L115.295 97.2264L157.591 141.723Z" fill="black"/>
<path d="M218.155 98.7181L185.198 118.765L149.324 59.7891L182.281 39.742L186.251 46.2674L160.727 61.7925L171.932 80.2122L195.968 65.5914L199.887 72.0342L175.851 86.655L188.663 107.718L214.186 92.1927L218.155 98.7181Z" fill="black"/>
<path d="M282.627 75.4066L274.329 78.0253L255.853 19.4796L235.016 26.0554C235.898 30.7784 236.797 35.7667 237.711 41.0202C238.606 46.2123 239.434 51.1893 240.193 55.9511C240.952 60.7129 241.498 64.7986 241.831 68.2081C242.331 72.5785 242.453 76.3924 242.197 79.6498C241.941 82.9072 241.062 85.5839 239.561 87.6798C238.121 89.7563 235.834 91.2891 232.699 92.2784C231.654 92.6082 230.54 92.8247 229.356 92.928C228.253 93.0734 227.253 93.1185 226.357 93.0633L224.175 86.1485C224.948 86.2424 225.804 86.2766 226.742 86.2508C227.66 86.1637 228.612 85.9649 229.595 85.6545C231.439 85.0726 232.651 83.8792 233.23 82.0743C233.851 80.1885 234.12 78.0422 234.037 75.6355C233.934 73.1673 233.748 70.7589 233.48 68.4104C233.235 65.9195 232.742 62.3239 232.002 57.6236C231.304 52.8424 230.404 47.3139 229.302 41.0381C228.262 34.7429 227.095 28.0483 225.803 20.954L261.852 9.57729L282.627 75.4066Z" fill="black"/>
<path d="M305.379 71.6262L301.912 2.68359L310.602 2.24653L312.069 31.4071L325.008 30.7564C331.445 30.4326 336.606 31.0443 340.492 32.5913C344.377 34.1383 347.231 36.3503 349.054 39.2273C350.876 42.1042 351.88 45.3773 352.064 49.0465C352.369 55.0975 350.555 60.0934 346.623 64.0342C342.687 67.9106 336.503 70.0608 328.071 70.4849L305.379 71.6262ZM326.828 63.0937C338.093 62.5271 343.512 57.9953 343.084 49.4981C342.861 45.0565 341.159 42.0121 337.979 40.3651C334.798 38.7181 330.247 38.0435 324.324 38.3413L312.448 38.9387L313.696 63.7541L326.828 63.0937Z" fill="black"/>
<path d="M422.593 81.5371L414.082 79.7285L420.774 48.2372L386.161 40.8823L379.47 72.3736L370.959 70.5651L385.307 3.04297L393.818 4.85155L387.749 33.4113L422.361 40.7662L428.43 12.2064L436.941 14.015L422.593 81.5371Z" fill="black"/>
<path d="M443.537 88.3796L477.037 28.0234L484.645 32.2461L470.476 57.7749L479.774 62.9359C485.41 66.0638 489.411 69.28 491.779 72.5845C494.203 75.9202 495.372 79.2596 495.286 82.6027C495.256 85.977 494.349 89.2702 492.566 92.4825C489.626 97.7798 485.53 101.109 480.278 102.469C475.114 103.805 468.813 102.408 461.374 98.2794L443.537 88.3796ZM492.059 115.311L525.559 54.9546L533.167 59.1773L499.667 119.533L492.059 115.311ZM464.263 91.4796C469.11 94.1696 473.204 95.2259 476.547 94.6486C479.89 94.0714 482.609 91.8948 484.705 88.1191C486.863 84.2306 487.096 80.8217 485.405 77.8926C483.801 74.9384 480.407 72.0225 475.222 69.1448L466.769 64.453L454.711 86.1778L464.263 91.4796Z" fill="black"/>
<path d="M544.337 161.453L516.713 134.527L564.896 85.0957L592.52 112.022L587.189 117.491L565.796 96.6385L550.747 112.077L570.894 131.715L565.63 137.115L545.484 117.477L528.275 135.131L549.668 155.984L544.337 161.453Z" fill="black"/>
<path d="M653.279 208.289C656.578 216.271 657.874 222.78 657.166 227.815C656.541 232.885 653.311 236.627 647.473 239.04C643.721 240.591 640.163 240.841 636.799 239.791C633.495 238.716 630.673 236.36 628.333 232.724L627.887 232.909C628.578 235.762 628.801 238.494 628.555 241.106C628.335 243.778 627.441 246.17 625.873 248.283C624.305 250.396 621.853 252.141 618.518 253.52C612.74 255.909 607.448 255.76 602.641 253.074C597.859 250.448 594.052 245.71 591.221 238.86L581.95 216.434L645.744 190.062L653.279 208.289ZM626.782 221.126C629.047 226.606 631.462 230.001 634.027 231.312C636.651 232.599 639.69 232.528 643.145 231.1C646.659 229.647 648.644 227.362 649.099 224.245C649.638 221.162 648.787 216.911 646.547 211.491L642.188 200.948L621.907 209.332L626.782 221.126ZM615.206 212.102L592.065 221.668L597.383 234.534C599.722 240.192 602.449 243.668 605.564 244.961C608.679 246.254 612.024 246.162 615.598 244.684C618.933 243.305 621.133 241.036 622.198 237.876C623.348 234.75 622.703 230.239 620.266 224.342L615.206 212.102Z" fill="black"/>
<path d="M610.853 317.486L604.644 279.414L672.773 268.303L678.983 306.375L671.445 307.605L666.636 278.12L645.357 281.59L649.886 309.357L642.443 310.571L637.915 282.804L613.583 286.772L618.391 316.257L610.853 317.486Z" fill="black"/>
<path d="M609.747 424.613L584.171 421.122L585.295 412.884L603.304 415.342L614.13 336.026L682.525 345.361L681.349 353.983L620.616 345.693L616.982 372.323L677.714 380.613L676.524 389.33L615.792 381.041L612.144 407.767L672.876 416.056L671.7 424.677L610.872 416.375L609.747 424.613Z" fill="black"/>
<path d="M655.98 468.951L652.313 476.197L618.499 459.082C616.601 458.121 614.488 457.015 612.16 455.764C609.831 454.513 607.718 453.336 605.821 452.231C603.895 451.184 602.501 450.37 601.639 449.789L601.464 450.134L635.285 509.838L630.919 518.464L569.329 487.29L572.997 480.044L606.466 496.985C608.593 498.062 610.85 499.24 613.236 500.52C615.594 501.858 617.749 503.093 619.704 504.227C621.658 505.361 623.052 506.175 623.886 506.669L624.06 506.324L590.025 446.403L594.391 437.777L655.98 468.951Z" fill="black"/>
</svg>
